<svg xmlns="http://www.w3.org/2000/svg" xmlns:xlink="http://www.w3.org/1999/xlink" width="113" height="113" viewBox="0 0 113 113">
  <defs>
    <filter id="Trazado_982547" x="0" y="0" width="113" height="113" filterUnits="userSpaceOnUse">
      <feOffset dy="3" input="SourceAlpha"/>
      <feGaussianBlur stdDeviation="3" result="blur"/>
      <feFlood flood-opacity="0.161"/>
      <feComposite operator="in" in2="blur"/>
      <feComposite in="SourceGraphic"/>
    </filter>
  </defs>
  <g id="Grupo_1202529" data-name="Grupo 1202529" transform="translate(9 6)">
    <g id="Grupo_1201898" data-name="Grupo 1201898">
      <g id="Grupo_1201680" data-name="Grupo 1201680">
        <g id="Grupo_1201330" data-name="Grupo 1201330">
          <g id="Grupo_1172010" data-name="Grupo 1172010">
            <g id="Grupo_1171046" data-name="Grupo 1171046">
              <g id="Grupo_1148525" data-name="Grupo 1148525">
                <g transform="matrix(1, 0, 0, 1, -9, -6)" filter="url(#Trazado_982547)">
                  <g id="Trazado_982547-2" data-name="Trazado 982547" transform="translate(9 6)" fill="#f3e6fd">
                    <path d="M 47.5 93.5 C 41.28937149047852 93.5 35.26533508300781 92.28397369384766 29.59518623352051 89.88570404052734 C 24.11771965026855 87.56893157958984 19.19813346862793 84.25196075439453 14.97309303283691 80.02691650390625 C 10.74804019927979 75.80186462402344 7.431066513061523 70.88229370117188 5.114293098449707 65.40481567382812 C 2.716026782989502 59.73468017578125 1.5 53.71062850952148 1.5 47.5 C 1.5 41.28937149047852 2.716026782989502 35.26533508300781 5.114293098449707 29.59518623352051 C 7.431066513061523 24.11771965026855 10.74804019927979 19.19813346862793 14.97309303283691 14.97309303283691 C 19.19813346862793 10.74804019927979 24.11771965026855 7.431066513061523 29.59518623352051 5.114293098449707 C 35.26533508300781 2.716026782989502 41.28937149047852 1.5 47.5 1.5 C 53.71062850952148 1.5 59.73468017578125 2.716026782989502 65.40481567382812 5.114293098449707 C 70.88229370117188 7.431066513061523 75.80186462402344 10.74804019927979 80.02691650390625 14.97309303283691 C 84.25196075439453 19.19813346862793 87.56893157958984 24.11771965026855 89.88570404052734 29.59518623352051 C 92.28397369384766 35.26533508300781 93.5 41.28937149047852 93.5 47.5 C 93.5 53.71062850952148 92.28397369384766 59.73468017578125 89.88570404052734 65.40481567382812 C 87.56893157958984 70.88229370117188 84.25196075439453 75.80186462402344 80.02691650390625 80.02691650390625 C 75.80186462402344 84.25196075439453 70.88229370117188 87.56893157958984 65.40481567382812 89.88570404052734 C 59.73468017578125 92.28397369384766 53.71062850952148 93.5 47.5 93.5 Z" stroke="none"/>
                    <path d="M 47.5 3 C 41.49121475219727 3 35.66376876831055 4.176155090332031 30.17950439453125 6.495796203613281 C 24.88084411621094 8.736953735351562 20.12152099609375 11.94598388671875 16.03375244140625 16.03375244140625 C 11.94598388671875 20.12152099609375 8.736953735351562 24.88084411621094 6.495796203613281 30.17950439453125 C 4.176155090332031 35.66376876831055 3 41.49121475219727 3 47.5 C 3 53.50878524780273 4.176155090332031 59.33623123168945 6.495796203613281 64.82049560546875 C 8.736953735351562 70.11915588378906 11.94598388671875 74.87847900390625 16.03375244140625 78.96624755859375 C 20.12152099609375 83.05401611328125 24.88084411621094 86.26304626464844 30.17950439453125 88.50419616699219 C 35.66376876831055 90.82384490966797 41.49121475219727 92 47.5 92 C 53.50878524780273 92 59.33623123168945 90.82384490966797 64.82049560546875 88.50419616699219 C 70.11915588378906 86.26304626464844 74.87847900390625 83.05401611328125 78.96624755859375 78.96624755859375 C 83.05401611328125 74.87847900390625 86.26304626464844 70.11915588378906 88.50419616699219 64.82049560546875 C 90.82384490966797 59.33623123168945 92 53.50878524780273 92 47.5 C 92 41.49121475219727 90.82384490966797 35.66376876831055 88.50419616699219 30.17950439453125 C 86.26304626464844 24.88084411621094 83.05401611328125 20.12152099609375 78.96624755859375 16.03375244140625 C 74.87847900390625 11.94598388671875 70.11915588378906 8.736953735351562 64.82049560546875 6.495796203613281 C 59.33623123168945 4.176155090332031 53.50878524780273 3 47.5 3 M 47.5 0 C 73.7335205078125 0 95 21.2664794921875 95 47.5 C 95 73.7335205078125 73.7335205078125 95 47.5 95 C 21.2664794921875 95 0 73.7335205078125 0 47.5 C 0 21.2664794921875 21.2664794921875 0 47.5 0 Z" stroke="none" fill="#951bf1"/>
                  </g>
                </g>
              </g>
            </g>
          </g>
        </g>
      </g>
    </g>
    <g id="flowchart_16090780" transform="translate(-32.969 9.627)">
      <path id="Trazado_1042218" data-name="Trazado 1042218" d="M199.036,22h13.723v9.588H199.036Z" transform="translate(-125.429 -12.314)" fill="#6cf5c2"/>
      <path id="Trazado_1042219" data-name="Trazado 1042219" d="M96.361,36.261h7.3a.843.843,0,0,0,.843-.843V27.95a.843.843,0,0,0-.843-.843h-2.807V14.48a.843.843,0,0,0-.843-.843h-11V8.843A.843.843,0,0,0,88.173,8H72.764a.843.843,0,0,0-.843.843V20.118a.843.843,0,0,0,.843.843h6.86v6.146h-5.7a.843.843,0,0,0-.815.625l-.833,3.11h-15a.843.843,0,0,0-.843.843V47.44a.843.843,0,0,0,.843.843H67.489l-1.332,1.174a.843.843,0,0,0,1.115,1.265l3.008-2.65a.843.843,0,0,0,0-1.266l-3.008-2.646a.843.843,0,1,0-1.114,1.266l1.33,1.17H58.116V32.529H71.822L71.107,35.2a.843.843,0,0,0,.815,1.061h7.7v5.565l-5.018,5.018a.843.843,0,0,0,0,1.192l5.018,5.018v5.537H76.653a4.577,4.577,0,0,0,0,9.154h7.628a4.585,4.585,0,0,0,4.494-3.708h14.889a.843.843,0,0,0,.843-.843V47.44a.843.843,0,0,0-.843-.843H91.216a.843.843,0,1,0,0,1.686h11.606V62.351H88.785a4.584,4.584,0,0,0-4.5-3.759H81.31V53.027l5.018-5.018a.843.843,0,0,0,0-1.192L81.31,41.8V36.261h5.706a.843.843,0,0,0,.814-.625l.832-3.107h6.855v2.889a.843.843,0,0,0,.843.843ZM87.173,63.166a2.9,2.9,0,0,1-2.892,2.892H76.653a2.89,2.89,0,0,1,0-5.781h7.628A2.894,2.894,0,0,1,87.173,63.166ZM80.454,51.5,76.395,47.44l4.086-4.086,4.059,4.059Zm22.368-16.924H97.2V28.793h5.617ZM73.607,9.686H87.33v9.588H73.607ZM86.369,34.574H73.02l1.549-5.781H87.918Zm2.746-3.732.716-2.674a.843.843,0,0,0-.815-1.061H81.31V20.961h6.863a.843.843,0,0,0,.843-.843V15.323H99.172V27.107h-2.81a.843.843,0,0,0-.843.843v2.892h-6.4ZM56.43,14.48a.843.843,0,0,1,.843-.843H65.05l-1.331-1.174A.843.843,0,0,1,64.834,11.2l3,2.65a.843.843,0,0,1,0,1.265l-3,2.646a.843.843,0,0,1-1.114-1.266l1.329-1.17H57.273A.843.843,0,0,1,56.43,14.48ZM68.284,63.166a.843.843,0,0,1-.843.843H59.5l1.331,1.174a.843.843,0,1,1-1.115,1.265l-3-2.65a.843.843,0,0,1,0-1.265l3-2.646a.843.843,0,0,1,1.114,1.266l-1.329,1.17h7.935a.843.843,0,0,1,.843.843ZM85,16.116a.843.843,0,0,1-.843.843H76.78a.843.843,0,0,1,0-1.686h7.379A.843.843,0,0,1,85,16.116Zm0-3.271a.843.843,0,0,1-.843.843H80.8A.843.843,0,1,1,80.8,12h3.36A.843.843,0,0,1,85,12.845Zm-9.065,0A.843.843,0,0,1,76.78,12H77.6a.843.843,0,1,1,0,1.686H76.78A.843.843,0,0,1,75.936,12.845Z" transform="translate(0)"/>
      <path id="Trazado_1042220" data-name="Trazado 1042220" d="M0,0H5.779V5.74H0Z" transform="translate(76.388 47.439) rotate(-45)" fill="#ffe177"/>
      <path id="Trazado_1042221" data-name="Trazado 1042221" d="M200.34,444.9a2.894,2.894,0,0,0,2.889,2.892h7.628a2.89,2.89,0,1,0,0-5.781h-7.628A2.892,2.892,0,0,0,200.34,444.9Z" transform="translate(-126.576 -381.729)" fill="#8ac9fe"/>
      <path id="Trazado_1042222" data-name="Trazado 1042222" d="M194.157,186.406h13.349l1.549-5.781H195.706Z" transform="translate(-121.137 -151.832)" fill="#fe646f"/>
      <path id="Trazado_1042223" data-name="Trazado 1042223" d="M394.938,180.625h5.617v5.781h-5.617Z" transform="translate(-297.733 -151.832)" fill="#8ac9fe"/>
    </g>
  </g>
</svg>
