<svg xmlns="http://www.w3.org/2000/svg" xmlns:xlink="http://www.w3.org/1999/xlink" width="113" height="113" viewBox="0 0 113 113">
  <defs>
    <filter id="Trazado_982547" x="0" y="0" width="113" height="113" filterUnits="userSpaceOnUse">
      <feOffset dy="3" input="SourceAlpha"/>
      <feGaussianBlur stdDeviation="3" result="blur"/>
      <feFlood flood-opacity="0.161"/>
      <feComposite operator="in" in2="blur"/>
      <feComposite in="SourceGraphic"/>
    </filter>
  </defs>
  <g id="Grupo_1202570" data-name="Grupo 1202570" transform="translate(-1163.883 -10796.885)">
    <g id="Grupo_1202530" data-name="Grupo 1202530" transform="translate(1172.883 10802.885)">
      <g id="Grupo_1201898" data-name="Grupo 1201898">
        <g id="Grupo_1201680" data-name="Grupo 1201680">
          <g id="Grupo_1201330" data-name="Grupo 1201330">
            <g id="Grupo_1172010" data-name="Grupo 1172010">
              <g id="Grupo_1171046" data-name="Grupo 1171046">
                <g id="Grupo_1148525" data-name="Grupo 1148525">
                  <g transform="matrix(1, 0, 0, 1, -9, -6)" filter="url(#Trazado_982547)">
                    <g id="Trazado_982547-2" data-name="Trazado 982547" transform="translate(9 6)" fill="#f3e6fd">
                      <path d="M 47.5 93.5 C 41.28937149047852 93.5 35.26533508300781 92.28397369384766 29.59518623352051 89.88570404052734 C 24.11771965026855 87.56893157958984 19.19813346862793 84.25196075439453 14.97309303283691 80.02691650390625 C 10.74804019927979 75.80186462402344 7.431066513061523 70.88229370117188 5.114293098449707 65.40481567382812 C 2.716026782989502 59.73468017578125 1.5 53.71062850952148 1.5 47.5 C 1.5 41.28937149047852 2.716026782989502 35.26533508300781 5.114293098449707 29.59518623352051 C 7.431066513061523 24.11771965026855 10.74804019927979 19.19813346862793 14.97309303283691 14.97309303283691 C 19.19813346862793 10.74804019927979 24.11771965026855 7.431066513061523 29.59518623352051 5.114293098449707 C 35.26533508300781 2.716026782989502 41.28937149047852 1.5 47.5 1.5 C 53.71062850952148 1.5 59.73468017578125 2.716026782989502 65.40481567382812 5.114293098449707 C 70.88229370117188 7.431066513061523 75.80186462402344 10.74804019927979 80.02691650390625 14.97309303283691 C 84.25196075439453 19.19813346862793 87.56893157958984 24.11771965026855 89.88570404052734 29.59518623352051 C 92.28397369384766 35.26533508300781 93.5 41.28937149047852 93.5 47.5 C 93.5 53.71062850952148 92.28397369384766 59.73468017578125 89.88570404052734 65.40481567382812 C 87.56893157958984 70.88229370117188 84.25196075439453 75.80186462402344 80.02691650390625 80.02691650390625 C 75.80186462402344 84.25196075439453 70.88229370117188 87.56893157958984 65.40481567382812 89.88570404052734 C 59.73468017578125 92.28397369384766 53.71062850952148 93.5 47.5 93.5 Z" stroke="none"/>
                      <path d="M 47.5 3 C 41.49121475219727 3 35.66376876831055 4.176155090332031 30.17950439453125 6.495796203613281 C 24.88084411621094 8.736953735351562 20.12152099609375 11.94598388671875 16.03375244140625 16.03375244140625 C 11.94598388671875 20.12152099609375 8.736953735351562 24.88084411621094 6.495796203613281 30.17950439453125 C 4.176155090332031 35.66376876831055 3 41.49121475219727 3 47.5 C 3 53.50878524780273 4.176155090332031 59.33623123168945 6.495796203613281 64.82049560546875 C 8.736953735351562 70.11915588378906 11.94598388671875 74.87847900390625 16.03375244140625 78.96624755859375 C 20.12152099609375 83.05401611328125 24.88084411621094 86.26304626464844 30.17950439453125 88.50419616699219 C 35.66376876831055 90.82384490966797 41.49121475219727 92 47.5 92 C 53.50878524780273 92 59.33623123168945 90.82384490966797 64.82049560546875 88.50419616699219 C 70.11915588378906 86.26304626464844 74.87847900390625 83.05401611328125 78.96624755859375 78.96624755859375 C 83.05401611328125 74.87847900390625 86.26304626464844 70.11915588378906 88.50419616699219 64.82049560546875 C 90.82384490966797 59.33623123168945 92 53.50878524780273 92 47.5 C 92 41.49121475219727 90.82384490966797 35.66376876831055 88.50419616699219 30.17950439453125 C 86.26304626464844 24.88084411621094 83.05401611328125 20.12152099609375 78.96624755859375 16.03375244140625 C 74.87847900390625 11.94598388671875 70.11915588378906 8.736953735351562 64.82049560546875 6.495796203613281 C 59.33623123168945 4.176155090332031 53.50878524780273 3 47.5 3 M 47.5 0 C 73.7335205078125 0 95 21.2664794921875 95 47.5 C 95 73.7335205078125 73.7335205078125 95 47.5 95 C 21.2664794921875 95 0 73.7335205078125 0 47.5 C 0 21.2664794921875 21.2664794921875 0 47.5 0 Z" stroke="none" fill="#951bf1"/>
                    </g>
                  </g>
                </g>
              </g>
            </g>
          </g>
        </g>
      </g>
    </g>
    <g id="choice_4295993" transform="translate(1188.06 10809.58)">
      <g id="Grupo_1202568" data-name="Grupo 1202568" transform="translate(0.895 15.975)">
        <path id="Trazado_1042258" data-name="Trazado 1042258" d="M80.127,59.73H98.659V46.469a8.3,8.3,0,0,1,8.3-8.3h.189l0-1.111a1.409,1.409,0,0,1,2.111-1.226l6.1,3.5a1.41,1.41,0,0,1,.007,2.441l-6.081,3.531a1.409,1.409,0,0,1-2.118-1.215l0-1.146h-.185a3.537,3.537,0,0,0-3.536,3.537V59.73h3.709l0-1.111a1.409,1.409,0,0,1,2.111-1.226l6.1,3.5a1.41,1.41,0,0,1,.007,2.441l-6.081,3.531a1.409,1.409,0,0,1-2.118-1.215l0-1.146h-3.721V77.778a3.537,3.537,0,0,0,3.536,3.537h.185l0-1.146a1.409,1.409,0,0,1,2.118-1.215l6.081,3.531a1.41,1.41,0,0,1-.007,2.441l-6.1,3.5A1.409,1.409,0,0,1,107.14,87.2l0-1.111h-.189a8.3,8.3,0,0,1-8.3-8.3V64.5h-15.3" transform="translate(-71.457 -34.086)" fill="#4a80aa"/>
        <g id="Grupo_1202564" data-name="Grupo 1202564" transform="translate(47.182 0)">
          <circle id="Elipse_12518" data-name="Elipse 12518" cx="6.038" cy="6.038" r="6.038" transform="translate(0 0.001)" fill="#a2e19f"/>
          <path id="Trazado_1042259" data-name="Trazado 1042259" d="M410.785,34.319a6.038,6.038,0,1,1,0-11.4,6.039,6.039,0,0,0,0,11.4Z" transform="translate(-402.753 -22.58)" fill="#97cf92"/>
        </g>
        <g id="Grupo_1202565" data-name="Grupo 1202565" transform="translate(47.182 43.581)">
          <circle id="Elipse_12519" data-name="Elipse 12519" cx="6.038" cy="6.038" r="6.038" transform="translate(0 0.001)" fill="#9dc6fb"/>
          <path id="Trazado_1042260" data-name="Trazado 1042260" d="M410.785,399.406a6.038,6.038,0,1,1,0-11.4,6.039,6.039,0,0,0,0,11.4Z" transform="translate(-402.753 -387.667)" fill="#80b4fb"/>
        </g>
        <g id="Grupo_1202566" data-name="Grupo 1202566" transform="translate(47.182 21.791)">
          <circle id="Elipse_12520" data-name="Elipse 12520" cx="6.038" cy="6.038" r="6.038" transform="translate(0 0.001)" fill="#e28086"/>
          <path id="Trazado_1042261" data-name="Trazado 1042261" d="M410.785,216.862a6.038,6.038,0,1,1,0-11.4,6.039,6.039,0,0,0,0,11.4Z" transform="translate(-402.753 -205.123)" fill="#dd636e"/>
        </g>
        <g id="Grupo_1202567" data-name="Grupo 1202567" transform="translate(0 13.34)">
          <path id="Trazado_1042262" data-name="Trazado 1042262" d="M27.6,145.464v8.859a3.386,3.386,0,0,1-3.386,3.386H10.885A3.386,3.386,0,0,1,7.5,154.323v-16.6a3.386,3.386,0,0,1,3.386-3.386h5.589a4.232,4.232,0,0,1,2.993,1.24l6.9,6.9A4.232,4.232,0,0,1,27.6,145.464Z" transform="translate(-7.499 -134.335)" fill="#f9f6f9"/>
          <path id="Trazado_1042263" data-name="Trazado 1042263" d="M88.479,145.464v.723A2.476,2.476,0,0,0,86,143.711H82.489a3.386,3.386,0,0,1-3.386-3.386v-3.514a2.476,2.476,0,0,0-2.476-2.476h.723a4.236,4.236,0,0,1,2.993,1.24l6.9,6.9A4.236,4.236,0,0,1,88.479,145.464Z" transform="translate(-68.375 -134.335)" fill="#dddaec"/>
        </g>
      </g>
      <g id="Grupo_1202569" data-name="Grupo 1202569" transform="translate(0 15.08)">
        <path id="Trazado_1042264" data-name="Trazado 1042264" d="M35.7,37.318v.157a2.3,2.3,0,0,0,3.463,1.988l6.082-3.532a2.3,2.3,0,0,0-.012-3.991l-6.1-3.5a2.3,2.3,0,0,0-3.452,2v.241A9.2,9.2,0,0,0,27.2,39.848V52.214H21.895v-.278a5.179,5.179,0,0,0-.1-1.009,5.09,5.09,0,0,0-1.4-2.618l-6.9-6.9a5.191,5.191,0,0,0-.722-.6,5.089,5.089,0,0,0-2.9-.9H4.281A4.286,4.286,0,0,0,0,44.192v16.6a4.286,4.286,0,0,0,4.281,4.281H4.6a.9.9,0,0,0,0-1.791H4.281a2.493,2.493,0,0,1-2.49-2.49v-16.6A2.493,2.493,0,0,1,4.281,41.7H9.147a1.582,1.582,0,0,1,1.581,1.581V46.8a4.286,4.286,0,0,0,4.281,4.281h3.514a1.582,1.582,0,0,1,1.58,1.574v8.143a2.493,2.493,0,0,1-2.49,2.49H8.153a.9.9,0,0,0,0,1.791h9.46a4.286,4.286,0,0,0,4.281-4.281V58.78H27.2V71.173a9.2,9.2,0,0,0,8.483,9.165v.24a2.3,2.3,0,0,0,3.451,2.005l6.1-3.5a2.3,2.3,0,0,0,.012-3.992l-6.08-3.531A2.3,2.3,0,0,0,35.7,73.545V73.7a2.646,2.646,0,0,1-1.935-2.546V58.78H35.7v.253a2.3,2.3,0,0,0,3.463,1.988l6.082-3.532a2.3,2.3,0,0,0-.012-3.991l-6.1-3.5a2.3,2.3,0,0,0-3.452,2v.214H33.766V39.864A2.646,2.646,0,0,1,35.7,37.318ZM18.523,49.287H15.009a2.493,2.493,0,0,1-2.49-2.49V43.283q0-.167-.016-.33L18.854,49.3q-.163-.016-.331-.016ZM32.871,54h3.664a.945.945,0,0,0,.132,0h.012a.9.9,0,0,0,.8-1.039l0-.966a.513.513,0,0,1,.769-.447l6.1,3.5a.514.514,0,0,1,0,.89l-6.081,3.531a.514.514,0,0,1-.772-.444l0-1.146a.9.9,0,0,0-.9-.893H32.871a.9.9,0,0,0-.9.9V71.157a4.437,4.437,0,0,0,4.431,4.432h.186a.9.9,0,0,0,.9-.893l0-1.147a.514.514,0,0,1,.773-.443l6.08,3.53a.514.514,0,0,1,0,.891l-6.1,3.5a.513.513,0,0,1-.769-.448l0-1.111a.9.9,0,0,0-.9-.9h-.19a7.409,7.409,0,0,1-7.4-7.4V57.884a.9.9,0,0,0-.9-.9h-6.2V54h6.2a.9.9,0,0,0,.9-.9V39.848a7.409,7.409,0,0,1,7.4-7.4h.19a.9.9,0,0,0,.9-.9l0-1.112a.513.513,0,0,1,.769-.447l6.1,3.5a.514.514,0,0,1,0,.89l-6.081,3.531a.514.514,0,0,1-.772-.444l0-1.146a.9.9,0,0,0-.9-.893h-.186a4.437,4.437,0,0,0-4.431,4.432V53.109a.9.9,0,0,0,.9.9Z" transform="translate(0 -26.571)"/>
        <path id="Trazado_1042265" data-name="Trazado 1042265" d="M402.184,28.947a6.916,6.916,0,0,0,3.644-1.034.9.9,0,1,0-.943-1.522,5.131,5.131,0,1,1,2-2.3.9.9,0,1,0,1.637.724,6.935,6.935,0,1,0-6.342,4.127Z" transform="translate(-348.068 -15.08)"/>
        <path id="Trazado_1042266" data-name="Trazado 1042266" d="M402.187,380.172a6.934,6.934,0,1,0,6.934,6.934A6.942,6.942,0,0,0,402.187,380.172Zm0,12.077a5.143,5.143,0,1,1,5.143-5.143A5.149,5.149,0,0,1,402.187,392.249Z" transform="translate(-348.071 -336.59)"/>
        <path id="Trazado_1042267" data-name="Trazado 1042267" d="M402.187,197.629a6.934,6.934,0,1,0,6.934,6.934A6.941,6.941,0,0,0,402.187,197.629Zm0,12.077a5.143,5.143,0,1,1,5.143-5.143A5.149,5.149,0,0,1,402.187,209.706Z" transform="translate(-348.071 -175.838)"/>
        <path id="Trazado_1042268" data-name="Trazado 1042268" d="M40.766,233.536H51.351a.9.9,0,1,0,0-1.791H40.766a.9.9,0,0,0,0,1.791Z" transform="translate(-35.112 -205.881)"/>
        <path id="Trazado_1042269" data-name="Trazado 1042269" d="M40.766,262.358H51.351a.9.9,0,0,0,0-1.791H40.766a.9.9,0,0,0,0,1.791Z" transform="translate(-35.112 -231.263)"/>
        <path id="Trazado_1042270" data-name="Trazado 1042270" d="M40.766,291.179H51.351a.9.9,0,1,0,0-1.791H40.766a.9.9,0,1,0,0,1.791Z" transform="translate(-35.112 -256.643)"/>
      </g>
    </g>
  </g>
</svg>
