<svg xmlns="http://www.w3.org/2000/svg" xmlns:xlink="http://www.w3.org/1999/xlink" width="103" height="103" viewBox="0 0 103 103">
  <defs>
    <filter id="Trazado_978624" x="0" y="0" width="103" height="103" filterUnits="userSpaceOnUse">
      <feOffset dy="3" input="SourceAlpha"/>
      <feGaussianBlur stdDeviation="3" result="blur"/>
      <feFlood flood-opacity="0.161"/>
      <feComposite operator="in" in2="blur"/>
      <feComposite in="SourceGraphic"/>
    </filter>
  </defs>
  <g id="Grupo_1202674" data-name="Grupo 1202674" transform="translate(-171 -7569)">
    <g id="Grupo_1202505" data-name="Grupo 1202505" transform="translate(180 7575)">
      <g id="Grupo_1176881" data-name="Grupo 1176881">
        <g id="Grupo_1175148" data-name="Grupo 1175148">
          <g id="Grupo_1173798" data-name="Grupo 1173798">
            <g id="Grupo_1171925" data-name="Grupo 1171925">
              <g id="Grupo_1164524" data-name="Grupo 1164524">
                <g id="Grupo_1144123" data-name="Grupo 1144123">
                  <g transform="matrix(1, 0, 0, 1, -9, -6)" filter="url(#Trazado_978624)">
                    <g id="Trazado_978624-2" data-name="Trazado 978624" transform="translate(9 6)" fill="#e6fdfd">
                      <path d="M 42.5 83.5 C 36.96437835693359 83.5 31.59512901306152 82.41617584228516 26.54141235351562 80.27863311767578 C 21.65934181213379 78.21369171142578 17.27447128295898 75.25723266601562 13.50862312316895 71.49137878417969 C 9.742764472961426 67.72553253173828 6.786305904388428 63.34066009521484 4.721364498138428 58.45858764648438 C 2.583823442459106 53.40486907958984 1.5 48.03562164306641 1.5 42.5 C 1.5 36.96437835693359 2.583823442459106 31.59512901306152 4.721364498138428 26.54141235351562 C 6.786305904388428 21.65934181213379 9.742764472961426 17.27447128295898 13.50862312316895 13.50862312316895 C 17.27447128295898 9.742764472961426 21.65934181213379 6.786305904388428 26.54141235351562 4.721364498138428 C 31.59512901306152 2.583823442459106 36.96437835693359 1.5 42.5 1.5 C 48.03562164306641 1.5 53.40486907958984 2.583823442459106 58.45858764648438 4.721364498138428 C 63.34066009521484 6.786305904388428 67.72553253173828 9.742764472961426 71.49137878417969 13.50862312316895 C 75.25723266601562 17.27447128295898 78.21369171142578 21.65934181213379 80.27863311767578 26.54141235351562 C 82.41617584228516 31.59512901306152 83.5 36.96437835693359 83.5 42.5 C 83.5 48.03562164306641 82.41617584228516 53.40486907958984 80.27863311767578 58.45858764648438 C 78.21369171142578 63.34066009521484 75.25723266601562 67.72553253173828 71.49137878417969 71.49137878417969 C 67.72553253173828 75.25723266601562 63.34066009521484 78.21369171142578 58.45858764648438 80.27863311767578 C 53.40486907958984 82.41617584228516 48.03562164306641 83.5 42.5 83.5 Z" stroke="none"/>
                      <path d="M 42.5 3 C 37.16621398925781 3 31.99356079101562 4.043960571289062 27.125732421875 6.102882385253906 C 22.42246627807617 8.092185974121094 18.19785308837891 10.94070434570312 14.56928253173828 14.56928253173828 C 10.94070434570312 18.19785308837891 8.092185974121094 22.42246627807617 6.102882385253906 27.125732421875 C 4.043960571289062 31.99356079101562 3 37.16621398925781 3 42.5 C 3 47.83378601074219 4.043960571289062 53.00643920898438 6.102882385253906 57.87425231933594 C 8.092185974121094 62.57753372192383 10.94070434570312 66.80213165283203 14.56928253173828 70.43071746826172 C 18.19786834716797 74.05929565429688 22.42246627807617 76.90781402587891 27.125732421875 78.89711761474609 C 31.99356079101562 80.95603942871094 37.16621398925781 82 42.5 82 C 47.83378601074219 82 53.00642395019531 80.95603942871094 57.87425231933594 78.89711761474609 C 62.57753372192383 76.90781402587891 66.80213165283203 74.05929565429688 70.43071746826172 70.43071746826172 C 74.05929565429688 66.80213165283203 76.90781402587891 62.57753372192383 78.89711761474609 57.87425231933594 C 80.95603942871094 53.00642395019531 82 47.83378601074219 82 42.5 C 82 37.16621398925781 80.95603942871094 31.99356079101562 78.89711761474609 27.125732421875 C 76.90781402587891 22.42246627807617 74.05929565429688 18.19786834716797 70.43071746826172 14.56928253173828 C 66.80213165283203 10.94070434570312 62.57753372192383 8.092185974121094 57.87425231933594 6.102882385253906 C 53.00643920898438 4.043960571289062 47.83378601074219 3 42.5 3 M 42.5 0 C 65.97209167480469 0 85 19.02789306640625 85 42.5 C 85 65.97209167480469 65.97209167480469 85 42.5 85 C 19.02789306640625 85 0 65.97209167480469 0 42.5 C 0 19.02789306640625 19.02789306640625 0 42.5 0 Z" stroke="none" fill="#1bf5f5"/>
                    </g>
                  </g>
                </g>
              </g>
            </g>
          </g>
        </g>
      </g>
      <g id="classification_12392308" transform="translate(2.404 9.151)">
        <g id="Grupo_1202574" data-name="Grupo 1202574" transform="translate(15.03 7.5)">
          <path id="Trazado_1042302" data-name="Trazado 1042302" d="M301.99,146.947H306.6a1.958,1.958,0,1,0,0-3.916h-3.813C300.61,143.376,299.762,145.959,301.99,146.947Z" transform="translate(-270.963 -128.931)" fill="#f9d171"/>
          <path id="Trazado_1042303" data-name="Trazado 1042303" d="M308.014,75.266h4.614a1.958,1.958,0,1,1,0,3.916h-3.813A2.517,2.517,0,0,1,308.014,75.266Z" transform="translate(-276.987 -68.216)" fill="#f9d171"/>
          <path id="Trazado_1042304" data-name="Trazado 1042304" d="M142.072,146.947h-4.614a1.958,1.958,0,1,1,0-3.916h3.813A2.353,2.353,0,0,1,142.072,146.947Z" transform="translate(-122.967 -128.931)" fill="#f9d171"/>
          <path id="Trazado_1042305" data-name="Trazado 1042305" d="M142.072,75.266h-4.614a1.958,1.958,0,1,0,0,3.916h3.813A2.381,2.381,0,0,0,142.072,75.266Z" transform="translate(-122.967 -68.216)" fill="#f9d171"/>
          <path id="Trazado_1042306" data-name="Trazado 1042306" d="M203.265,14.072V9.458a1.958,1.958,0,0,1,3.917,0v3.813A2.347,2.347,0,0,1,203.265,14.072Z" transform="translate(-183.682 -7.5)" fill="#f9d171"/>
          <path id="Trazado_1042307" data-name="Trazado 1042307" d="M274.946,14.072V9.458a1.958,1.958,0,1,0-3.917,0v3.813A3.591,3.591,0,0,0,274.946,14.072Z" transform="translate(-244.396 -7.5)" fill="#f9d171"/>
          <rect id="Rectángulo_417663" data-name="Rectángulo 417663" width="3.121" height="8.069" transform="translate(23.506 18.436)" fill="#928cd9"/>
          <rect id="Rectángulo_417664" data-name="Rectángulo 417664" width="3.121" height="7.078" transform="translate(42.305 33.632)" fill="#928cd9"/>
          <rect id="Rectángulo_417665" data-name="Rectángulo 417665" width="3.121" height="7.615" transform="translate(4.706 33.363)" fill="#736acc"/>
          <path id="Trazado_1042308" data-name="Trazado 1042308" d="M118.1,267.978l-11.449,2.385-.637-3.055,11.953-2.49Z" transform="translate(-96.548 -238.048)" fill="#736acc"/>
          <rect id="Rectángulo_417666" data-name="Rectángulo 417666" width="3.133" height="7.34" transform="translate(23.499 31.123)" fill="#928cd9"/>
          <path id="Trazado_1042309" data-name="Trazado 1042309" d="M281.883,267.979l11.449,2.385.637-3.055-11.953-2.49A1.766,1.766,0,0,0,281.883,267.979Z" transform="translate(-253.302 -238.049)" fill="#928cd9"/>
          <path id="Trazado_1042310" data-name="Trazado 1042310" d="M211.962,64.591a4.689,4.689,0,0,1-4.272,4.272q-.468.041-.937.07c-.312-.02-3.748-.043-4.06-.07a4.689,4.689,0,0,1-4.273-4.272,39.81,39.81,0,0,1,0-6.829,4.689,4.689,0,0,1,4.273-4.272c.312-.027,3.748-.05,4.06-.07q.47.03.937.07a4.689,4.689,0,0,1,4.272,4.272A39.814,39.814,0,0,1,211.962,64.591Z" transform="translate(-179.209 -48.644)" fill="#5ad6ff"/>
          <path id="Trazado_1042311" data-name="Trazado 1042311" d="M190.053,68.2c.312.027.625.05.937.07a39.919,39.919,0,0,1-5.891-.07,4.689,4.689,0,0,1-4.272-4.272,39.81,39.81,0,0,1,0-6.829A4.689,4.689,0,0,1,185.1,52.83a39.92,39.92,0,0,1,5.891-.07c-.312.02-.625.043-.937.07a4.689,4.689,0,0,0-4.273,4.272,39.81,39.81,0,0,0,0,6.829A4.689,4.689,0,0,0,190.053,68.2Z" transform="translate(-163.448 -47.983)" fill="#00bdfd"/>
          <path id="Trazado_1042312" data-name="Trazado 1042312" d="M36.953,394.341a3.113,3.113,0,0,1-2.526,2.5q-.854.153-1.726.229c-.581-.052-3.243-.129-3.823-.233-3.765-.675-4.3-11.15.026-11.922.569-.1,3.227-.178,3.807-.228q.871.078,1.743.233a3.113,3.113,0,0,1,2.5,2.526A19.56,19.56,0,0,1,36.953,394.341Z" transform="translate(-24.728 -345.45)" fill="#ffbed8"/>
          <path id="Trazado_1042313" data-name="Trazado 1042313" d="M21.261,396.2q.871.156,1.742.233a19.547,19.547,0,0,1-5.165-.233,3.115,3.115,0,0,1-2.505-2.526,19.585,19.585,0,0,1,.005-6.891,3.116,3.116,0,0,1,2.527-2.505,19.676,19.676,0,0,1,5.148-.228c-.579.05-1.156.127-1.725.228a3.116,3.116,0,0,0-2.527,2.505,19.56,19.56,0,0,0,0,6.891A3.113,3.113,0,0,0,21.261,396.2Z" transform="translate(-15.03 -344.808)" fill="#ff97c1"/>
          <path id="Trazado_1042314" data-name="Trazado 1042314" d="M394.059,394.266a3.115,3.115,0,0,1-2.505,2.526q-.864.154-1.728.232H389.8c-8.419,1.064-11.078-12.678-.016-12.384h.005q.875.076,1.735.229a3.116,3.116,0,0,1,2.527,2.505A19.585,19.585,0,0,1,394.059,394.266Z" transform="translate(-344.23 -345.401)" fill="#5ad6ff"/>
          <path id="Trazado_1042315" data-name="Trazado 1042315" d="M221.347,380.957q-.66.083-1.319.126c-.447-.03-2.975-.073-3.418-.128-5.622-.7-.814-10.293,3.418-9.964a3.021,3.021,0,0,1,.823.759,25.963,25.963,0,0,1,2.9,4.958A3.045,3.045,0,0,1,221.347,380.957Z" transform="translate(-193.35 -333.168)" fill="#f9d171"/>
          <path id="Trazado_1042316" data-name="Trazado 1042316" d="M208.014,377.081q.665.083,1.336.128a23.682,23.682,0,0,1-4.558-.128,3.041,3.041,0,0,1-2.392-4.247,25.944,25.944,0,0,1,2.9-4.959,3.046,3.046,0,0,1,4.045-.758,2.989,2.989,0,0,0-.824.758,25.939,25.939,0,0,0-2.9,4.959A3.042,3.042,0,0,0,208.014,377.081Z" transform="translate(-182.672 -329.293)" fill="#fab658"/>
          <path id="Trazado_1042317" data-name="Trazado 1042317" d="M240.351,251.185c-2.282.185-3.552-1.985-3.552-3.594A3.542,3.542,0,0,1,240.351,244,3.92,3.92,0,0,1,240.351,251.185Z" transform="translate(-213.727 -219.39)" fill="#5ad6ff"/>
          <path id="Trazado_1042318" data-name="Trazado 1042318" d="M223.8,248.385a3.917,3.917,0,1,1,0-7.189A3.92,3.92,0,0,0,223.8,248.385Z" transform="translate(-197.172 -216.591)" fill="#00bdfd"/>
          <path id="Trazado_1042319" data-name="Trazado 1042319" d="M382.673,396.2q.871.156,1.742.233a19.547,19.547,0,0,1-5.165-.233,3.115,3.115,0,0,1-2.505-2.526,19.585,19.585,0,0,1,.005-6.891,3.116,3.116,0,0,1,2.527-2.505,19.676,19.676,0,0,1,5.148-.228c-.579.05-1.156.127-1.725.228a3.116,3.116,0,0,0-2.527,2.505,19.56,19.56,0,0,0,0,6.891A3.113,3.113,0,0,0,382.673,396.2Z" transform="translate(-338.842 -344.808)" fill="#00bdfd"/>
          <path id="Trazado_1042320" data-name="Trazado 1042320" d="M59.657,283.138c-2.283.184-3.553-1.983-3.553-3.59a3.541,3.541,0,0,1,3.553-3.59A3.913,3.913,0,0,1,59.657,283.138Z" transform="translate(-51.831 -248.027)" fill="#f9d171"/>
          <path id="Trazado_1042321" data-name="Trazado 1042321" d="M43.094,280.342a3.915,3.915,0,1,1,0-7.181A3.913,3.913,0,0,0,43.094,280.342Z" transform="translate(-35.267 -245.231)" fill="#fab658"/>
          <path id="Trazado_1042322" data-name="Trazado 1042322" d="M421.069,283.138c-2.283.184-3.553-1.983-3.553-3.59a3.541,3.541,0,0,1,3.553-3.59A3.913,3.913,0,0,1,421.069,283.138Z" transform="translate(-375.644 -248.027)" fill="#f9d171"/>
          <path id="Trazado_1042323" data-name="Trazado 1042323" d="M404.506,280.342a3.915,3.915,0,1,1,0-7.181A3.913,3.913,0,0,0,404.506,280.342Z" transform="translate(-359.08 -245.231)" fill="#fab658"/>
        </g>
        <g id="Grupo_1202575" data-name="Grupo 1202575" transform="translate(15.03 7.5)">
          <path id="Trazado_1042324" data-name="Trazado 1042324" d="M191.924,52.823a39.824,39.824,0,0,0-6.828,0,4.69,4.69,0,0,0-4.272,4.272,39.824,39.824,0,0,0,0,6.828A4.69,4.69,0,0,0,185.1,68.2a39.825,39.825,0,0,0,6.828,0,4.69,4.69,0,0,0,4.272-4.272,39.824,39.824,0,0,0,0-6.828A4.69,4.69,0,0,0,191.924,52.823Z" transform="translate(-163.444 -47.977)" fill="none" stroke="#000" stroke-linecap="round" stroke-linejoin="round" stroke-miterlimit="10" stroke-width="1.2"/>
          <path id="Trazado_1042325" data-name="Trazado 1042325" d="M323.266,146.945h3.574a1.958,1.958,0,1,0,0-3.917h-2.772" transform="translate(-291.199 -128.928)" fill="none" stroke="#000" stroke-linecap="round" stroke-linejoin="round" stroke-miterlimit="10" stroke-width="1.2"/>
          <path id="Trazado_1042326" data-name="Trazado 1042326" d="M323.266,75.265h3.574a1.958,1.958,0,1,1,0,3.917h-2.772" transform="translate(-291.199 -68.215)" fill="none" stroke="#000" stroke-linecap="round" stroke-linejoin="round" stroke-miterlimit="10" stroke-width="1.2"/>
          <path id="Trazado_1042327" data-name="Trazado 1042327" d="M141.032,146.945h-3.574a1.958,1.958,0,0,1,0-3.917h2.772" transform="translate(-122.967 -128.928)" fill="none" stroke="#000" stroke-linecap="round" stroke-linejoin="round" stroke-miterlimit="10" stroke-width="1.2"/>
          <path id="Trazado_1042328" data-name="Trazado 1042328" d="M141.032,75.265h-3.574a1.958,1.958,0,0,0,0,3.917h2.772" transform="translate(-122.967 -68.215)" fill="none" stroke="#000" stroke-linecap="round" stroke-linejoin="round" stroke-miterlimit="10" stroke-width="1.2"/>
          <path id="Trazado_1042329" data-name="Trazado 1042329" d="M203.265,13.032V9.458a1.958,1.958,0,0,1,3.917,0v2.772" transform="translate(-183.682 -7.5)" fill="none" stroke="#000" stroke-linecap="round" stroke-linejoin="round" stroke-miterlimit="10" stroke-width="1.2"/>
          <path id="Trazado_1042330" data-name="Trazado 1042330" d="M274.946,13.032V9.458a1.958,1.958,0,1,0-3.917,0v2.772" transform="translate(-244.396 -7.5)" fill="none" stroke="#000" stroke-linecap="round" stroke-linejoin="round" stroke-miterlimit="10" stroke-width="1.2"/>
          <path id="Trazado_1042331" data-name="Trazado 1042331" d="M27.563,390.238a19.558,19.558,0,0,1-.308,3.458,3.114,3.114,0,0,1-2.526,2.505,19.583,19.583,0,0,1-6.891,0,3.114,3.114,0,0,1-2.505-2.526,19.584,19.584,0,0,1,0-6.891,3.114,3.114,0,0,1,2.527-2.505,19.581,19.581,0,0,1,6.891,0,3.114,3.114,0,0,1,2.5,2.526q.027.149.051.3" transform="translate(-15.031 -344.805)" fill="none" stroke="#000" stroke-linecap="round" stroke-linejoin="round" stroke-miterlimit="10" stroke-width="1.2"/>
          <circle id="Elipse_12523" data-name="Elipse 12523" cx="3.917" cy="3.917" r="3.917" transform="translate(2.35 27.604)" fill="none" stroke="#000" stroke-linecap="round" stroke-linejoin="round" stroke-miterlimit="10" stroke-width="1.2"/>
          <path id="Trazado_1042332" data-name="Trazado 1042332" d="M379.276,396.2a19.583,19.583,0,0,0,6.891,0,3.114,3.114,0,0,0,2.505-2.526,19.584,19.584,0,0,0,0-6.891,3.114,3.114,0,0,0-2.527-2.505,19.581,19.581,0,0,0-6.891,0,3.114,3.114,0,0,0-2.5,2.526,19.584,19.584,0,0,0,0,6.891A3.114,3.114,0,0,0,379.276,396.2Z" transform="translate(-338.842 -344.805)" fill="none" stroke="#000" stroke-linecap="round" stroke-linejoin="round" stroke-miterlimit="10" stroke-width="1.2"/>
          <circle id="Elipse_12524" data-name="Elipse 12524" cx="3.917" cy="3.917" r="3.917" transform="translate(39.949 27.604)" fill="none" stroke="#000" stroke-linecap="round" stroke-linejoin="round" stroke-miterlimit="10" stroke-width="1.2"/>
          <path id="Trazado_1042333" data-name="Trazado 1042333" d="M205.306,367.877a25.925,25.925,0,0,0-2.9,4.958,3.041,3.041,0,0,0,2.391,4.247,23.811,23.811,0,0,0,5.877,0,3.045,3.045,0,0,0,2.407-4.249,25.93,25.93,0,0,0-2.9-4.958A3.043,3.043,0,0,0,205.306,367.877Z" transform="translate(-182.673 -329.296)" fill="none" stroke="#000" stroke-linecap="round" stroke-linejoin="round" stroke-miterlimit="10" stroke-width="1.2"/>
          <line id="Línea_994" data-name="Línea 994" y1="4.114" transform="translate(4.706 35.114)" fill="none" stroke="#000" stroke-linecap="round" stroke-linejoin="round" stroke-miterlimit="10" stroke-width="1.2"/>
          <line id="Línea_995" data-name="Línea 995" y1="2.49" x2="11.953" transform="translate(9.465 26.77)" fill="none" stroke="#000" stroke-linecap="round" stroke-linejoin="round" stroke-miterlimit="10" stroke-width="1.2"/>
          <line id="Línea_996" data-name="Línea 996" y1="4.27" transform="translate(23.506 20.336)" fill="none" stroke="#000" stroke-linecap="round" stroke-linejoin="round" stroke-miterlimit="10" stroke-width="1.2"/>
          <line id="Línea_997" data-name="Línea 997" y2="4.27" transform="translate(26.627 20.336)" fill="none" stroke="#000" stroke-linecap="round" stroke-linejoin="round" stroke-miterlimit="10" stroke-width="1.2"/>
          <line id="Línea_998" data-name="Línea 998" x2="6.201" y2="1.292" transform="translate(34.466 27.968)" fill="none" stroke="#000" stroke-linecap="round" stroke-linejoin="round" stroke-miterlimit="10" stroke-width="1.2"/>
          <line id="Línea_999" data-name="Línea 999" x2="2.619" y2="0.546" transform="translate(28.713 26.77)" fill="none" stroke="#000" stroke-linecap="round" stroke-linejoin="round" stroke-miterlimit="10" stroke-width="1.2"/>
          <line id="Línea_1000" data-name="Línea 1000" y2="4.114" transform="translate(45.426 35.114)" fill="none" stroke="#000" stroke-linecap="round" stroke-linejoin="round" stroke-miterlimit="10" stroke-width="1.2"/>
          <line id="Línea_1001" data-name="Línea 1001" y1="4.114" transform="translate(42.305 35.114)" fill="none" stroke="#000" stroke-linecap="round" stroke-linejoin="round" stroke-miterlimit="10" stroke-width="1.2"/>
          <line id="Línea_1002" data-name="Línea 1002" y2="4.114" transform="translate(7.827 35.114)" fill="none" stroke="#000" stroke-linecap="round" stroke-linejoin="round" stroke-miterlimit="10" stroke-width="1.2"/>
          <line id="Línea_1003" data-name="Línea 1003" y1="2.385" x2="11.449" transform="translate(10.102 29.93)" fill="none" stroke="#000" stroke-linecap="round" stroke-linejoin="round" stroke-miterlimit="10" stroke-width="1.2"/>
          <line id="Línea_1004" data-name="Línea 1004" y2="6.005" transform="translate(23.499 31.79)" fill="none" stroke="#000" stroke-linecap="round" stroke-linejoin="round" stroke-miterlimit="10" stroke-width="1.2"/>
          <line id="Línea_1005" data-name="Línea 1005" y1="6.005" transform="translate(26.633 31.79)" fill="none" stroke="#000" stroke-linecap="round" stroke-linejoin="round" stroke-miterlimit="10" stroke-width="1.2"/>
          <line id="Línea_1006" data-name="Línea 1006" x2="11.449" y2="2.385" transform="translate(28.58 29.93)" fill="none" stroke="#000" stroke-linecap="round" stroke-linejoin="round" stroke-miterlimit="10" stroke-width="1.2"/>
          <circle id="Elipse_12525" data-name="Elipse 12525" cx="3.917" cy="3.917" r="3.917" transform="translate(21.149 24.283)" fill="none" stroke="#000" stroke-linecap="round" stroke-linejoin="round" stroke-miterlimit="10" stroke-width="1.2"/>
        </g>
      </g>
    </g>
  </g>
</svg>
