<svg xmlns="http://www.w3.org/2000/svg" width="190" height="158" viewBox="0 0 190 158">
  <g id="Grupo_1202561" data-name="Grupo 1202561" transform="translate(-1230 -290)">
    <g id="Grupo_1202503" data-name="Grupo 1202503">
      <g id="Grupo_1177674" data-name="Grupo 1177674" transform="translate(0.35 -3901)">
        <g id="Grupo_1177451" data-name="Grupo 1177451" transform="translate(1229.65 4191)">
          <rect id="Rect치ngulo_416021" data-name="Rect치ngulo 416021" width="190" height="122" rx="5" transform="translate(0 18)" fill="#510e84"/>
          <rect id="Rect치ngulo_416022" data-name="Rect치ngulo 416022" width="130" height="158" rx="5" transform="translate(30)" fill="#951bf1"/>
        </g>
      </g>
    </g>
    <g id="robot_4093487" transform="translate(1259.748 312.018)">
      <g id="Grupo_1202559" data-name="Grupo 1202559" transform="translate(9.312 8.68)">
        <path id="Trazado_1042205" data-name="Trazado 1042205" d="M160.537,206.416l8.361-24.734-3.033-27.8-55.256,37.7v18.705a68.3,68.3,0,0,1-7.584,31.281,2.741,2.741,0,0,0,2.437,4h50.052a1.612,1.612,0,0,0,1.339-2.51,41.386,41.386,0,0,1-7.019-23.059V217.07Z" transform="translate(-78.569 -120.32)" fill="#5392f9"/>
        <circle id="Elipse_12514" data-name="Elipse 12514" cx="5.104" cy="5.104" r="5.104" transform="translate(3.644 102.553) rotate(-76.7)" fill="#4981f8"/>
        <circle id="Elipse_12515" data-name="Elipse 12515" cx="5.104" cy="5.104" r="5.104" transform="translate(3.65 77.463) rotate(-76.7)" fill="#80b6fc"/>
        <path id="Trazado_1042206" data-name="Trazado 1042206" d="M252.581,378.472v-2.925l-4.949-3.216h-3.287v3.25a49.836,49.836,0,0,0,7.019,25.665,1.81,1.81,0,0,1-1.339,2.794h8.236a1.612,1.612,0,0,0,1.339-2.51A41.386,41.386,0,0,1,252.581,378.472Z" transform="translate(-181.317 -278.797)" fill="#4981f8"/>
        <path id="Trazado_1042207" data-name="Trazado 1042207" d="M143.059,52.867l-13.686-3.062a35.231,35.231,0,0,0-39.68,19.618l-1.158,2.509a35.232,35.232,0,0,0-2,24.051l.3,1.1A35.233,35.233,0,0,0,99,115.456l2,1.58a35.232,35.232,0,0,0,19.935,7.523l18.313.984,19.3-34.253Z" transform="translate(-65.928 -44.195)" fill="#bed9fd"/>
        <path id="Trazado_1042208" data-name="Trazado 1042208" d="M254.668,49.644a1.012,1.012,0,0,1,1.163-.509c4.14,1.133,23.086,7.525,22.682,29.543-.317,17.285,4.6,29.128,7.585,34.687a2.567,2.567,0,0,1-2.174,3.776l-6.329.228a1.8,1.8,0,0,0-1.737,1.865l.737,21.021a3.26,3.26,0,0,1-2.9,3.354l-15.932,1.756-18.989-7.654a3.26,3.26,0,0,1-2-3.57l3.985-23.458A3.26,3.26,0,0,1,243.557,108l9.195-1.194a3.26,3.26,0,0,0,2.768-2.552l1.55-7.262a3.26,3.26,0,0,0-1.227-3.284L240.661,82.265a3.26,3.26,0,0,1-.926-4.116Z" transform="translate(-175.794 -44.3)" fill="#fcf5f5"/>
        <path id="Trazado_1042209" data-name="Trazado 1042209" d="M286.1,118.944c-2.985-5.559-7.9-17.4-7.585-34.687.3-16.389-10.119-24.119-17.173-27.468,4.912,4.517,9.13,11.465,8.938,21.978-.317,17.285,4.6,29.128,7.585,34.687a2.567,2.567,0,0,1-2.174,3.776l-6.329.228a1.8,1.8,0,0,0-1.737,1.865l.737,21.021a3.26,3.26,0,0,1-2.9,3.354l-15.932,1.756L236.734,140.3a3.26,3.26,0,0,0,2.041,2.993l18.989,7.654,15.932-1.756a3.26,3.26,0,0,0,2.9-3.354l-.737-21.021a1.8,1.8,0,0,1,1.737-1.865l6.329-.228A2.567,2.567,0,0,0,286.1,118.944Z" transform="translate(-175.796 -49.879)" fill="#ebe1dc"/>
        <circle id="Elipse_12516" data-name="Elipse 12516" cx="5.104" cy="5.104" r="5.104" transform="translate(115.013 58.001) rotate(-76.7)" fill="#80b6fc"/>
        <path id="Trazado_1042210" data-name="Trazado 1042210" d="M63.05,54.843H57.391A18.4,18.4,0,0,0,54.057,44.7L58.968,41.4a24.3,24.3,0,0,0-12.391-9.463l-1.935,5.775a18.5,18.5,0,0,0-10.7-.235l-1.671-5.864a24.283,24.283,0,0,0-12.808,8.894l4.77,3.522a18.4,18.4,0,0,0-3.8,10.186l-5.668-.19q-.014.405-.013.814A23.981,23.981,0,0,0,19.3,68.949L23.67,65.8a18.552,18.552,0,0,0,8.816,6.86l-1.767,4.907a24.248,24.248,0,0,0,15.593.264l-1.6-4.963a18.535,18.535,0,0,0,9.054-6.551L58.016,69.6A23.922,23.922,0,0,0,63.05,54.843Z" transform="translate(-14.755 -31.617)" fill="#80b6fc"/>
        <path id="Trazado_1042211" data-name="Trazado 1042211" d="M138.193,55.7a18.4,18.4,0,0,0-3.334-10.144l4.911-3.294A24.3,24.3,0,0,0,127.379,32.8l-1.247,3.722a24.419,24.419,0,0,1,3.431,3.192A2.853,2.853,0,0,1,129,43.964l-.114.077a2.85,2.85,0,0,0-.958,3.665,18.364,18.364,0,0,1,1.819,5.585,2.854,2.854,0,0,0,2.823,2.408,2.858,2.858,0,0,1,2.84,3.22,23.817,23.817,0,0,1-3.485,9.62v1.5a18.5,18.5,0,0,0,2.649-2.87l4.249,3.285A23.921,23.921,0,0,0,143.852,55.7h-5.659Z" transform="translate(-95.556 -32.474)" fill="#62a4fb"/>
        <circle id="Elipse_12517" data-name="Elipse 12517" cx="6.737" cy="6.737" r="6.737" transform="translate(17.41 16.949)" fill="#fcf5f5"/>
        <path id="Trazado_1042212" data-name="Trazado 1042212" d="M91.834,93.358a6.707,6.707,0,0,0-4.118,1.407,6.734,6.734,0,0,1,0,10.661,6.737,6.737,0,1,0,4.118-12.068Z" transform="translate(-67.686 -76.409)" fill="#ebe1dc"/>
      </g>
      <g id="Grupo_1202560" data-name="Grupo 1202560" transform="translate(7.252)">
        <path id="Trazado_1042213" data-name="Trazado 1042213" d="M395.294,4.118h9.3A2.059,2.059,0,0,0,404.6,0h-9.3a2.059,2.059,0,1,0,0,4.118Z" transform="translate(-287.274)"/>
        <path id="Trazado_1042214" data-name="Trazado 1042214" d="M450.564,61.044h-9.3a2.059,2.059,0,1,0,0,4.118h9.3a2.059,2.059,0,1,0,0-4.118Z" transform="translate(-320.623 -44.286)"/>
        <path id="Trazado_1042215" data-name="Trazado 1042215" d="M395.294,34.464h21.921a2.059,2.059,0,1,0,0-4.118H395.294a2.059,2.059,0,1,0,0,4.118Z" transform="translate(-287.274 -22.015)"/>
        <path id="Trazado_1042216" data-name="Trazado 1042216" d="M132.508,73.477V70.031a3.874,3.874,0,0,0-3.87-3.869H114.176c-.088-1.787-.122-3.642-.086-5.57.141-7.684-1.937-14.352-6.177-19.816a2.059,2.059,0,1,0-3.253,2.524,26.529,26.529,0,0,1,5.313,17.217c-.036,1.95,0,3.83.082,5.646h-5.761a2.059,2.059,0,0,0,0,4.118h6.054A69.222,69.222,0,0,0,117.8,96.215a.481.481,0,0,1-.007.486.492.492,0,0,1-.427.257l-6.329.228a3.867,3.867,0,0,0-3.72,3.995l.737,21.021a1.206,1.206,0,0,1-1.069,1.236l-15.417,1.7-18.508-7.46a1.208,1.208,0,0,1-.735-1.315L76.311,92.9a1.194,1.194,0,0,1,1.029-.99l9.195-1.194a5.327,5.327,0,0,0,4.517-4.164l1.55-7.262a5.338,5.338,0,0,0-2-5.359L75.417,62.5a1.2,1.2,0,0,1-.341-1.516L89.612,33.233a33.589,33.589,0,0,1,9.065,4.435,2.059,2.059,0,0,0,2.358-3.376,37.582,37.582,0,0,0-11.144-5.268,3.088,3.088,0,0,0-3.53,1.539l-1.011,1.929L73.207,29.775a37.222,37.222,0,0,0-20.955,1.372,26.327,26.327,0,0,0-10.463-6.6,2.059,2.059,0,0,0-2.606,1.3l-1.318,3.934a20.6,20.6,0,0,0-7.916-.174L28.81,25.611a2.059,2.059,0,0,0-2.544-1.416,26.354,26.354,0,0,0-13.9,9.651,2.059,2.059,0,0,0,.433,2.879l3.166,2.338a20.384,20.384,0,0,0-2.814,7.592l-3.757-.126a2.059,2.059,0,0,0-2.127,1.988q-.015.44-.015.883a26.028,26.028,0,0,0,4.935,15.31,2.059,2.059,0,0,0,2.874.466l2.75-1.982a20.429,20.429,0,0,0,6.637,5.151l-1.11,3.081a2.059,2.059,0,0,0,1.239,2.635,26.032,26.032,0,0,0,2.554.769c.207,1.235,1.1,4.777,1.1,4.777a37.4,37.4,0,0,0,9.081,16c.609.634,1.244,1.248,1.9,1.84l.05,12.427H21.178v-3.2a7.163,7.163,0,1,0-4.118,0v3.446A3.874,3.874,0,0,0,20.93,114H39.284l.009,2.144a66.436,66.436,0,0,1-2.745,18.822H21.178v-3.2a7.163,7.163,0,1,0-4.118,0v3.446a3.874,3.874,0,0,0,3.869,3.869H35.185a65.846,65.846,0,0,1-3.249,7.4,4.8,4.8,0,0,0,4.267,7H46.4a2.059,2.059,0,0,0,0-4.118H36.2a.682.682,0,0,1-.606-.995,70.049,70.049,0,0,0,3.96-9.284h16.7a2.059,2.059,0,0,0,0-4.118H40.835a70.536,70.536,0,0,0,2.574-18.822V114h4.61a2.059,2.059,0,0,0,0-4.118H43.41v-9.02a37.089,37.089,0,0,0,20.8,7.736l5.21.28-1.155,6.8a5.35,5.35,0,0,0,3.255,5.824l7,2.82v1.535a43.286,43.286,0,0,0,6.911,23.51H54.633a2.059,2.059,0,1,0,0,4.118H86.256a3.671,3.671,0,0,0,3.048-5.716,39.191,39.191,0,0,1-6.667-21.786l7.873,3.174a2.059,2.059,0,0,0,1,.137l15.932-1.756a5.341,5.341,0,0,0,4.733-5.473l-.727-20.766,6.072-.219a4.625,4.625,0,0,0,3.914-6.807,64.854,64.854,0,0,1-6.945-23.987H128.39v3.2a7.162,7.162,0,1,0,4.118,0ZM16.074,99.821a3.045,3.045,0,1,1,3.045,3.045A3.048,3.048,0,0,1,16.074,99.821Zm0,25.084a3.045,3.045,0,1,1,3.045,3.045A3.049,3.049,0,0,1,16.074,124.906Zm3.847-65.717a2.059,2.059,0,0,0-2.9-.5L14.4,60.577a21.883,21.883,0,0,1-2.993-9.861l3.515.118A2.057,2.057,0,0,0,17.048,48.9a16.328,16.328,0,0,1,3.376-9.049,2.059,2.059,0,0,0-.408-2.912l-3.036-2.241a22.271,22.271,0,0,1,8.462-5.879l1.08,3.789a2.059,2.059,0,0,0,2.531,1.42,16.506,16.506,0,0,1,9.509.209,2.059,2.059,0,0,0,2.591-1.3L42.4,29.2a22.289,22.289,0,0,1,8.186,6.255l-3.121,2.093a2.059,2.059,0,0,0-.539,2.892,16.346,16.346,0,0,1,2.961,9.012,2.059,2.059,0,0,0,2.058,2.008h3.507a21.785,21.785,0,0,1-3.326,9.755l-2.546-1.968a2.059,2.059,0,0,0-2.912.4,16.377,16.377,0,0,1-8.047,5.823,2.059,2.059,0,0,0-1.313,2.586l.938,2.911a22.256,22.256,0,0,1-10.3-.173l1.037-2.879a2.059,2.059,0,0,0-1.223-2.629A16.389,16.389,0,0,1,19.921,59.188ZM40.287,92.76a31.473,31.473,0,0,1-8.078-14.238s-.623-2.36-.758-3c.666.051,1.335.08,2.008.08A26.186,26.186,0,0,0,41.5,74.349a2.059,2.059,0,0,0,1.328-2.591l-1-3.114a20.417,20.417,0,0,0,6.818-4.92l2.671,2.065a2.059,2.059,0,0,0,2.888-.37A25.964,25.964,0,0,0,59.666,49.4a2.059,2.059,0,0,0-2.059-2.059H53.859a20.413,20.413,0,0,0-2.442-7.486l3.254-2.183a2.059,2.059,0,0,0,.563-2.857c-.061-.091-.126-.179-.189-.269a33.1,33.1,0,0,1,17.261-.753l11.065,2.475-11.944,22.8a5.3,5.3,0,0,0,1.511,6.716L88.122,77.223a1.2,1.2,0,0,1,.452,1.21L87.024,85.7a1.2,1.2,0,0,1-1.02.94L76.81,87.829a5.291,5.291,0,0,0-4.559,4.384l-2.136,12.574S54.626,106.81,40.287,92.76Zm90.162-9.378a3.045,3.045,0,1,1,3.045-3.045A3.049,3.049,0,0,1,130.449,83.382Z" transform="translate(-7.252 -17.495)"/>
        <path id="Trazado_1042217" data-name="Trazado 1042217" d="M88.267,94.654a8.8,8.8,0,1,0-8.8,8.8A8.806,8.806,0,0,0,88.267,94.654Zm-13.474,0a4.678,4.678,0,1,1,4.678,4.678A4.684,4.684,0,0,1,74.793,94.654Z" transform="translate(-53.264 -62.288)"/>
      </g>
    </g>
  </g>
</svg>
