<svg xmlns="http://www.w3.org/2000/svg" width="190" height="136.343" viewBox="0 0 190 136.343">
  <g id="Grupo_1202572" data-name="Grupo 1202572" transform="translate(-1230 -284.657)">
    <g id="Grupo_1202545" data-name="Grupo 1202545">
      <g id="Grupo_1177674" data-name="Grupo 1177674" transform="translate(1230 290)">
        <g id="Grupo_1177451" data-name="Grupo 1177451">
          <rect id="Rect치ngulo_416021" data-name="Rect치ngulo 416021" width="190" height="95" rx="5" transform="translate(0 18)" fill="#0e8585"/>
          <rect id="Rect치ngulo_416022" data-name="Rect치ngulo 416022" width="130" height="131" rx="5" transform="translate(30)" fill="#1bf5f5"/>
        </g>
      </g>
    </g>
    <g id="cognitive-training_12056766" transform="translate(1229.411 280.662)">
      <g id="Grupo_1202571" data-name="Grupo 1202571" transform="translate(25.917 5.759)">
        <path id="Trazado_1042271" data-name="Trazado 1042271" d="M166.367,173.784c1.748.6,2.915,2.351,3.181,5.683.034.5,0,8.524-.071,9.831h33.384c-.876-28.114,27.011-48.745,22.14-73.548a38.3,38.3,0,0,0-14.373-23.135c-16.646-12.711-50.741-10.6-63.883,5.844-2.681,4,.457,4.879.829,8.254.28,2.547-2.943,11.761-3.65,15.832-.94,5.437,3.048,5.406,2.946,9.367-.051,2-1.374,5.308-5.366,11.417-1.136,1.76-2.04,2.826-1.794,4.7.426,3.252,5.2,1.679,6.745,4.832a4.042,4.042,0,0,1,.053,2.8c-.823,1.848-.672,2.748-.352,3.362a4.422,4.422,0,0,0,2.428,1.7,6.326,6.326,0,0,0-2.226,2.388,4.285,4.285,0,0,0,.451,3.037,5.872,5.872,0,0,1,.042,2.732c-.253,2.015-.513,4.53,1.263,5.988,1.456,1.195,3.932,1.181,7.221.9q5.865-.777,11.032-1.988Z" transform="translate(-112.333 -65.908)" fill="#fdb0a0" fill-rule="evenodd"/>
        <path id="Trazado_1042272" data-name="Trazado 1042272" d="M187.55,190.339h20.257c-.876-28.114,27.011-48.745,22.14-73.548a38.3,38.3,0,0,0-14.373-23.135c-5.7-4.357-13.459-6.971-21.717-7.866-11.691,1.245-22.8,5.831-29.091,13.709-2.681,4,.457,4.879.829,8.254.28,2.547-2.943,11.761-3.65,15.832-.94,5.437,3.048,5.406,2.946,9.367-.051,2-1.374,5.308-5.366,11.417-1.136,1.76-2.04,2.826-1.794,4.7.426,3.252,5.2,1.679,6.745,4.832a4.041,4.041,0,0,1,.053,2.8c-.823,1.848-.672,2.748-.352,3.362a4.421,4.421,0,0,0,2.428,1.7,6.328,6.328,0,0,0-2.226,2.388,4.285,4.285,0,0,0,.451,3.037,5.872,5.872,0,0,1,.042,2.732c-.253,2.015-.513,4.53,1.263,5.988a4.715,4.715,0,0,0,2.312.928l.37-.031q5.865-.777,11.032-1.988c-.007,0,2.8-.7,4.162-1.1a63.842,63.842,0,0,0,12.344-4.942,1.933,1.933,0,0,1,1.831,3.4c-9.585,5.152-10.521,5.174-10.634,18.155Z" transform="translate(-125.814 -66.948)" fill="#ffcec0" fill-rule="evenodd"/>
        <path id="Trazado_1042273" data-name="Trazado 1042273" d="M68.237,11H35.692a4.544,4.544,0,0,0-4.535,4.535V56.745a3.744,3.744,0,0,0,3.733,3.733H68.237Z" transform="translate(-31.157 -10.996)" fill="#4eb1fc" fill-rule="evenodd"/>
        <path id="Trazado_1042274" data-name="Trazado 1042274" d="M34.889,11.278a4.547,4.547,0,0,0-3.733,4.464V56.956a3.744,3.744,0,0,0,3.733,3.733Z" transform="translate(-31.156 -11.207)" fill="#2a92fa" fill-rule="evenodd"/>
        <path id="Trazado_1042275" data-name="Trazado 1042275" d="M34.889,177.782H68.236v7.467H34.889a3.733,3.733,0,1,1,0-7.467Z" transform="translate(-31.156 -135.766)" fill="#b6dbff" fill-rule="evenodd"/>
        <path id="Trazado_1042276" data-name="Trazado 1042276" d="M45.976,177.782H79.323v5.168h-31.7a1.652,1.652,0,0,1-1.647-1.647Z" transform="translate(-42.243 -135.766)" fill="#e3f1ff" fill-rule="evenodd"/>
      </g>
      <path id="Trazado_1042277" data-name="Trazado 1042277" d="M70.246,33.832H87.632v6.212H70.246Z" transform="translate(-34.481 -22.321)" fill="#cfe8ff"/>
      <path id="Trazado_1042278" data-name="Trazado 1042278" d="M139.261,33.832h2.021v6.212h-2.021Z" transform="translate(-86.111 -22.321)" fill="#2a92fa"/>
      <path id="Trazado_1042279" data-name="Trazado 1042279" d="M276.567,66.084l-6.839-1.349-3-7.24L270.61,51.7,262.6,43.694l-5.793,3.885-7.24-3-1.349-6.839H236.9l-1.348,6.839-7.24,3-5.793-3.885L214.507,51.7l3.885,5.793-3,7.24-6.839,1.349V77.408l6.839,1.349,3,7.24-3.885,5.793,8.008,8.008,5.793-3.885,7.24,3,1.348,6.838h11.325l1.349-6.838,7.24-3L262.6,99.8l8.008-8.008L266.725,86l3-7.24,6.839-1.349Z" transform="translate(-137.945 -25.242)" fill="#5d689e" fill-rule="evenodd"/>
      <path id="Trazado_1042280" data-name="Trazado 1042280" d="M273.262,77.408l-6.839,1.349-3,7.24L267.3,91.79l-6.681,6.681-5.078-3.405-9.282,3.851-1.348,6.838H236.9l-1.349-6.838-9.282-3.851-5.078,3.405-6.681-6.681L218.392,86l-3-7.24-6.839-1.349V66.084l6.839-1.349,3-7.24L214.507,51.7l6.681-6.681,5.078,3.4,9.282-3.85,1.348-6.839h8.019l1.349,6.839,9.282,3.851,5.078-3.405L267.3,51.7l-3.885,5.793,3,7.24,6.839,1.349Z" transform="translate(-137.945 -25.242)" fill="#909cd1" fill-rule="evenodd"/>
      <path id="Trazado_1042281" data-name="Trazado 1042281" d="M281.459,99.146v30.092a5.76,5.76,0,0,1-9.285-1.926c-4.671-.868-7.179-4.262-6.809-8.1a5.305,5.305,0,0,1-3.389-7.495c-2.749-4.032-1.466-10.524,3.355-12.376-.084-3.6,2.4-6.713,6.843-7.538a5.759,5.759,0,0,1,9.285-1.926Z" transform="translate(-176.845 -63.053)" fill="#ff6b84" fill-rule="evenodd"/>
      <path id="Trazado_1042282" data-name="Trazado 1042282" d="M343.55,99.146v30.092a5.76,5.76,0,0,0,9.285-1.926c4.671-.868,7.179-4.262,6.809-8.1a5.305,5.305,0,0,0,3.389-7.495c2.749-4.032,1.466-10.524-3.356-12.376.084-3.6-2.4-6.713-6.843-7.538a5.76,5.76,0,0,0-9.285-1.926Z" transform="translate(-238.936 -63.053)" fill="#ff6b84" fill-rule="evenodd"/>
      <path id="Trazado_1042283" data-name="Trazado 1042283" d="M85.784,41.7a6.167,6.167,0,0,1,1.443-2.508A11.424,11.424,0,0,0,88,41.026a1.769,1.769,0,0,0,1.562.94,1.742,1.742,0,0,0,.821-.205,1.763,1.763,0,0,0,.736-2.382,6.122,6.122,0,0,1-.391-5.5,5.562,5.562,0,0,1,2.4-2.514c0,.1,0,.191.012.285a7.563,7.563,0,0,0,5.477,6.583,1.8,1.8,0,0,0,.474.065,1.764,1.764,0,0,0,.474-3.463,4,4,0,1,1,3.285-7.173V56.915a3.381,3.381,0,0,1-2.562,3.424,1.764,1.764,0,0,0,.294,3.5,1.82,1.82,0,0,0,.3-.025,6.145,6.145,0,0,0,1.968-.691v2.218a3.995,3.995,0,1,1-3.285-7.173,1.763,1.763,0,0,0-.948-3.4,7.565,7.565,0,0,0-5.477,6.583c-.007.095-.007.189-.012.285a5.569,5.569,0,0,1-2.4-2.518,6.118,6.118,0,0,1,.394-5.492A1.764,1.764,0,0,0,88,51.983a11.548,11.548,0,0,0-.662,1.514,3.544,3.544,0,0,1,1-5.654A1.763,1.763,0,1,0,86.8,44.667a7,7,0,0,0-1.177.723,7.418,7.418,0,0,1,.159-3.691Zm24.539-14.312a4,4,0,0,1-.661,7.452,1.763,1.763,0,1,0,.945,3.4,7.557,7.557,0,0,0,5.477-6.583c.007-.095.01-.189.015-.285a5.594,5.594,0,0,1,2.4,2.515,6.119,6.119,0,0,1-.392,5.5,1.764,1.764,0,1,0,3.119,1.647A11.325,11.325,0,0,0,122,39.19a6.2,6.2,0,0,1,1.449,2.534,7.394,7.394,0,0,1,.151,3.664,6.985,6.985,0,0,0-1.176-.723,1.763,1.763,0,1,0-1.534,3.176,3.461,3.461,0,0,1,1.012.734,3.527,3.527,0,0,1-.012,4.914,11.365,11.365,0,0,0-.662-1.508,1.764,1.764,0,1,0-3.119,1.649,6.116,6.116,0,0,1,.38,5.523A5.594,5.594,0,0,1,116.1,61.64c0-.1-.007-.191-.015-.285a7.558,7.558,0,0,0-5.477-6.583,1.763,1.763,0,0,0-.947,3.4,4,4,0,1,1-3.284,7.175V36.093a3.381,3.381,0,0,1,2.561-3.424,1.764,1.764,0,0,0-.592-3.477,6.165,6.165,0,0,0-1.969.691V27.662a4.02,4.02,0,0,1,3.947-.277Zm-27.16,21.43a7.072,7.072,0,0,0,3.575,8.548A8.691,8.691,0,0,0,87.52,60.6a9.639,9.639,0,0,0,6.62,5.2,7.517,7.517,0,0,0,10.472,2.6,7.589,7.589,0,0,0,3.994,1.136,7.461,7.461,0,0,0,6.477-3.736,9.646,9.646,0,0,0,6.6-5.149,8.746,8.746,0,0,0,.807-3.293,7.112,7.112,0,0,0,3.541-4.021,7.022,7.022,0,0,0,.033-4.522,10.779,10.779,0,0,0,.765-8.108,9.258,9.258,0,0,0-4.38-5.568,8.636,8.636,0,0,0-.744-2.735,9.641,9.641,0,0,0-6.618-5.195,7.495,7.495,0,0,0-10.473-2.6,7.492,7.492,0,0,0-10.472,2.6A9.633,9.633,0,0,0,87.524,32.4a8.6,8.6,0,0,0-.746,2.74,9.243,9.243,0,0,0-4.365,5.527,10.766,10.766,0,0,0,.75,8.148ZM96.673,46.5a2.719,2.719,0,0,1-1,2.118A1.763,1.763,0,0,0,97.9,51.353a6.259,6.259,0,0,0,0-9.7,1.763,1.763,0,0,0-2.232,2.731,2.719,2.719,0,0,1,1,2.118Zm12.35,0a6.239,6.239,0,0,0,2.3,4.849,1.764,1.764,0,0,0,2.232-2.731,2.734,2.734,0,0,1,0-4.235,1.764,1.764,0,0,0-2.232-2.731,6.239,6.239,0,0,0-2.3,4.849Zm-71.5-33.228H51.384v2.685H37.527Zm-1.763,6.212H53.148a1.763,1.763,0,0,0,1.763-1.764V11.512a1.763,1.763,0,0,0-1.763-1.764H35.764A1.763,1.763,0,0,0,34,11.512v6.212a1.763,1.763,0,0,0,1.764,1.764Zm78.861,107.948c.139-13.256,6.265-24.746,12.2-35.876,6.409-12.034,12.471-23.4,10.066-35.637-.1-.525-.219-1.05-.34-1.571l-3.548.7-2.271,5.482,3.352,5a1.774,1.774,0,0,1-.219,2.229l-8,7.993a1.76,1.76,0,0,1-2.227.219l-5-3.352-5.484,2.274L112,80.793a1.767,1.767,0,0,1-1.731,1.424H98.959a1.762,1.762,0,0,1-1.728-1.424l-1.164-5.9-5.482-2.274-5,3.352a1.763,1.763,0,0,1-2.229-.219L75.365,67.76a1.765,1.765,0,0,1-.22-2.229l3.353-5L76.224,55.05l-5.9-1.163A1.767,1.767,0,0,1,68.9,52.156v-11.3a1.764,1.764,0,0,1,1.424-1.73l5.9-1.164L78.5,32.476l-2.1-3.122a36.619,36.619,0,0,0-11.644,6.784v19.1A1.763,1.763,0,0,1,63,57.005H60.63c-.6,2.156-1.185,4.3-1.424,5.68a4.509,4.509,0,0,0,1.138,4.285,7.009,7.009,0,0,1,1.837,4.835c-.068,2.652-1.81,6.459-5.658,12.346-.131.2-.267.408-.395.6-.936,1.417-1.253,1.952-1.126,2.9.05.4.153.558,1.836,1.03,1.544.436,3.656,1.03,4.749,3.261a5.707,5.707,0,0,1,.193,3.95,1.613,1.613,0,0,1-.113.347c-.188.423-.6,1.446-.4,1.833a3.9,3.9,0,0,0,1.565.9,1.764,1.764,0,0,1,.353,3.035c-.033.025-.084.061-.149.106a4.649,4.649,0,0,0-1.46,1.478,2.75,2.75,0,0,0,.306,1.545,1.4,1.4,0,0,1,.072.133,6.855,6.855,0,0,1,.2,3.707c-.235,1.859-.36,3.591.635,4.41,1.03.844,3.588.706,5.914.507,11.219-1.488,20.585-4.222,27.836-8.122a1.764,1.764,0,1,1,1.671,3.107,69.449,69.449,0,0,1-14.618,5.665,10.865,10.865,0,0,1,1.287,4.663c.035.493.021,5.371-.022,8.218h29.773ZM27.68,51.509a1.972,1.972,0,0,1,1.969-1.97H61.233v3.94H29.649a1.971,1.971,0,0,1-1.969-1.969ZM30.451,7.522a2.773,2.773,0,0,0-2.771,2.771V46.378a5.468,5.468,0,0,1,1.969-.366H61.233V7.522ZM81.952,31.3a1.765,1.765,0,0,1,.167,1.657l-3,7.228a1.764,1.764,0,0,1-1.289,1.055l-5.4,1.066v8.4l5.4,1.066a1.765,1.765,0,0,1,1.289,1.055l3,7.227a1.768,1.768,0,0,1-.167,1.658l-3.069,4.578,5.943,5.942L89.4,69.164A1.765,1.765,0,0,1,91.061,69l7.228,3a1.767,1.767,0,0,1,1.055,1.288l1.066,5.405h8.4l1.066-5.405A1.774,1.774,0,0,1,110.936,72l7.228-3a1.762,1.762,0,0,1,1.657.165l4.578,3.069,5.945-5.942-3.071-4.578a1.764,1.764,0,0,1-.164-1.658l3-7.227a1.756,1.756,0,0,1,1.289-1.055l5.406-1.066V42.3L131.4,41.236a1.757,1.757,0,0,1-1.289-1.055l-3-7.228a1.761,1.761,0,0,1,.164-1.657l3.071-4.579L124.4,20.775l-4.578,3.071a1.765,1.765,0,0,1-1.657.164l-7.228-3a1.767,1.767,0,0,1-1.056-1.288l-1.066-5.4h-8.4l-1.066,5.4a1.761,1.761,0,0,1-1.055,1.288l-7.228,3a1.768,1.768,0,0,1-1.658-.164l-4.577-3.071-5.943,5.943Zm58.4,23.946c-.121-.655-.279-1.308-.437-1.958a1.773,1.773,0,0,0,.413-1.129v-11.3a1.762,1.762,0,0,0-1.422-1.73L133,37.959l-2.271-5.483,3.352-5a1.774,1.774,0,0,0-.219-2.229l-8-7.993a1.761,1.761,0,0,0-2.227-.217l-5,3.351-5.484-2.273L112,12.216a1.765,1.765,0,0,0-1.731-1.423H98.959a1.76,1.76,0,0,0-1.728,1.423l-1.164,5.9L90.585,20.39l-5-3.351a1.764,1.764,0,0,0-2.229.217L75.364,25.25a1.743,1.743,0,0,0-.479.908A42.006,42.006,0,0,0,64.758,31.6V5.759A1.763,1.763,0,0,0,63,4H30.451a6.3,6.3,0,0,0-6.3,6.3V51.509a5.5,5.5,0,0,0,5.5,5.5H56.97c-.536,1.952-1,3.739-1.237,5.077a7.914,7.914,0,0,0,1.816,7.036,3.649,3.649,0,0,1,1.106,2.6C58.607,73.6,56.9,77.13,53.566,82.229c-.131.2-.26.4-.38.582-1.021,1.544-1.983,3-1.683,5.308.373,2.838,2.783,3.518,4.381,3.967,1.324.373,2.155.643,2.536,1.417.065.136.174.357-.052,1.491-.826,1.933-.9,3.433-.227,4.719a4.069,4.069,0,0,0,.99,1.23,6.7,6.7,0,0,0-.816,1.3,1.718,1.718,0,0,0-.078.193,5.964,5.964,0,0,0,.514,4.341,7.137,7.137,0,0,1-.1,1.776c-.256,2.04-.685,5.459,1.9,7.578a8.22,8.22,0,0,0,5.349,1.458c1.011,0,2.072-.075,3.15-.169l.08-.007q5.6-.744,10.616-1.889c.9.551,1.448,1.88,1.617,3.957.027.7,0,8.364-.071,9.626a1.764,1.764,0,0,0,1.76,1.863h33.358a1.766,1.766,0,0,0,1.764-1.819c-.408-13.09,5.778-24.7,11.764-35.925,6.721-12.6,13.063-24.508,10.414-37.975Z" fill-rule="evenodd"/>
    </g>
  </g>
</svg>
