<svg xmlns="http://www.w3.org/2000/svg" xmlns:xlink="http://www.w3.org/1999/xlink" width="108" height="108" viewBox="0 0 108 108">
  <defs>
    <filter id="Trazado_904820" x="0" y="0" width="108" height="108" filterUnits="userSpaceOnUse">
      <feOffset dy="3" input="SourceAlpha"/>
      <feGaussianBlur stdDeviation="3" result="blur"/>
      <feFlood flood-opacity="0.161"/>
      <feComposite operator="in" in2="blur"/>
      <feComposite in="SourceGraphic"/>
    </filter>
  </defs>
  <g id="Grupo_1177314" data-name="Grupo 1177314" transform="translate(9 6)">
    <g id="Grupo_1173585" data-name="Grupo 1173585" transform="translate(0 0)">
      <g id="Grupo_1173428" data-name="Grupo 1173428">
        <g id="Grupo_1171958" data-name="Grupo 1171958">
          <g id="Grupo_1167341" data-name="Grupo 1167341">
            <g id="Grupo_1166792" data-name="Grupo 1166792">
              <g transform="matrix(1, 0, 0, 1, -9, -6)" filter="url(#Trazado_904820)">
                <g id="Trazado_904820-2" data-name="Trazado 904820" transform="translate(9 6)" fill="#e6fdfd">
                  <path d="M 44.99999618530273 88.49999237060547 C 39.12687301635742 88.49999237060547 33.43022155761719 87.35006713867188 28.06829643249512 85.08216857910156 C 22.88852119445801 82.89130401611328 18.23629570007324 79.75457763671875 14.24084663391113 75.75914001464844 C 10.24540901184082 71.76369476318359 7.108683586120605 67.11146545410156 4.917821407318115 61.93169403076172 C 2.649921178817749 56.56976699829102 1.499996185302734 50.87311553955078 1.499996185302734 44.99999237060547 C 1.499996185302734 39.12686920166016 2.649921178817749 33.43021774291992 4.917821407318115 28.06829261779785 C 7.108683586120605 22.88851737976074 10.24540901184082 18.23630523681641 14.24084663391113 14.24085521697998 C 18.23629570007324 10.24540519714355 22.88852119445801 7.108692169189453 28.06829643249512 4.917829990386963 C 33.43022155761719 2.649929761886597 39.12687301635742 1.500004887580872 44.99999618530273 1.500004887580872 C 50.87311935424805 1.500004887580872 56.56977081298828 2.649929761886597 61.93169784545898 4.917829990386963 C 67.11147308349609 7.108692169189453 71.76369476318359 10.24540519714355 75.75914764404297 14.24085521697998 C 79.75458526611328 18.23630523681641 82.89131164550781 22.88851737976074 85.08216857910156 28.06829261779785 C 87.35007476806641 33.43021774291992 88.5 39.12686920166016 88.5 44.99999237060547 C 88.5 50.87311553955078 87.35007476806641 56.56976699829102 85.08216857910156 61.93169403076172 C 82.89131164550781 67.11146545410156 79.75458526611328 71.76369476318359 75.75914764404297 75.75914001464844 C 71.76369476318359 79.75457763671875 67.11147308349609 82.89130401611328 61.93169784545898 85.08216857910156 C 56.56977081298828 87.35006713867188 50.87311935424805 88.49999237060547 44.99999618530273 88.49999237060547 Z" stroke="none"/>
                  <path d="M 44.99999618530273 2.999992370605469 C 39.32870864868164 2.999992370605469 33.82865142822266 4.11004638671875 28.65262603759766 6.299331665039062 C 23.65165710449219 8.414566040039062 19.15968322753906 11.44333648681641 15.301513671875 15.30150604248047 C 11.44333648681641 19.15967559814453 8.414566040039062 23.65164947509766 6.299339294433594 28.65262222290039 C 4.110054016113281 33.82864761352539 2.999992370605469 39.32870483398438 2.999992370605469 44.99999237060547 C 2.999992370605469 50.67127990722656 4.110054016113281 56.17132186889648 6.299339294433594 61.34736633300781 C 8.414566040039062 66.34833526611328 11.44333648681641 70.84029388427734 15.301513671875 74.69846343994141 C 19.15968322753906 78.55663299560547 23.65165710449219 81.58540344238281 28.65262603759766 83.70063781738281 C 33.82865142822266 85.88992309570312 39.32870864868164 86.99997711181641 44.99999618530273 86.99997711181641 C 50.67128372192383 86.99997711181641 56.17134094238281 85.88992309570312 61.34736633300781 83.70063781738281 C 66.34834289550781 81.58540344238281 70.84030914306641 78.55663299560547 74.69847869873047 74.69846343994141 C 78.55665588378906 70.84029388427734 81.58542633056641 66.34833526611328 83.70065307617188 61.34736633300781 C 85.88993835449219 56.17132186889648 87 50.67127990722656 87 44.99999237060547 C 87 39.32870483398438 85.88993835449219 33.82864761352539 83.70065307617188 28.65262222290039 C 81.58542633056641 23.65164947509766 78.55665588378906 19.15967559814453 74.69847869873047 15.30150604248047 C 70.84030914306641 11.44333648681641 66.34834289550781 8.414566040039062 61.34736633300781 6.299331665039062 C 56.17134094238281 4.11004638671875 50.67128372192383 2.999992370605469 44.99999618530273 2.999992370605469 M 44.99999618530273 -7.62939453125e-06 C 69.85281372070312 -7.62939453125e-06 90 20.14717864990234 90 44.99999237060547 C 90 69.85279083251953 69.85281372070312 89.99997711181641 44.99999618530273 89.99997711181641 C 20.14717864990234 89.99997711181641 -7.62939453125e-06 69.85279083251953 -7.62939453125e-06 44.99999237060547 C -7.62939453125e-06 20.14717864990234 20.14717864990234 -7.62939453125e-06 44.99999618530273 -7.62939453125e-06 Z" stroke="none" fill="#0e8585"/>
                </g>
              </g>
            </g>
          </g>
        </g>
      </g>
    </g>
    <g id="machine-learning_11782333" transform="translate(-4.583 -9.49)">
      <path id="Trazado_1042202" data-name="Trazado 1042202" d="M50.769,32.815a7.4,7.4,0,0,1,2.914.6,1.844,1.844,0,0,1,1.14,1.727V85.971a1.844,1.844,0,0,1-1.14,1.727,7.4,7.4,0,0,1-2.914.6A6.829,6.829,0,0,1,43.7,83.062c-7.568-.425-10.988-5.717-10.782-11.182l.072-1.909-.618-.45q-.375-.225-.728-.48a10.462,10.462,0,0,1,0-16.974q.353-.255.728-.48l.618-.45-.072-1.909c-.206-5.464,3.214-10.756,10.782-11.182a6.829,6.829,0,0,1,7.067-5.231Z" transform="translate(-6.162 -6.064)" fill="#88c8fe" fill-rule="evenodd"/>
      <g id="Grupo_1202558" data-name="Grupo 1202558" transform="translate(61.74 29.21)">
        <circle id="Elipse_12509" data-name="Elipse 12509" cx="2.774" cy="2.774" r="2.774" transform="translate(10.757 22.506)" fill="#ffbf31"/>
        <circle id="Elipse_12510" data-name="Elipse 12510" cx="2.774" cy="2.774" r="2.774" transform="translate(0 0)" fill="#ffbf31"/>
        <circle id="Elipse_12511" data-name="Elipse 12511" cx="2.774" cy="2.774" r="2.774" transform="translate(0 45.012)" fill="#ffbf31"/>
      </g>
      <circle id="Elipse_12512" data-name="Elipse 12512" cx="2.774" cy="2.774" r="2.774" transform="translate(69.369 37.672)" fill="#fa6e85"/>
      <circle id="Elipse_12513" data-name="Elipse 12513" cx="2.774" cy="2.774" r="2.774" transform="translate(69.369 65.76)" fill="#fa6e85"/>
      <path id="Trazado_1042203" data-name="Trazado 1042203" d="M160.374,150.314a10.349,10.349,0,0,1,2.943,1.7l3.367-.716a.288.288,0,0,1,.313.139l2.3,3.981a.288.288,0,0,1-.036.341l-2.3,2.556a10.434,10.434,0,0,1,0,3.4l2.3,2.557a.288.288,0,0,1,.036.341L167,168.6a.288.288,0,0,1-.313.139l-3.366-.715a10.349,10.349,0,0,1-2.944,1.7l-1.062,3.27a.288.288,0,0,1-.278.2h-4.6a.288.288,0,0,1-.278-.2l-1.063-3.27a10.349,10.349,0,0,1-2.943-1.7l-3.367.716a.288.288,0,0,1-.313-.139l-2.3-3.981a.288.288,0,0,1,.036-.341l2.3-2.556a10.447,10.447,0,0,1,0-3.4l-2.3-2.556a.288.288,0,0,1-.036-.341l2.3-3.981a.288.288,0,0,1,.313-.139l3.367.716a10.349,10.349,0,0,1,2.943-1.7l1.063-3.27a.288.288,0,0,1,.278-.2h4.6a.288.288,0,0,1,.278.2Z" transform="translate(-108.074 -105.528)" fill="#ffbf31" fill-rule="evenodd"/>
      <path id="Trazado_1042204" data-name="Trazado 1042204" d="M42.8,54.478a5.784,5.784,0,0,0,.671,2.724.89.89,0,0,1-1.575.829,7.642,7.642,0,0,1,7.765-11.126.891.891,0,0,1,1.567-.478l1.329,1.612a.891.891,0,0,1-.577,1.331l-1.91.409a.888.888,0,0,1-1.028-1.151A5.864,5.864,0,0,0,42.8,54.478Zm12.624-3.553a.89.89,0,0,0-1.574.829,5.868,5.868,0,0,1-5.551,8.573A.888.888,0,0,0,47.27,59.21l-2.027.4A.888.888,0,0,0,44.75,60.9c.127.213,1.077,1.364,1.3,1.637a.889.889,0,0,0,1.58-.492,7.64,7.64,0,0,0,7.793-11.121Zm4.809,8.094-2.011-2.234a.892.892,0,0,1-.217-.74,9.475,9.475,0,0,0,0-3.111.891.891,0,0,1,.217-.74l2.011-2.234-1.864-3.228-2.942.625a.885.885,0,0,1-.749-.183,9.444,9.444,0,0,0-2.69-1.555.894.894,0,0,1-.534-.558L50.52,42.2H46.791l-.928,2.857a.891.891,0,0,1-.533.558,9.426,9.426,0,0,0-2.69,1.555.887.887,0,0,1-.75.183l-2.942-.625-1.864,3.228,2.011,2.234a.889.889,0,0,1,.217.74,9.492,9.492,0,0,0,0,3.111.887.887,0,0,1-.217.74l-2.011,2.234,1.864,3.228,2.942-.625a.887.887,0,0,1,.75.183,9.454,9.454,0,0,0,2.69,1.557.884.884,0,0,1,.533.557l.928,2.857H50.52l.928-2.856a.887.887,0,0,1,.534-.558,9.454,9.454,0,0,0,2.69-1.556.886.886,0,0,1,.75-.184l2.941.625ZM47.766,79.907V68.555H46.358a1.175,1.175,0,0,1-1.123-.816L44.3,64.866a11.232,11.232,0,0,1-2.449-1.418l-2.958.63a1.181,1.181,0,0,1-1.269-.565l-2.3-3.98a1.177,1.177,0,0,1,.144-1.381l2.023-2.245a11.234,11.234,0,0,1,0-2.83l-2.023-2.247a1.176,1.176,0,0,1-.144-1.381l2.3-3.98a1.178,1.178,0,0,1,1.269-.564l2.958.628A11.181,11.181,0,0,1,44.3,44.115l.935-2.874a1.176,1.176,0,0,1,1.123-.816h1.409V29.073a.95.95,0,0,0-.6-.908,6.6,6.6,0,0,0-9.143,6.055V38.1a11.325,11.325,0,0,1,2.62-.934A.889.889,0,1,1,41.03,38.9a9.556,9.556,0,0,0-5.561,3.591.889.889,0,0,1-1.421-1.071,11.336,11.336,0,0,1,2.2-2.209V34.219a8.364,8.364,0,0,1,.1-1.276,9.566,9.566,0,0,0-7.41,14.46.889.889,0,1,1-1.523.918,11.3,11.3,0,0,1-.924-1.928,9.576,9.576,0,0,0,0,16.193,11.311,11.311,0,0,1,.924-1.928.889.889,0,0,1,1.523.918,9.566,9.566,0,0,0,7.407,14.46,7.45,7.45,0,0,1-.095-1.289l.079-4.918a11.4,11.4,0,0,1-2.275-2.269.889.889,0,0,1,1.421-1.071A9.569,9.569,0,0,0,41.03,70.08a.889.889,0,1,1-.387,1.736,11.276,11.276,0,0,1-2.558-.9l-.062,3.864a6.121,6.121,0,0,0,.292,1.916,6.6,6.6,0,0,0,8.852,4.124.95.95,0,0,0,.6-.908ZM74.022,68.533a1.884,1.884,0,1,1-1.885-1.884A1.887,1.887,0,0,1,74.022,68.533ZM66.392,77a1.885,1.885,0,1,1-1.885-1.885A1.886,1.886,0,0,1,66.392,77ZM64.508,30.1a1.885,1.885,0,1,1-1.885,1.884A1.886,1.886,0,0,1,64.508,30.1Zm7.629,8.462a1.884,1.884,0,1,1-1.884,1.885A1.887,1.887,0,0,1,72.137,38.561ZM75.265,52.6a1.885,1.885,0,1,1-1.884,1.885A1.888,1.888,0,0,1,75.265,52.6Zm-3.553,2.774a3.664,3.664,0,1,0,0-1.779H59.87c-.014-.175-.031-.351-.052-.525l2.022-2.247a1.176,1.176,0,0,0,.145-1.381l-.378-.652,5.356,0a.889.889,0,0,0,.732-.382l3.149-4.544a3.673,3.673,0,1,0-1.461-1.015L66.5,47.02l-5.919,0-.894-1.548a1.177,1.177,0,0,0-1.269-.564l-2.957.628c-.093-.07-.185-.139-.28-.206l7.836-10a3.662,3.662,0,1,0-1.4-1.1L53.644,44.4q-.313-.155-.633-.289l-.934-2.874a1.177,1.177,0,0,0-1.123-.816h-1.41V29.073a2.728,2.728,0,0,0-1.679-2.544,8.378,8.378,0,0,0-11.027,4.6A11.36,11.36,0,0,0,25.99,44.618a11.347,11.347,0,0,0,0,19.743A11.359,11.359,0,0,0,36.838,77.846a8.378,8.378,0,0,0,11.027,4.6,2.729,2.729,0,0,0,1.679-2.544V68.555h1.41a1.176,1.176,0,0,0,1.123-.816l.933-2.873q.321-.135.634-.289l7.973,10.172a3.662,3.662,0,1,0,1.4-1.1l-7.835-10c.094-.068.187-.136.28-.207l2.958.63a1.177,1.177,0,0,0,1.268-.565l.894-1.548,5.919,0,2.884,4.163a3.661,3.661,0,1,0,1.461-1.015L67.7,60.563a.889.889,0,0,0-.732-.382l-5.356,0,.378-.653a1.177,1.177,0,0,0-.145-1.381L59.817,55.9c.021-.174.038-.35.052-.525H71.712Z" fill="#0b0a0a" fill-rule="evenodd"/>
    </g>
  </g>
</svg>
