<svg xmlns="http://www.w3.org/2000/svg" width="400" height="94.033" viewBox="0 0 400 94.033">
  <g id="Grupo_1202573" data-name="Grupo 1202573" transform="translate(-1020 -252.705)">
    <g id="Grupo_1202554" data-name="Grupo 1202554" transform="translate(-210 -30)">
      <g id="Grupo_1177674" data-name="Grupo 1177674" transform="translate(1230 290)">
        <g id="Grupo_1177451" data-name="Grupo 1177451">
          <rect id="Rect치ngulo_416021" data-name="Rect치ngulo 416021" width="400" height="56" rx="3" transform="translate(0 12)" fill="#0e8585"/>
          <rect id="Rect치ngulo_416022" data-name="Rect치ngulo 416022" width="364" height="80" rx="3" transform="translate(18)" fill="#1bf5f5"/>
        </g>
      </g>
    </g>
    <g id="development_12558208" transform="translate(1172.105 243.221)">
      <g id="Grupo_1202576" data-name="Grupo 1202576" transform="translate(10.324 18.712)">
        <path id="Trazado_1042334" data-name="Trazado 1042334" d="M93.524,27.271v48.8a8.916,8.916,0,0,1-8.911,8.911H19.074a8.907,8.907,0,0,1-8.9-8.911v-48.8a8.9,8.9,0,0,1,8.9-8.9H84.613a8.907,8.907,0,0,1,8.911,8.9Z" transform="translate(-10.174 -18.37)" fill="#fff"/>
      </g>
      <g id="Grupo_1202577" data-name="Grupo 1202577" transform="translate(10.328 18.707)">
        <path id="Trazado_1042335" data-name="Trazado 1042335" d="M93.523,49.228V76.074a8.923,8.923,0,0,1-8.916,8.916H19.073a8.912,8.912,0,0,1-8.9-8.916v-48.8a8.9,8.9,0,0,1,8.9-8.906H24.5c-6.272,4.478-10.051,10.253-10.051,16.555,0,14.256,19.322,25.816,43.142,25.816,14.985,0,28.187-4.569,35.928-11.51Z" transform="translate(-10.177 -18.366)" fill="#ddd"/>
      </g>
      <g id="Grupo_1202578" data-name="Grupo 1202578" transform="translate(9.556 17.944)">
        <path id="Trazado_1042336" data-name="Trazado 1042336" d="M84.63,85.77H19.091a9.684,9.684,0,0,1-9.668-9.679v-48.8a9.679,9.679,0,0,1,9.668-9.668H84.63a9.684,9.684,0,0,1,9.679,9.668v48.8A9.69,9.69,0,0,1,84.63,85.77ZM19.091,19.155a8.142,8.142,0,0,0-8.133,8.133v48.8a8.147,8.147,0,0,0,8.133,8.144H84.63a8.153,8.153,0,0,0,8.144-8.144v-48.8a8.148,8.148,0,0,0-8.144-8.133Z" transform="translate(-9.424 -17.62)" fill="#0f0f0f"/>
      </g>
      <g id="Grupo_1202579" data-name="Grupo 1202579" transform="translate(44.162 84.023)">
        <path id="Trazado_1042337" data-name="Trazado 1042337" d="M43.239,82.19h15.67V92.847H43.239Z" transform="translate(-43.239 -82.19)" fill="#fff"/>
      </g>
      <g id="Grupo_1202580" data-name="Grupo 1202580" transform="translate(44.162 84.023)">
        <path id="Trazado_1042338" data-name="Trazado 1042338" d="M43.239,82.19h15.67v3.6H43.239Z" transform="translate(-43.239 -82.19)" fill="#ddd"/>
      </g>
      <g id="Grupo_1202581" data-name="Grupo 1202581" transform="translate(43.395 83.256)">
        <path id="Trazado_1042339" data-name="Trazado 1042339" d="M58.926,93.633H43.257a.768.768,0,0,1-.768-.768V82.208a.768.768,0,0,1,.768-.768h15.67a.768.768,0,0,1,.768.768V92.865A.768.768,0,0,1,58.926,93.633ZM44.024,92.1H58.159V82.975H44.024Z" transform="translate(-42.489 -81.44)" fill="#0f0f0f"/>
      </g>
      <g id="Grupo_1202582" data-name="Grupo 1202582" transform="translate(29.2 92.517)">
        <path id="Trazado_1042340" data-name="Trazado 1042340" d="M72.2,100.416H30.639a2.015,2.015,0,0,1-1.148-3.672c5.612-3.86,13.361-6.255,21.922-6.255s16.31,2.395,21.931,6.255a2.015,2.015,0,0,1-1.148,3.672Z" transform="translate(-28.619 -90.489)" fill="#5b5476"/>
      </g>
      <g id="Grupo_1202583" data-name="Grupo 1202583" transform="translate(29.2 95.397)">
        <path id="Trazado_1042341" data-name="Trazado 1042341" d="M72.2,100.35H30.639a2.015,2.015,0,0,1-1.148-3.672,31.891,31.891,0,0,1,6.4-3.375c3.613,2.484,11.164,4.186,19.893,4.186a50.886,50.886,0,0,0,15.459-2.128c.732.416,1.425.861,2.1,1.316A2.015,2.015,0,0,1,72.2,100.35Z" transform="translate(-28.619 -93.304)" fill="#3f3b5b"/>
      </g>
      <g id="Grupo_1202584" data-name="Grupo 1202584" transform="translate(28.429 91.749)">
        <path id="Trazado_1042342" data-name="Trazado 1042342" d="M72.215,101.2H30.652a2.782,2.782,0,0,1-1.579-5.072c5.991-4.121,13.932-6.391,22.359-6.391s16.369,2.27,22.36,6.391a2.782,2.782,0,0,1-1.579,5.072ZM51.433,91.274c-8.12,0-15.751,2.174-21.489,6.121a1.247,1.247,0,0,0,.708,2.272H72.215a1.247,1.247,0,0,0,.708-2.272c-5.738-3.947-13.369-6.121-21.489-6.121Z" transform="translate(-27.865 -89.739)" fill="#0f0f0f"/>
      </g>
      <g id="Grupo_1202585" data-name="Grupo 1202585" transform="translate(10.324 71.731)">
        <path id="Trazado_1042343" data-name="Trazado 1042343" d="M10.174,70.178v4.685a8.907,8.907,0,0,0,8.9,8.911H84.613a8.916,8.916,0,0,0,8.911-8.911V70.178Z" transform="translate(-10.174 -70.178)" fill="#5b5476"/>
      </g>
      <g id="Grupo_1202586" data-name="Grupo 1202586" transform="translate(10.328 71.732)">
        <path id="Trazado_1042344" data-name="Trazado 1042344" d="M93.519,70.179V74.86a8.916,8.916,0,0,1-8.907,8.917H19.075a8.908,8.908,0,0,1-8.9-8.917V70.179h4.285C16.413,75.127,33.327,79,53.892,79s37.48-3.869,39.429-8.818Z" transform="translate(-10.178 -70.179)" fill="#3f3b5b"/>
      </g>
      <g id="Grupo_1202587" data-name="Grupo 1202587" transform="translate(9.556 70.963)">
        <path id="Trazado_1042345" data-name="Trazado 1042345" d="M84.63,84.559H19.091A9.684,9.684,0,0,1,9.424,74.88V70.2a.768.768,0,0,1,.768-.768h83.35a.768.768,0,0,1,.768.768V74.88A9.69,9.69,0,0,1,84.63,84.559Zm-73.672-13.6V74.88a8.147,8.147,0,0,0,8.133,8.144H84.63a8.153,8.153,0,0,0,8.144-8.144V70.963Z" transform="translate(-9.424 -69.428)" fill="#0f0f0f"/>
      </g>
      <g id="Grupo_1202591" data-name="Grupo 1202591" transform="translate(42.619 75.742)">
        <g id="Grupo_1202588" data-name="Grupo 1202588" transform="translate(0.767 0.768)">
          <path id="Trazado_1042346" data-name="Trazado 1042346" d="M59.706,76.867a2,2,0,0,1-2.019,2.019H44.5a2.019,2.019,0,0,1,0-4.038H57.687a2.018,2.018,0,0,1,2.019,2.019Z" transform="translate(-42.481 -74.848)" fill="#fff"/>
        </g>
        <g id="Grupo_1202589" data-name="Grupo 1202589" transform="translate(0.802 0.769)">
          <path id="Trazado_1042347" data-name="Trazado 1042347" d="M59.7,76.869a1.994,1.994,0,0,1-2.009,2.019H44.5a2.02,2.02,0,0,1-1.989-1.673H55.771a2.045,2.045,0,0,0,1.435-.584A2.089,2.089,0,0,0,57.79,75.2a1.968,1.968,0,0,0-.029-.346,2.012,2.012,0,0,1,1.94,2.019Z" transform="translate(-42.515 -74.85)" fill="#ddd"/>
        </g>
        <g id="Grupo_1202590" data-name="Grupo 1202590">
          <path id="Trazado_1042348" data-name="Trazado 1042348" d="M57.7,79.671H44.518a2.786,2.786,0,0,1,0-5.573H57.7a2.795,2.795,0,0,1,1.984,4.755,2.823,2.823,0,0,1-1.984.818ZM44.518,75.633a1.266,1.266,0,0,0-1.251,1.251,1.253,1.253,0,0,0,1.251,1.251H57.7a1.284,1.284,0,0,0,.9-.369,1.27,1.27,0,0,0,.353-.883A1.253,1.253,0,0,0,57.7,75.633Z" transform="translate(-41.731 -74.098)" fill="#0f0f0f"/>
        </g>
      </g>
      <g id="Grupo_1202595" data-name="Grupo 1202595" transform="translate(-8.105 24.485)">
        <g id="Grupo_1202592" data-name="Grupo 1202592" transform="translate(0.768 0.767)">
          <path id="Trazado_1042349" data-name="Trazado 1042349" d="M14.73,9.8a6.346,6.346,0,0,0-4.919,4.925.13.13,0,0,1-.257,0,6.253,6.253,0,0,0-1.727-3.2A6.256,6.256,0,0,0,4.636,9.8a.13.13,0,0,1,0-.257A6.335,6.335,0,0,0,9.555,4.621a.13.13,0,0,1,.257,0A6.335,6.335,0,0,0,14.73,9.546a.13.13,0,0,1,0,.257Z" transform="translate(-4.526 -4.511)" fill="#ffd9b0"/>
        </g>
        <g id="Grupo_1202593" data-name="Grupo 1202593" transform="translate(4.195 3.933)">
          <path id="Trazado_1042350" data-name="Trazado 1042350" d="M14.655,9.728a6.342,6.342,0,0,0-4.922,4.931.132.132,0,0,1-.258,0,6.216,6.216,0,0,0-1.6-3.073A4.221,4.221,0,0,0,11.331,7.6a1.013,1.013,0,0,0,.125.142,6.271,6.271,0,0,0,3.2,1.724.132.132,0,0,1,0,.258Z" transform="translate(-7.875 -7.604)" fill="#edb57e"/>
        </g>
        <g id="Grupo_1202594" data-name="Grupo 1202594">
          <path id="Trazado_1042351" data-name="Trazado 1042351" d="M9.7,15.623a.894.894,0,0,1-.88-.722A5.48,5.48,0,0,0,7.3,12.093a5.473,5.473,0,0,0-2.8-1.52.9.9,0,0,1,0-1.761A5.567,5.567,0,0,0,8.82,4.486a.9.9,0,0,1,1.761,0A5.565,5.565,0,0,0,14.9,8.811a.9.9,0,0,1,0,1.761h0A5.556,5.556,0,0,0,10.581,14.9a.894.894,0,0,1-.88.723ZM6.591,9.692a7.075,7.075,0,0,1,1.8,1.315A7.015,7.015,0,0,1,9.7,12.8,7.09,7.09,0,0,1,12.81,9.693a7.144,7.144,0,0,1-1.8-1.314A7.076,7.076,0,0,1,9.7,6.582a7.087,7.087,0,0,1-1.307,1.8,7.139,7.139,0,0,1-1.8,1.313Zm8.157.129h.01Zm-.156-.752h0Z" transform="translate(-3.776 -3.761)" fill="#0f0f0f"/>
        </g>
      </g>
      <g id="Grupo_1202596" data-name="Grupo 1202596" transform="translate(96.027 10.252)">
        <path id="Trazado_1042352" data-name="Trazado 1042352" d="M100.66,13.471A3.37,3.37,0,1,1,97.293,10.1,3.37,3.37,0,0,1,100.66,13.471Z" transform="translate(-93.919 -10.104)" fill="#c3c9fb"/>
      </g>
      <g id="Grupo_1202597" data-name="Grupo 1202597" transform="translate(96.226 10.761)">
        <path id="Trazado_1042353" data-name="Trazado 1042353" d="M100.655,13.458A3.371,3.371,0,0,1,94.113,14.6a3.376,3.376,0,0,0,5.134-2.881,3.291,3.291,0,0,0-.191-1.122,3.357,3.357,0,0,1,1.6,2.857Z" transform="translate(-94.113 -10.601)" fill="#8693e2"/>
      </g>
      <g id="Grupo_1202598" data-name="Grupo 1202598" transform="translate(95.26 9.485)">
        <path id="Trazado_1042354" data-name="Trazado 1042354" d="M97.31,17.63a4.138,4.138,0,1,1,4.134-4.141A4.146,4.146,0,0,1,97.31,17.63Zm0-6.741a2.6,2.6,0,1,0,2.6,2.6,2.606,2.606,0,0,0-2.6-2.6Z" transform="translate(-93.169 -9.354)" fill="#0f0f0f"/>
      </g>
      <g id="Grupo_1202620" data-name="Grupo 1202620" transform="translate(29.755 22.673)">
        <g id="Grupo_1202599" data-name="Grupo 1202599" transform="translate(4.431 4.431)">
          <path id="Trazado_1042355" data-name="Trazado 1042355" d="M51.385,61.975a.756.756,0,0,1-.121-.01h0a.753.753,0,0,1-.167-.047h0l-.007,0-17.126-7.3a.767.767,0,0,1-.344-1.122l6.181-9.575L33.6,33.9A.768.768,0,0,1,34,32.777l17.127-6.162a.768.768,0,0,1,.806.183L68.889,43.941a.75.75,0,0,1,.058.065c.012.014.023.029.033.044s0,0,0,0h0a.762.762,0,0,1,.128.532h0l0,.021s0,0,0,0a.764.764,0,0,1-.223.428L51.927,61.75a.763.763,0,0,1-.3.184h-.005l-.033.01h0a.765.765,0,0,1-.205.028ZM35.4,53.557l14.062,6L40.687,45.361ZM52.152,42.921V59.374L66.71,45.026ZM41.609,43.933l9.008,14.574V42.035a.768.768,0,0,1,.877-.76l14.7,2.125L51.183,28.226,35.409,33.9l5.306,8.586,8.066-12.5a.768.768,0,0,1,1.29.832Z" transform="translate(-33.49 -26.57)" fill="#0f0f0f"/>
        </g>
        <g id="Grupo_1202600" data-name="Grupo 1202600" transform="translate(4.431 10.592)">
          <path id="Trazado_1042356" data-name="Trazado 1042356" d="M51.384,42.662a.763.763,0,0,1-.342-.081L33.916,34.046a.767.767,0,1,1,.685-1.374l17.127,8.535a.768.768,0,0,1-.343,1.455Z" transform="translate(-33.49 -32.591)" fill="#0f0f0f"/>
        </g>
        <g id="Grupo_1202601" data-name="Grupo 1202601" transform="translate(17.894 34.637)">
          <circle id="Elipse_12526" data-name="Elipse 12526" cx="4.431" cy="4.431" r="4.431" fill="#c3c9fb"/>
        </g>
        <g id="Grupo_1202602" data-name="Grupo 1202602" transform="translate(18.316 34.961)">
          <path id="Trazado_1042357" data-name="Trazado 1042357" d="M55.5,60.513a4.427,4.427,0,0,1-8.443,1.868,4.418,4.418,0,0,0,6.076-4.109,4.289,4.289,0,0,0-.421-1.869A4.414,4.414,0,0,1,55.5,60.513Z" transform="translate(-47.058 -56.403)" fill="#8693e2"/>
        </g>
        <g id="Grupo_1202603" data-name="Grupo 1202603" transform="translate(17.127 33.87)">
          <path id="Trazado_1042358" data-name="Trazado 1042358" d="M51.095,65.734a5.2,5.2,0,1,1,5.2-5.2A5.2,5.2,0,0,1,51.095,65.734Zm0-8.862a3.663,3.663,0,1,0,3.663,3.663A3.667,3.667,0,0,0,51.095,56.872Z" transform="translate(-45.896 -55.337)" fill="#0f0f0f"/>
        </g>
        <g id="Grupo_1202604" data-name="Grupo 1202604" transform="translate(17.894 0.767)">
          <circle id="Elipse_12527" data-name="Elipse 12527" cx="4.431" cy="4.431" r="4.431" fill="#ffd9b0"/>
        </g>
        <g id="Grupo_1202605" data-name="Grupo 1202605" transform="translate(18.316 1.089)">
          <path id="Trazado_1042359" data-name="Trazado 1042359" d="M55.5,27.415a4.428,4.428,0,0,1-8.443,1.869,4.419,4.419,0,0,0,6.076-4.109,4.289,4.289,0,0,0-.421-1.869A4.414,4.414,0,0,1,55.5,27.415Z" transform="translate(-47.058 -23.305)" fill="#edb57e"/>
        </g>
        <g id="Grupo_1202606" data-name="Grupo 1202606" transform="translate(17.127)">
          <path id="Trazado_1042360" data-name="Trazado 1042360" d="M51.095,32.637a5.2,5.2,0,1,1,5.2-5.2A5.2,5.2,0,0,1,51.095,32.637Zm0-8.861a3.663,3.663,0,1,0,3.663,3.663A3.667,3.667,0,0,0,51.095,23.776Z" transform="translate(-45.896 -22.241)" fill="#0f0f0f"/>
        </g>
        <g id="Grupo_1202607" data-name="Grupo 1202607" transform="translate(0.768 6.928)">
          <circle id="Elipse_12528" data-name="Elipse 12528" cx="4.431" cy="4.431" r="4.431" fill="#aff2b6"/>
        </g>
        <g id="Grupo_1202608" data-name="Grupo 1202608" transform="translate(1.185 7.253)">
          <path id="Trazado_1042361" data-name="Trazado 1042361" d="M38.762,33.438a4.427,4.427,0,0,1-8.443,1.869A4.418,4.418,0,0,0,36.394,31.2a4.289,4.289,0,0,0-.421-1.869,4.414,4.414,0,0,1,2.788,4.109Z" transform="translate(-30.318 -29.329)" fill="#7fd685"/>
        </g>
        <g id="Grupo_1202609" data-name="Grupo 1202609" transform="translate(0 6.162)">
          <path id="Trazado_1042362" data-name="Trazado 1042362" d="M34.359,38.658a5.2,5.2,0,1,1,5.2-5.2A5.2,5.2,0,0,1,34.359,38.658Zm0-8.861a3.663,3.663,0,1,0,3.663,3.663A3.667,3.667,0,0,0,34.359,29.8Z" transform="translate(-29.161 -28.262)" fill="#0f0f0f"/>
        </g>
        <g id="Grupo_1202610" data-name="Grupo 1202610" transform="translate(0.768 27.336)">
          <circle id="Elipse_12529" data-name="Elipse 12529" cx="4.431" cy="4.431" r="4.431" fill="#ff84a0"/>
        </g>
        <g id="Grupo_1202611" data-name="Grupo 1202611" transform="translate(1.185 27.662)">
          <path id="Trazado_1042363" data-name="Trazado 1042363" d="M38.762,53.381a4.43,4.43,0,0,1-8.443,1.868,4.418,4.418,0,0,0,6.076-4.109,4.289,4.289,0,0,0-.421-1.869,4.414,4.414,0,0,1,2.788,4.109Z" transform="translate(-30.318 -49.271)" fill="#f76189"/>
        </g>
        <g id="Grupo_1202612" data-name="Grupo 1202612" transform="translate(0 26.568)">
          <path id="Trazado_1042364" data-name="Trazado 1042364" d="M34.359,58.6a5.2,5.2,0,1,1,5.2-5.2A5.2,5.2,0,0,1,34.359,58.6Zm0-8.862A3.663,3.663,0,1,0,38.023,53.4,3.667,3.667,0,0,0,34.359,49.737Z" transform="translate(-29.161 -48.202)" fill="#0f0f0f"/>
        </g>
        <g id="Grupo_1202613" data-name="Grupo 1202613" transform="translate(17.894 15.464)">
          <circle id="Elipse_12530" data-name="Elipse 12530" cx="4.431" cy="4.431" r="4.431" fill="#abecef"/>
        </g>
        <g id="Grupo_1202614" data-name="Grupo 1202614" transform="translate(18.316 15.785)">
          <path id="Trazado_1042365" data-name="Trazado 1042365" d="M55.5,41.774a4.428,4.428,0,0,1-8.443,1.869,4.418,4.418,0,0,0,6.076-4.109,4.289,4.289,0,0,0-.421-1.869A4.414,4.414,0,0,1,55.5,41.774Z" transform="translate(-47.058 -37.665)" fill="#75c5c9"/>
        </g>
        <g id="Grupo_1202615" data-name="Grupo 1202615" transform="translate(17.127 14.697)">
          <path id="Trazado_1042366" data-name="Trazado 1042366" d="M51.095,47a5.2,5.2,0,1,1,5.2-5.2A5.2,5.2,0,0,1,51.095,47Zm0-8.862A3.663,3.663,0,1,0,54.758,41.8,3.667,3.667,0,0,0,51.095,38.137Z" transform="translate(-45.896 -36.602)" fill="#0f0f0f"/>
        </g>
        <g id="Grupo_1202619" data-name="Grupo 1202619" transform="translate(34.091 17.149)">
          <g id="Grupo_1202616" data-name="Grupo 1202616" transform="translate(0.767 0.767)">
            <circle id="Elipse_12531" data-name="Elipse 12531" cx="4.431" cy="4.431" r="4.431" fill="#ff84a0"/>
          </g>
          <g id="Grupo_1202617" data-name="Grupo 1202617" transform="translate(1.19 1.091)">
            <path id="Trazado_1042367" data-name="Trazado 1042367" d="M72.079,44.174a4.427,4.427,0,0,1-8.443,1.869,4.418,4.418,0,0,0,6.076-4.109,4.288,4.288,0,0,0-.421-1.868,4.413,4.413,0,0,1,2.788,4.109Z" transform="translate(-63.636 -40.065)" fill="#f76189"/>
          </g>
          <g id="Grupo_1202618" data-name="Grupo 1202618">
            <path id="Trazado_1042368" data-name="Trazado 1042368" d="M67.672,49.4a5.2,5.2,0,1,1,5.2-5.2A5.2,5.2,0,0,1,67.672,49.4Zm0-8.862A3.663,3.663,0,1,0,71.335,44.2,3.667,3.667,0,0,0,67.672,40.533Z" transform="translate(-62.473 -38.998)" fill="#0f0f0f"/>
          </g>
        </g>
      </g>
      <g id="Grupo_1202621" data-name="Grupo 1202621" transform="translate(63.414 14.088)">
        <path id="Trazado_1042369" data-name="Trazado 1042369" d="M79.457,15.387H62.818a.768.768,0,1,1,0-1.535H79.457a.768.768,0,0,1,0,1.535Z" transform="translate(-62.051 -13.852)" fill="#0f0f0f"/>
      </g>
      <g id="Grupo_1202622" data-name="Grupo 1202622" transform="translate(59.844 14.088)">
        <path id="Trazado_1042370" data-name="Trazado 1042370" d="M59.911,15.387H59.33a.768.768,0,0,1,0-1.535h.582a.768.768,0,0,1,0,1.535Z" transform="translate(-58.562 -13.852)" fill="#0f0f0f"/>
      </g>
      <g id="Grupo_1202645" data-name="Grupo 1202645" transform="translate(62.879 59.734)">
        <g id="Grupo_1202633" data-name="Grupo 1202633" transform="translate(19.402 0.079)">
          <g id="Grupo_1202630" data-name="Grupo 1202630" transform="translate(0 0.002)">
            <g id="Grupo_1202623" data-name="Grupo 1202623" transform="translate(0.768 0.767)">
              <path id="Trazado_1042371" data-name="Trazado 1042371" d="M81.478,64.559a5.308,5.308,0,1,1,10.617.081c0,.143-.009.279-.024.421h.007a5.465,5.465,0,0,1,4.132,8.977,6.963,6.963,0,0,1,.1,13.113,5.467,5.467,0,0,1-4.45,8.687h-.014c.006.116.012.231.011.347A5.308,5.308,0,1,1,81.237,96.1Z" transform="translate(-81.237 -59.284)" fill="#ffd9b0"/>
            </g>
            <g id="Grupo_1202624" data-name="Grupo 1202624" transform="translate(0.772 0.772)">
              <path id="Trazado_1042372" data-name="Trazado 1042372" d="M91.854,95.834h-.01c0,.123.01.236.01.348A5.306,5.306,0,1,1,81.242,96.1l.235-31.54a5.3,5.3,0,0,1,5.352-5.271,5.241,5.241,0,0,1,2.743.8A22.644,22.644,0,0,0,83.79,75.674c0,9.037,4.677,16.691,11.124,19.26a5.481,5.481,0,0,1-3.06.9Z" transform="translate(-81.242 -59.289)" fill="#edb57e"/>
            </g>
            <g id="Grupo_1202625" data-name="Grupo 1202625">
              <path id="Trazado_1042373" data-name="Trazado 1042373" d="M86.565,102.237h-.048a6.084,6.084,0,0,1-6.03-6.122l.241-31.544a6.076,6.076,0,0,1,12.147-.205,6.221,6.221,0,0,1,5.4,6.225,6.259,6.259,0,0,1-.871,3.128,7.731,7.731,0,0,1,.04,13.8,6.237,6.237,0,0,1-4.816,9.066,6.076,6.076,0,0,1-6.06,5.655ZM86.8,60.069a4.541,4.541,0,0,0-4.54,4.513l-.241,31.544a4.546,4.546,0,0,0,4.507,4.575A4.6,4.6,0,0,0,89.751,99.4,4.512,4.512,0,0,0,91.1,96.2c0-.094,0-.188-.008-.281a.793.793,0,0,1,.21-.578.823.823,0,0,1,.592-.249A4.7,4.7,0,0,0,95.7,87.62a.767.767,0,0,1,.356-1.172,6.2,6.2,0,0,0-.084-11.667.768.768,0,0,1-.338-1.217,4.694,4.694,0,0,0-3.549-7.718A.772.772,0,0,1,91.325,65c.012-.118.018-.231.019-.349a4.55,4.55,0,0,0-4.506-4.582H86.8ZM81.5,64.577h.01Z" transform="translate(-80.487 -58.535)" fill="#0f0f0f"/>
            </g>
            <g id="Grupo_1202626" data-name="Grupo 1202626" transform="translate(10.755 11.283)">
              <path id="Trazado_1042374" data-name="Trazado 1042374" d="M91.806,76.51h-.048A.768.768,0,0,1,91,75.736a.781.781,0,0,1,.774-.762,4.715,4.715,0,0,0,4.724-4.653.8.8,0,0,1,.774-.762.768.768,0,0,1,.762.773,6.231,6.231,0,0,1-6.223,6.177Z" transform="translate(-90.996 -69.56)" fill="#0f0f0f"/>
            </g>
            <g id="Grupo_1202627" data-name="Grupo 1202627" transform="translate(6.112 31.14)">
              <path id="Trazado_1042375" data-name="Trazado 1042375" d="M91.777,95.913h-.048a6.222,6.222,0,0,1-5.141-2.785.768.768,0,0,1,1.279-.849,4.69,4.69,0,0,0,8.6-2.554.738.738,0,0,1,.774-.762.768.768,0,0,1,.762.773,6.231,6.231,0,0,1-6.223,6.177Z" transform="translate(-86.459 -88.963)" fill="#0f0f0f"/>
            </g>
            <g id="Grupo_1202628" data-name="Grupo 1202628" transform="translate(8.086 21.383)">
              <path id="Trazado_1042376" data-name="Trazado 1042376" d="M93.756,87.863H93.7a7.714,7.714,0,0,1-5.048-1.93.767.767,0,1,1,1.016-1.15,6.185,6.185,0,0,0,10.275-4.591.8.8,0,0,1,.774-.762.768.768,0,0,1,.762.774A7.729,7.729,0,0,1,93.756,87.863Z" transform="translate(-88.388 -79.429)" fill="#0f0f0f"/>
            </g>
            <g id="Grupo_1202629" data-name="Grupo 1202629" transform="translate(4.808 22.026)">
              <path id="Trazado_1042377" data-name="Trazado 1042377" d="M85.952,84.547h-.006a.768.768,0,0,1-.762-.773A3.722,3.722,0,0,1,86.3,81.134a3.855,3.855,0,0,1,2.651-1.077.768.768,0,0,1,.762.773.749.749,0,0,1-.774.762,2.149,2.149,0,0,0-1.561.635,2.2,2.2,0,0,0-.659,1.558.767.767,0,0,1-.768.762Z" transform="translate(-85.185 -80.058)" fill="#0f0f0f"/>
            </g>
          </g>
          <g id="Grupo_1202631" data-name="Grupo 1202631" transform="translate(5.509)">
            <path id="Trazado_1042378" data-name="Trazado 1042378" d="M86.678,70.7h-.047a.768.768,0,0,1-.762-.773.743.743,0,0,1,.774-.762,4.548,4.548,0,0,0,.069-9.1.768.768,0,0,1-.762-.773.756.756,0,0,1,.774-.762A6.083,6.083,0,0,1,86.678,70.7Z" transform="translate(-85.87 -58.533)" fill="#0f0f0f"/>
          </g>
          <g id="Grupo_1202632" data-name="Grupo 1202632" transform="translate(3.701 13.492)">
            <path id="Trazado_1042379" data-name="Trazado 1042379" d="M87.826,76.246H87.82a.768.768,0,0,1-.762-.773,2.207,2.207,0,0,0-2.193-2.22.768.768,0,0,1-.762-.773.746.746,0,0,1,.774-.762,3.743,3.743,0,0,1,3.716,3.766.767.767,0,0,1-.768.762Z" transform="translate(-84.104 -71.716)" fill="#0f0f0f"/>
          </g>
        </g>
        <g id="Grupo_1202644" data-name="Grupo 1202644">
          <g id="Grupo_1202641" data-name="Grupo 1202641" transform="translate(0 0)">
            <g id="Grupo_1202634" data-name="Grupo 1202634" transform="translate(0.768 0.767)">
              <path id="Trazado_1042380" data-name="Trazado 1042380" d="M81.921,64.561A5.308,5.308,0,1,0,71.3,64.48c0,.143,0,.279.017.422h-.007a5.465,5.465,0,0,0-4.269,8.913,6.963,6.963,0,0,0-.3,13.11,5.467,5.467,0,0,0,4.318,8.754h.014c-.008.116-.015.231-.016.347A5.308,5.308,0,0,0,81.68,96.1Z" transform="translate(-62.279 -59.205)" fill="#ffd9b0"/>
            </g>
            <g id="Grupo_1202635" data-name="Grupo 1202635" transform="translate(6.506 0.771)">
              <path id="Trazado_1042381" data-name="Trazado 1042381" d="M70.946,95.754h.01c0,.123-.01.236-.01.348a5.306,5.306,0,1,0,10.612-.082l-.235-31.54a5.3,5.3,0,0,0-5.352-5.271,5.241,5.241,0,0,0-2.743.8A22.644,22.644,0,0,1,79.01,75.594c0,9.037-4.677,16.691-11.124,19.26a5.481,5.481,0,0,0,3.06.9Z" transform="translate(-67.886 -59.209)" fill="#edb57e"/>
            </g>
            <g id="Grupo_1202636" data-name="Grupo 1202636">
              <path id="Trazado_1042382" data-name="Trazado 1042382" d="M76.391,102.158h-.048a6.075,6.075,0,0,1-6.021-5.748,6.235,6.235,0,0,1-4.677-9.138,7.731,7.731,0,0,1,.25-13.8,6.238,6.238,0,0,1,1.028-7.533,6.164,6.164,0,0,1,3.64-1.751,6.042,6.042,0,0,1,1.8-3.989,6.076,6.076,0,0,1,10.342,4.38l-.241,31.544a6.075,6.075,0,0,1-6.074,6.03ZM71.276,65.686a4.7,4.7,0,0,0-3.616,7.663.767.767,0,0,1-.356,1.212,6.2,6.2,0,0,0-.263,11.664A.768.768,0,0,1,67.38,87.4a4.7,4.7,0,0,0,3.71,7.525.784.784,0,0,1,.564.246.771.771,0,0,1,.209.574c-.007.1-.013.2-.014.3a4.539,4.539,0,0,0,4.506,4.574,4.639,4.639,0,0,0,3.223-1.306,4.512,4.512,0,0,0,1.353-3.2l.241-31.544a4.541,4.541,0,1,0-9.082-.069c0,.118,0,.23.014.349a.769.769,0,0,1-.208.6.749.749,0,0,1-.584.238h-.035Zm10.662-1.108h.01Z" transform="translate(-61.528 -58.456)" fill="#0f0f0f"/>
            </g>
            <g id="Grupo_1202637" data-name="Grupo 1202637" transform="translate(3.541 11.119)">
              <path id="Trazado_1042383" data-name="Trazado 1042383" d="M71.171,76.353h-.006a6.223,6.223,0,0,1-6.176-6.271.75.75,0,0,1,.774-.762.768.768,0,0,1,.762.773,4.688,4.688,0,0,0,4.653,4.725.768.768,0,0,1-.006,1.535Z" transform="translate(-64.988 -69.32)" fill="#0f0f0f"/>
            </g>
            <g id="Grupo_1202638" data-name="Grupo 1202638" transform="translate(3.373 30.974)">
              <path id="Trazado_1042384" data-name="Trazado 1042384" d="M71.048,95.757H71a6.231,6.231,0,0,1-6.176-6.271.777.777,0,0,1,.774-.762.768.768,0,0,1,.762.773,4.69,4.69,0,0,0,8.558,2.686.768.768,0,0,1,1.266.868,6.221,6.221,0,0,1-5.136,2.707Z" transform="translate(-64.824 -88.723)" fill="#0f0f0f"/>
            </g>
            <g id="Grupo_1202639" data-name="Grupo 1202639" transform="translate(0.004 21.166)">
              <path id="Trazado_1042385" data-name="Trazado 1042385" d="M69.252,87.678h-.06a7.718,7.718,0,0,1-7.66-7.778.782.782,0,0,1,.774-.762.768.768,0,0,1,.762.774A6.183,6.183,0,0,0,69.2,86.143a6.06,6.06,0,0,0,4.067-1.484.767.767,0,1,1,1,1.166,7.712,7.712,0,0,1-5.017,1.853Z" transform="translate(-61.532 -79.138)" fill="#0f0f0f"/>
            </g>
            <g id="Grupo_1202640" data-name="Grupo 1202640" transform="translate(11.828 21.99)">
              <path id="Trazado_1042386" data-name="Trazado 1042386" d="M76.8,84.478H76.8a.768.768,0,0,1-.762-.773,2.209,2.209,0,0,0-2.186-2.226.768.768,0,0,1,.006-1.535h.006a3.746,3.746,0,0,1,3.709,3.773A.767.767,0,0,1,76.8,84.478Z" transform="translate(-73.086 -79.943)" fill="#0f0f0f"/>
            </g>
          </g>
          <g id="Grupo_1202642" data-name="Grupo 1202642" transform="translate(9.026)">
            <path id="Trazado_1042387" data-name="Trazado 1042387" d="M76.383,70.621h-.006a6.083,6.083,0,0,1,.093-12.165.768.768,0,0,1-.006,1.535h-.041a4.548,4.548,0,0,0-.033,9.1.768.768,0,0,1-.006,1.535Z" transform="translate(-70.348 -58.455)" fill="#0f0f0f"/>
          </g>
          <g id="Grupo_1202643" data-name="Grupo 1202643" transform="translate(13.057 13.519)">
            <path id="Trazado_1042388" data-name="Trazado 1042388" d="M75.055,76.148h-.006a.768.768,0,0,1-.762-.773,3.746,3.746,0,0,1,3.744-3.71h.029a.768.768,0,0,1-.006,1.535h-.023a2.208,2.208,0,0,0-2.209,2.186.767.767,0,0,1-.768.762Z" transform="translate(-74.287 -71.665)" fill="#0f0f0f"/>
          </g>
        </g>
      </g>
      <g id="Grupo_1202654" data-name="Grupo 1202654" transform="translate(3.744 66.283)">
        <g id="Grupo_1202646" data-name="Grupo 1202646" transform="translate(0.768 0.769)">
          <path id="Trazado_1042389" data-name="Trazado 1042389" d="M34.389,78.97l.02,2.991a1.045,1.045,0,0,1-.758,1.012l-1.567.448A12.7,12.7,0,0,1,30.5,87.333l.808,1.415A1.045,1.045,0,0,1,31.144,90l-2.1,2.131a1.045,1.045,0,0,1-1.25.18l-1.425-.79a12.716,12.716,0,0,1-3.891,1.636l-.428,1.572a1.045,1.045,0,0,1-1,.771l-2.991.02a1.045,1.045,0,0,1-1.012-.758L16.595,93.2a12.62,12.62,0,0,1-3.906-1.585l-1.42.809a1.045,1.045,0,0,1-1.252-.165l-2.127-2.1a1.045,1.045,0,0,1-.179-1.25l.79-1.426a12.557,12.557,0,0,1-1.636-3.891l-1.578-.428a1.045,1.045,0,0,1-.771-1l-.02-2.989a1.045,1.045,0,0,1,.758-1.012l1.572-.449A12.463,12.463,0,0,1,8.409,73.8L7.6,72.379a1.045,1.045,0,0,1,.164-1.252L9.863,69a1.045,1.045,0,0,1,1.249-.181l1.432.791a12.465,12.465,0,0,1,3.885-1.636l.428-1.578a1.045,1.045,0,0,1,1-.771l2.989-.02a1.045,1.045,0,0,1,1.012.758l.449,1.572a12.559,12.559,0,0,1,3.912,1.584l1.415-.809a1.045,1.045,0,0,1,1.252.163l2.129,2.1a1.045,1.045,0,0,1,.18,1.253L30.4,73.649a12.658,12.658,0,0,1,1.642,3.891l1.573.428a1.045,1.045,0,0,1,.771,1Z" transform="translate(-4.494 -65.606)" fill="#ff84a0"/>
        </g>
        <g id="Grupo_1202647" data-name="Grupo 1202647" transform="translate(3.85 3.736)">
          <path id="Trazado_1042390" data-name="Trazado 1042390" d="M34.318,78.9l.02,2.985a1.046,1.046,0,0,1-.759,1.012l-1.565.451a12.7,12.7,0,0,1-1.584,3.912l.811,1.412a1.05,1.05,0,0,1-.167,1.256l-2.1,2.131a1.05,1.05,0,0,1-1.253.183L26.3,91.454A12.717,12.717,0,0,1,22.4,93.09l-.43,1.571a1.046,1.046,0,0,1-1,.773l-2.985.02a1.046,1.046,0,0,1-1.012-.759l-.451-1.565a12.62,12.62,0,0,1-3.906-1.585l-1.418.811a1.05,1.05,0,0,1-1.255-.167l-2.125-2.1a1.042,1.042,0,0,1-.183-1.247l.793-1.429a11.733,11.733,0,0,1-.892-1.677,12.42,12.42,0,0,0,8.435,3.244c7.074-.047,12.776-6.091,12.727-13.5a13.8,13.8,0,0,0-1.671-6.526l.541-.311a1.043,1.043,0,0,1,1.249.167l2.131,2.1a1.049,1.049,0,0,1,.177,1.253l-.793,1.423a12.658,12.658,0,0,1,1.642,3.891l1.571.43a1.046,1.046,0,0,1,.773,1Z" transform="translate(-7.507 -68.506)" fill="#f76189"/>
        </g>
        <g id="Grupo_1202648" data-name="Grupo 1202648" transform="translate(1.925 30.292)">
          <path id="Trazado_1042391" data-name="Trazado 1042391" d="M7.55,96.891a.764.764,0,0,1-.4-.11,6.979,6.979,0,0,1-1.3-1.013.767.767,0,1,1,1.079-1.091,5.436,5.436,0,0,0,1.014.79.768.768,0,0,1-.4,1.425Z" transform="translate(-5.625 -94.454)" fill="#0f0f0f"/>
        </g>
        <g id="Grupo_1202649" data-name="Grupo 1202649" transform="translate(6.257 31.781)">
          <path id="Trazado_1042392" data-name="Trazado 1042392" d="M17.927,100.7a6.927,6.927,0,0,1-5.795-3.128,6.919,6.919,0,0,1-1.506.166.768.768,0,1,1,0-1.535,5.387,5.387,0,0,0,1.635-.254.77.77,0,0,1,.908.368,5.4,5.4,0,0,0,4.755,2.849l3.025-.02a.79.79,0,0,1,.773.763.768.768,0,0,1-.763.773l-3.03.02h0Z" transform="translate(-9.858 -95.909)" fill="#0f0f0f"/>
        </g>
        <g id="Grupo_1202650" data-name="Grupo 1202650">
          <path id="Trazado_1042393" data-name="Trazado 1042393" d="M18.066,96.305a1.819,1.819,0,0,1-1.743-1.313L16,93.855a13.349,13.349,0,0,1-3.3-1.338l-1.032.588a1.819,1.819,0,0,1-2.172-.286l-2.127-2.1a1.818,1.818,0,0,1-.31-2.168l.573-1.035a13.3,13.3,0,0,1-1.383-3.287L5.1,83.917A1.82,1.82,0,0,1,3.764,82.18l-.019-2.99A1.818,1.818,0,0,1,5.06,77.435L6.2,77.11a13.168,13.168,0,0,1,1.34-3.3L6.95,72.776a1.818,1.818,0,0,1,.285-2.171l2.1-2.126a1.819,1.819,0,0,1,2.167-.313l1.04.575a13.184,13.184,0,0,1,3.283-1.383l.31-1.144a1.817,1.817,0,0,1,1.736-1.338l2.99-.019a1.777,1.777,0,0,1,1.755,1.315l.325,1.14a13.3,13.3,0,0,1,3.3,1.34l1.028-.587a1.819,1.819,0,0,1,2.171.282l2.129,2.1a1.818,1.818,0,0,1,.312,2.173l-.576,1.033A13.419,13.419,0,0,1,32.7,76.935l1.14.31a1.819,1.819,0,0,1,1.337,1.737l.019,2.99a1.817,1.817,0,0,1-1.314,1.755l-1.135.325a13.447,13.447,0,0,1-1.339,3.3l.587,1.027a1.819,1.819,0,0,1-.283,2.173l-2.1,2.131A1.818,1.818,0,0,1,27.436,93L26.4,92.427a13.453,13.453,0,0,1-3.287,1.382l-.31,1.14a1.818,1.818,0,0,1-1.736,1.337l-2.991.02h-.011Zm-5.36-5.444a.768.768,0,0,1,.4.115,11.832,11.832,0,0,0,3.669,1.488A.768.768,0,0,1,17.35,93l.448,1.567a.279.279,0,0,0,.267.2h0l2.991-.02a.278.278,0,0,0,.266-.2l.428-1.573a.768.768,0,0,1,.565-.546,11.934,11.934,0,0,0,3.656-1.537.769.769,0,0,1,.783-.023l1.425.79a.278.278,0,0,0,.331-.047l2.1-2.132a.279.279,0,0,0,.043-.333l-.809-1.414a.768.768,0,0,1,.013-.783,11.916,11.916,0,0,0,1.489-3.676.768.768,0,0,1,.538-.572l1.567-.448a.277.277,0,0,0,.2-.268l-.019-2.991a.279.279,0,0,0-.2-.266L31.861,78.3a.767.767,0,0,1-.546-.565,11.881,11.881,0,0,0-1.543-3.656.768.768,0,0,1-.022-.785l.794-1.424a.278.278,0,0,0-.048-.333l-2.129-2.1a.277.277,0,0,0-.332-.043l-1.416.809a.768.768,0,0,1-.783-.012A11.762,11.762,0,0,0,22.163,68.7a.767.767,0,0,1-.575-.539l-.449-1.572a.267.267,0,0,0-.268-.2l-2.99.019a.277.277,0,0,0-.265.2l-.429,1.579a.768.768,0,0,1-.568.547,11.669,11.669,0,0,0-3.646,1.536.769.769,0,0,1-.784.024l-1.432-.791a.277.277,0,0,0-.332.048l-2.1,2.127a.279.279,0,0,0-.044.332l.81,1.421a.767.767,0,0,1-.014.784,11.66,11.66,0,0,0-1.487,3.666.768.768,0,0,1-.539.575l-1.573.449a.278.278,0,0,0-.2.269L5.3,82.169a.279.279,0,0,0,.2.266l1.578.428a.769.769,0,0,1,.547.568,11.754,11.754,0,0,0,1.537,3.653.768.768,0,0,1,.023.783L8.4,89.293a.278.278,0,0,0,.047.332l2.127,2.1a.279.279,0,0,0,.332.044l1.42-.81a.768.768,0,0,1,.38-.1Z" transform="translate(-3.744 -64.855)" fill="#0f0f0f"/>
        </g>
        <g id="Grupo_1202651" data-name="Grupo 1202651" transform="translate(7.261 7.262)">
          <circle id="Elipse_12532" data-name="Elipse 12532" cx="8.464" cy="8.464" r="8.464" fill="#fff"/>
        </g>
        <g id="Grupo_1202652" data-name="Grupo 1202652" transform="translate(8.855 7.756)">
          <path id="Trazado_1042394" data-name="Trazado 1042394" d="M27.731,80.345A8.459,8.459,0,0,1,12.4,85.337a8.463,8.463,0,0,0,9.727-12.9,8.465,8.465,0,0,1,5.607,7.912Z" transform="translate(-12.397 -72.433)" fill="#ddd"/>
        </g>
        <g id="Grupo_1202653" data-name="Grupo 1202653" transform="translate(6.493 6.495)">
          <path id="Trazado_1042395" data-name="Trazado 1042395" d="M19.319,89.664a9.238,9.238,0,1,1,.062,0h-.062Zm0-16.928H19.27a7.683,7.683,0,1,0,.051,0Z" transform="translate(-10.089 -71.201)" fill="#0f0f0f"/>
        </g>
      </g>
    </g>
  </g>
</svg>
