<svg xmlns="http://www.w3.org/2000/svg" xmlns:xlink="http://www.w3.org/1999/xlink" width="113" height="113" viewBox="0 0 113 113">
  <defs>
    <filter id="Trazado_982547" x="0" y="0" width="113" height="113" filterUnits="userSpaceOnUse">
      <feOffset dy="3" input="SourceAlpha"/>
      <feGaussianBlur stdDeviation="3" result="blur"/>
      <feFlood flood-opacity="0.161"/>
      <feComposite operator="in" in2="blur"/>
      <feComposite in="SourceGraphic"/>
    </filter>
  </defs>
  <g id="Grupo_1202563" data-name="Grupo 1202563" transform="translate(-323.883 -10796.885)">
    <g id="Grupo_1201938" data-name="Grupo 1201938" transform="translate(332.883 10802.885)">
      <g id="Grupo_1201898" data-name="Grupo 1201898">
        <g id="Grupo_1201680" data-name="Grupo 1201680">
          <g id="Grupo_1201330" data-name="Grupo 1201330">
            <g id="Grupo_1172010" data-name="Grupo 1172010">
              <g id="Grupo_1171046" data-name="Grupo 1171046">
                <g id="Grupo_1148525" data-name="Grupo 1148525">
                  <g transform="matrix(1, 0, 0, 1, -9, -6)" filter="url(#Trazado_982547)">
                    <g id="Trazado_982547-2" data-name="Trazado 982547" transform="translate(9 6)" fill="#f3e6fd">
                      <path d="M 47.5 93.5 C 41.28937149047852 93.5 35.26533508300781 92.28397369384766 29.59518623352051 89.88570404052734 C 24.11771965026855 87.56893157958984 19.19813346862793 84.25196075439453 14.97309303283691 80.02691650390625 C 10.74804019927979 75.80186462402344 7.431066513061523 70.88229370117188 5.114293098449707 65.40481567382812 C 2.716026782989502 59.73468017578125 1.5 53.71062850952148 1.5 47.5 C 1.5 41.28937149047852 2.716026782989502 35.26533508300781 5.114293098449707 29.59518623352051 C 7.431066513061523 24.11771965026855 10.74804019927979 19.19813346862793 14.97309303283691 14.97309303283691 C 19.19813346862793 10.74804019927979 24.11771965026855 7.431066513061523 29.59518623352051 5.114293098449707 C 35.26533508300781 2.716026782989502 41.28937149047852 1.5 47.5 1.5 C 53.71062850952148 1.5 59.73468017578125 2.716026782989502 65.40481567382812 5.114293098449707 C 70.88229370117188 7.431066513061523 75.80186462402344 10.74804019927979 80.02691650390625 14.97309303283691 C 84.25196075439453 19.19813346862793 87.56893157958984 24.11771965026855 89.88570404052734 29.59518623352051 C 92.28397369384766 35.26533508300781 93.5 41.28937149047852 93.5 47.5 C 93.5 53.71062850952148 92.28397369384766 59.73468017578125 89.88570404052734 65.40481567382812 C 87.56893157958984 70.88229370117188 84.25196075439453 75.80186462402344 80.02691650390625 80.02691650390625 C 75.80186462402344 84.25196075439453 70.88229370117188 87.56893157958984 65.40481567382812 89.88570404052734 C 59.73468017578125 92.28397369384766 53.71062850952148 93.5 47.5 93.5 Z" stroke="none"/>
                      <path d="M 47.5 3 C 41.49121475219727 3 35.66376876831055 4.176155090332031 30.17950439453125 6.495796203613281 C 24.88084411621094 8.736953735351562 20.12152099609375 11.94598388671875 16.03375244140625 16.03375244140625 C 11.94598388671875 20.12152099609375 8.736953735351562 24.88084411621094 6.495796203613281 30.17950439453125 C 4.176155090332031 35.66376876831055 3 41.49121475219727 3 47.5 C 3 53.50878524780273 4.176155090332031 59.33623123168945 6.495796203613281 64.82049560546875 C 8.736953735351562 70.11915588378906 11.94598388671875 74.87847900390625 16.03375244140625 78.96624755859375 C 20.12152099609375 83.05401611328125 24.88084411621094 86.26304626464844 30.17950439453125 88.50419616699219 C 35.66376876831055 90.82384490966797 41.49121475219727 92 47.5 92 C 53.50878524780273 92 59.33623123168945 90.82384490966797 64.82049560546875 88.50419616699219 C 70.11915588378906 86.26304626464844 74.87847900390625 83.05401611328125 78.96624755859375 78.96624755859375 C 83.05401611328125 74.87847900390625 86.26304626464844 70.11915588378906 88.50419616699219 64.82049560546875 C 90.82384490966797 59.33623123168945 92 53.50878524780273 92 47.5 C 92 41.49121475219727 90.82384490966797 35.66376876831055 88.50419616699219 30.17950439453125 C 86.26304626464844 24.88084411621094 83.05401611328125 20.12152099609375 78.96624755859375 16.03375244140625 C 74.87847900390625 11.94598388671875 70.11915588378906 8.736953735351562 64.82049560546875 6.495796203613281 C 59.33623123168945 4.176155090332031 53.50878524780273 3 47.5 3 M 47.5 0 C 73.7335205078125 0 95 21.2664794921875 95 47.5 C 95 73.7335205078125 73.7335205078125 95 47.5 95 C 21.2664794921875 95 0 73.7335205078125 0 47.5 C 0 21.2664794921875 21.2664794921875 0 47.5 0 Z" stroke="none" fill="#951bf1"/>
                    </g>
                  </g>
                </g>
              </g>
            </g>
          </g>
        </g>
      </g>
    </g>
    <g id="data-collection_8089701_2_" data-name="data-collection_8089701 (2)" transform="translate(343.613 10817.997)">
      <path id="Trazado_1042224" data-name="Trazado 1042224" d="M180.087,346.295h14.567a1.744,1.744,0,0,0,1.744-1.744v-7.345a1.744,1.744,0,0,0-1.744-1.744h-8.367a1.744,1.744,0,0,1-1.233-.511l-.784-.784a1.743,1.743,0,0,0-1.233-.511h-2.95a1.744,1.744,0,0,0-1.744,1.744v9.151A1.744,1.744,0,0,0,180.087,346.295Z" transform="translate(-150.983 -288.243)" fill="#fe7701"/>
      <path id="Trazado_1042225" data-name="Trazado 1042225" d="M103.384,162.812v10.833H86.232V162.812H82.621v10.833H65.47V162.812H61.859v11.537a2.906,2.906,0,0,0,2.906,2.906H82.621V191.7h3.611V177.255h17.856a2.906,2.906,0,0,0,2.906-2.906V162.812Z" transform="translate(-48.04 -137.258)" fill="#0067c5"/>
      <path id="Trazado_1042226" data-name="Trazado 1042226" d="M182.733,394.694H164.556a1.744,1.744,0,0,1-1.744-1.744V383.8a1.744,1.744,0,0,1,1.744-1.744h11.978a1.744,1.744,0,0,0,1.233-.511l.784-.784a1.744,1.744,0,0,1,1.233-.511h2.95a1.744,1.744,0,0,1,1.744,1.744v10.956A1.744,1.744,0,0,1,182.733,394.694Z" transform="translate(-137.258 -329.421)" fill="#fe9738"/>
      <rect id="Rectángulo_417659" data-name="Rectángulo 417659" width="3.611" height="4.13" transform="translate(34.581 50.311)" fill="#0055a3"/>
      <rect id="Rectángulo_417660" data-name="Rectángulo 417660" width="3.611" height="4.13" transform="translate(55.344 25.554)" fill="#0055a3"/>
      <rect id="Rectángulo_417661" data-name="Rectángulo 417661" width="3.611" height="4.13" transform="translate(34.581 25.554)" fill="#0055a3"/>
      <rect id="Rectángulo_417662" data-name="Rectángulo 417662" width="3.611" height="4.13" transform="translate(13.819 25.554)" fill="#0055a3"/>
      <path id="Trazado_1042227" data-name="Trazado 1042227" d="M182.733,394.694H164.556a1.744,1.744,0,0,1-1.744-1.744V383.8a1.744,1.744,0,0,1,1.744-1.744h11.978a1.744,1.744,0,0,0,1.233-.511l.784-.784a1.744,1.744,0,0,1,1.233-.511h2.95a1.744,1.744,0,0,1,1.744,1.744v10.956A1.744,1.744,0,0,1,182.733,394.694Z" transform="translate(-137.258 -329.421)" fill="#fe9738"/>
      <path id="Trazado_1042228" data-name="Trazado 1042228" d="M182.734,380.25h-2.906v6.306a5.812,5.812,0,0,1-5.812,5.812h-11.2v.581a1.744,1.744,0,0,0,1.744,1.744h18.178a1.744,1.744,0,0,0,1.744-1.744V381.994A1.744,1.744,0,0,0,182.734,380.25Z" transform="translate(-137.259 -329.42)" fill="#fe860a"/>
      <path id="Trazado_1042229" data-name="Trazado 1042229" d="M196.039,7.5h-8.186a1.744,1.744,0,0,0-1.744,1.744V25.616a1.744,1.744,0,0,0,1.744,1.744h12.761a1.744,1.744,0,0,0,1.744-1.744v-11.8l-4.514-2.708Z" transform="translate(-157.847)" fill="#dff6fd"/>
      <path id="Trazado_1042230" data-name="Trazado 1042230" d="M197.844,36.49l-.136-.272V44.6a5.812,5.812,0,0,1-5.812,5.812h-5.787V51a1.744,1.744,0,0,0,1.744,1.744h12.761A1.744,1.744,0,0,0,202.358,51V39.2Z" transform="translate(-157.847 -25.38)" fill="#c8effe"/>
      <path id="Trazado_1042231" data-name="Trazado 1042231" d="M271.531,12.075V7.5l6.319,6.319h-4.575A1.744,1.744,0,0,1,271.531,12.075Z" transform="translate(-233.339)" fill="#f2fbff"/>
      <path id="Trazado_1042232" data-name="Trazado 1042232" d="M17.43,7.5H9.244A1.744,1.744,0,0,0,7.5,9.244V25.616A1.744,1.744,0,0,0,9.244,27.36H22.005a1.744,1.744,0,0,0,1.744-1.744v-11.8l-4.514-2.708Z" fill="#dff6fd"/>
      <path id="Trazado_1042233" data-name="Trazado 1042233" d="M19.235,36.49l-.136-.272V44.6a5.812,5.812,0,0,1-5.812,5.812H7.5V51a1.744,1.744,0,0,0,1.744,1.744H22.005A1.744,1.744,0,0,0,23.749,51V39.2Z" transform="translate(0 -25.38)" fill="#c8effe"/>
      <path id="Trazado_1042234" data-name="Trazado 1042234" d="M92.922,12.075V7.5l6.319,6.319H94.666A1.744,1.744,0,0,1,92.922,12.075Z" transform="translate(-75.492)" fill="#f2fbff"/>
      <path id="Trazado_1042235" data-name="Trazado 1042235" d="M374.649,7.5h-8.186a1.744,1.744,0,0,0-1.744,1.744V25.616a1.744,1.744,0,0,0,1.744,1.744h12.761a1.744,1.744,0,0,0,1.744-1.744v-11.8l-4.514-2.708Z" transform="translate(-315.694)" fill="#dff6fd"/>
      <path id="Trazado_1042236" data-name="Trazado 1042236" d="M376.454,36.49l-.136-.272V44.6a5.812,5.812,0,0,1-5.812,5.812h-5.787V51a1.744,1.744,0,0,0,1.744,1.744h12.761A1.744,1.744,0,0,0,380.968,51V39.2Z" transform="translate(-315.694 -25.38)" fill="#c8effe"/>
      <path id="Trazado_1042237" data-name="Trazado 1042237" d="M400.295,54.094l-.116,4.4-4.4.116a4.514,4.514,0,1,0,4.514-4.514Z" transform="translate(-343.146 -41.178)" fill="#01c0fa"/>
      <path id="Trazado_1042238" data-name="Trazado 1042238" d="M400.295,54.094a4.514,4.514,0,0,0-4.514,4.514h4.514Z" transform="translate(-343.146 -41.178)" fill="#e53950"/>
      <path id="Trazado_1042239" data-name="Trazado 1042239" d="M463.49,72.813a5.829,5.829,0,0,1-.133,1.241,4.514,4.514,0,0,0,.133-5.915v4.674Z" transform="translate(-402.866 -53.59)" fill="#08a9f1"/>
      <path id="Trazado_1042240" data-name="Trazado 1042240" d="M450.141,12.075V7.5l6.319,6.319h-4.575A1.744,1.744,0,0,1,450.141,12.075Z" transform="translate(-391.186)" fill="#f2fbff"/>
      <path id="Trazado_1042241" data-name="Trazado 1042241" d="M271.531,203.619V190.981h17.856a2.906,2.906,0,0,0,2.906-2.906v-9.732" transform="translate(-233.339 -150.983)" fill="none" stroke="#000" stroke-linecap="round" stroke-linejoin="round" stroke-miterlimit="10" stroke-width="1.2"/>
      <path id="Trazado_1042242" data-name="Trazado 1042242" d="M61.859,178.344v9.732a2.906,2.906,0,0,0,2.906,2.906H82.621V203.62" transform="translate(-48.04 -150.984)" fill="none" stroke="#000" stroke-linecap="round" stroke-linejoin="round" stroke-miterlimit="10" stroke-width="1.2"/>
      <path id="Trazado_1042243" data-name="Trazado 1042243" d="M110.074,178.344v9.027H92.922v-9.027" transform="translate(-75.492 -150.984)" fill="none" stroke="#000" stroke-linecap="round" stroke-linejoin="round" stroke-miterlimit="10" stroke-width="1.2"/>
      <path id="Trazado_1042244" data-name="Trazado 1042244" d="M275,187.371h-3.467v-9.027" transform="translate(-233.339 -150.984)" fill="none" stroke="#000" stroke-linecap="round" stroke-linejoin="round" stroke-miterlimit="10" stroke-width="1.2"/>
      <path id="Trazado_1042245" data-name="Trazado 1042245" d="M345.973,178.344v9.027h-9.616" transform="translate(-290.629 -150.984)" fill="none" stroke="#000" stroke-linecap="round" stroke-linejoin="round" stroke-miterlimit="10" stroke-width="1.2"/>
      <path id="Trazado_1042246" data-name="Trazado 1042246" d="M162.812,384.231V383.8a1.744,1.744,0,0,1,1.744-1.744h11.978a1.744,1.744,0,0,0,1.233-.511l.784-.784a1.744,1.744,0,0,1,1.233-.511h2.95a1.744,1.744,0,0,1,1.744,1.744v10.956a1.744,1.744,0,0,1-1.744,1.744H164.556a1.744,1.744,0,0,1-1.744-1.744V388.3" transform="translate(-137.258 -329.421)" fill="none" stroke="#000" stroke-linecap="round" stroke-linejoin="round" stroke-miterlimit="10" stroke-width="1.2"/>
      <path id="Trazado_1042247" data-name="Trazado 1042247" d="M196.039,7.5h-8.186a1.744,1.744,0,0,0-1.744,1.744V25.616a1.744,1.744,0,0,0,1.744,1.744h12.761a1.744,1.744,0,0,0,1.744-1.744v-11.8" transform="translate(-157.847)" fill="none" stroke="#000" stroke-linecap="round" stroke-linejoin="round" stroke-miterlimit="10" stroke-width="1.2"/>
      <path id="Trazado_1042248" data-name="Trazado 1042248" d="M271.531,12.075V7.5l6.319,6.319h-4.575A1.744,1.744,0,0,1,271.531,12.075Z" transform="translate(-233.339)" fill="none" stroke="#000" stroke-linecap="round" stroke-linejoin="round" stroke-miterlimit="10" stroke-width="1.2"/>
      <path id="Trazado_1042249" data-name="Trazado 1042249" d="M7.5,65.309v8.347A1.744,1.744,0,0,0,9.244,75.4H22.005a1.744,1.744,0,0,0,1.744-1.744v-11.8" transform="translate(0 -48.04)" fill="none" stroke="#000" stroke-linecap="round" stroke-linejoin="round" stroke-miterlimit="10" stroke-width="1.2"/>
      <path id="Trazado_1042250" data-name="Trazado 1042250" d="M17.43,7.5H9.244A1.744,1.744,0,0,0,7.5,9.244V13.2" fill="none" stroke="#000" stroke-linecap="round" stroke-linejoin="round" stroke-miterlimit="10" stroke-width="1.2"/>
      <path id="Trazado_1042251" data-name="Trazado 1042251" d="M92.922,12.075V7.5l6.319,6.319H94.666A1.744,1.744,0,0,1,92.922,12.075Z" transform="translate(-75.492)" fill="none" stroke="#000" stroke-linecap="round" stroke-linejoin="round" stroke-miterlimit="10" stroke-width="1.2"/>
      <path id="Trazado_1042252" data-name="Trazado 1042252" d="M374.649,7.5h-8.186a1.744,1.744,0,0,0-1.744,1.744V25.616a1.744,1.744,0,0,0,1.744,1.744h12.761a1.744,1.744,0,0,0,1.744-1.744v-11.8" transform="translate(-315.694)" fill="none" stroke="#000" stroke-linecap="round" stroke-linejoin="round" stroke-miterlimit="10" stroke-width="1.2"/>
      <line id="Línea_988" data-name="Línea 988" y2="3.611" transform="translate(36.387 16.527)" fill="none" stroke="#000" stroke-linecap="round" stroke-linejoin="round" stroke-miterlimit="10" stroke-width="1.2"/>
      <line id="Línea_989" data-name="Línea 989" y2="7.222" transform="translate(32.776 12.916)" fill="none" stroke="#000" stroke-linecap="round" stroke-linejoin="round" stroke-miterlimit="10" stroke-width="1.2"/>
      <line id="Línea_990" data-name="Línea 990" y1="1.805" transform="translate(39.998 18.333)" fill="none" stroke="#000" stroke-linecap="round" stroke-linejoin="round" stroke-miterlimit="10" stroke-width="1.2"/>
      <line id="Línea_991" data-name="Línea 991" x2="1.806" transform="translate(11.111 14.722)" fill="none" stroke="#000" stroke-linecap="round" stroke-linejoin="round" stroke-miterlimit="10" stroke-width="1.2"/>
      <line id="Línea_992" data-name="Línea 992" x2="9.027" transform="translate(11.111 18.333)" fill="none" stroke="#000" stroke-linecap="round" stroke-linejoin="round" stroke-miterlimit="10" stroke-width="1.2"/>
      <line id="Línea_993" data-name="Línea 993" x2="9.027" transform="translate(11.111 21.943)" fill="none" stroke="#000" stroke-linecap="round" stroke-linejoin="round" stroke-miterlimit="10" stroke-width="1.2"/>
      <path id="Trazado_1042253" data-name="Trazado 1042253" d="M400.295,54.094a4.514,4.514,0,0,0-4.514,4.514h4.514Z" transform="translate(-343.146 -41.178)" fill="none" stroke="#000" stroke-linecap="round" stroke-linejoin="round" stroke-miterlimit="10" stroke-width="1.2"/>
      <path id="Trazado_1042254" data-name="Trazado 1042254" d="M400.295,54.094l-.116,4.4-4.4.116a4.514,4.514,0,1,0,4.514-4.514Z" transform="translate(-343.146 -41.178)" fill="none" stroke="#000" stroke-linecap="round" stroke-linejoin="round" stroke-miterlimit="10" stroke-width="1.2"/>
      <path id="Trazado_1042255" data-name="Trazado 1042255" d="M450.141,12.075V7.5l6.319,6.319h-4.575A1.744,1.744,0,0,1,450.141,12.075Z" transform="translate(-391.186)" fill="none" stroke="#000" stroke-linecap="round" stroke-linejoin="round" stroke-miterlimit="10" stroke-width="1.2"/>
      <path id="Trazado_1042256" data-name="Trazado 1042256" d="M278.753,352.8v-1.867a1.744,1.744,0,0,0-1.744-1.744h-5.478" transform="translate(-233.339 -301.969)" fill="none" stroke="#000" stroke-linecap="round" stroke-linejoin="round" stroke-miterlimit="10" stroke-width="1.2"/>
      <path id="Trazado_1042257" data-name="Trazado 1042257" d="M185.566,335.3a1.74,1.74,0,0,1-.511-.354l-.784-.784a1.744,1.744,0,0,0-1.233-.511h-2.95a1.744,1.744,0,0,0-1.744,1.744v5.478" transform="translate(-150.984 -288.242)" fill="none" stroke="#000" stroke-linecap="round" stroke-linejoin="round" stroke-miterlimit="10" stroke-width="1.2"/>
    </g>
  </g>
</svg>
