<svg xmlns="http://www.w3.org/2000/svg" xmlns:xlink="http://www.w3.org/1999/xlink" width="108" height="108" viewBox="0 0 108 108">
  <defs>
    <filter id="Trazado_904820" x="0" y="0" width="108" height="108" filterUnits="userSpaceOnUse">
      <feOffset dy="3" input="SourceAlpha"/>
      <feGaussianBlur stdDeviation="3" result="blur"/>
      <feFlood flood-opacity="0.161"/>
      <feComposite operator="in" in2="blur"/>
      <feComposite in="SourceGraphic"/>
    </filter>
  </defs>
  <g id="Grupo_1202552" data-name="Grupo 1202552" transform="translate(9 6)">
    <g id="Grupo_1173585" data-name="Grupo 1173585" transform="translate(0 0)">
      <g id="Grupo_1173428" data-name="Grupo 1173428">
        <g id="Grupo_1171958" data-name="Grupo 1171958">
          <g id="Grupo_1167341" data-name="Grupo 1167341">
            <g id="Grupo_1166792" data-name="Grupo 1166792">
              <g transform="matrix(1, 0, 0, 1, -9, -6)" filter="url(#Trazado_904820)">
                <g id="Trazado_904820-2" data-name="Trazado 904820" transform="translate(9 6)" fill="#e6fdfd">
                  <path d="M 44.99996948242188 88.5 C 39.12684631347656 88.5 33.43020629882812 87.35007476806641 28.06828117370605 85.08216857910156 C 22.88850784301758 82.89131164550781 18.23629379272461 79.75458526611328 14.2408447265625 75.75914764404297 C 10.24540710449219 71.76369476318359 7.108694553375244 67.11147308349609 4.917831897735596 61.93169784545898 C 2.649931907653809 56.56977081298828 1.500007033348083 50.87311935424805 1.500007033348083 44.99999618530273 C 1.500007033348083 39.12687301635742 2.649931907653809 33.43022155761719 4.917831897735596 28.06829643249512 C 7.108694553375244 22.88852119445801 10.24540710449219 18.23629570007324 14.2408447265625 14.24084663391113 C 18.23629379272461 10.24540901184082 22.88850784301758 7.108683586120605 28.06828117370605 4.917821407318115 C 33.43020629882812 2.649921178817749 39.12684631347656 1.499996185302734 44.99996948242188 1.499996185302734 C 50.87309265136719 1.499996185302734 56.56973266601562 2.649921178817749 61.93165588378906 4.917821407318115 C 67.11143493652344 7.108683586120605 71.76364135742188 10.24540901184082 75.75909423828125 14.24084663391113 C 79.75454711914062 18.23629570007324 82.89125823974609 22.88852119445801 85.08212280273438 28.06829643249512 C 87.35002136230469 33.43022155761719 88.49994659423828 39.12687301635742 88.49994659423828 44.99999618530273 C 88.49994659423828 50.87311935424805 87.35002136230469 56.56977081298828 85.08212280273438 61.93169784545898 C 82.89125823974609 67.11147308349609 79.75454711914062 71.76369476318359 75.75909423828125 75.75914764404297 C 71.76364135742188 79.75458526611328 67.11143493652344 82.89131164550781 61.93165588378906 85.08216857910156 C 56.56973266601562 87.35007476806641 50.87309265136719 88.5 44.99996948242188 88.5 Z" stroke="none"/>
                  <path d="M 44.99996948242188 2.999992370605469 C 39.32868194580078 2.999992370605469 33.82863998413086 4.110054016113281 28.65261077880859 6.299339294433594 C 23.65164184570312 8.414566040039062 19.15968322753906 11.44333648681641 15.30149841308594 15.301513671875 C 11.44332885742188 19.15968322753906 8.414566040039062 23.65165710449219 6.299324035644531 28.65262603759766 C 4.110054016113281 33.82865142822266 3 39.32870864868164 3 44.99999618530273 C 3 50.67128372192383 4.110054016113281 56.17134094238281 6.299324035644531 61.34736633300781 C 8.414566040039062 66.34834289550781 11.44332885742188 70.84030914306641 15.30149841308594 74.69847869873047 C 19.15968322753906 78.55665588378906 23.65164184570312 81.58542633056641 28.65261077880859 83.70065307617188 C 33.82863998413086 85.88993835449219 39.32868194580078 87 44.99996948242188 87 C 50.67125701904297 87 56.17129898071289 85.88993835449219 61.34732818603516 83.70065307617188 C 66.34829711914062 81.58542633056641 70.84025573730469 78.55665588378906 74.69844055175781 74.69847869873047 C 78.55661010742188 70.84030914306641 81.58537292480469 66.34834289550781 83.70061492919922 61.34736633300781 C 85.88988494873047 56.17134094238281 86.99993896484375 50.67128372192383 86.99993896484375 44.99999618530273 C 86.99993896484375 39.32870864868164 85.88988494873047 33.82865142822266 83.70061492919922 28.65262603759766 C 81.58537292480469 23.65165710449219 78.55661010742188 19.15968322753906 74.69844055175781 15.301513671875 C 70.84025573730469 11.44333648681641 66.34829711914062 8.414566040039062 61.34732818603516 6.299339294433594 C 56.17129898071289 4.110054016113281 50.67125701904297 2.999992370605469 44.99996948242188 2.999992370605469 M 44.99996948242188 -7.62939453125e-06 C 69.85276794433594 -7.62939453125e-06 89.99993896484375 20.14717864990234 89.99993896484375 44.99999618530273 C 89.99993896484375 69.85281372070312 69.85276794433594 90 44.99996948242188 90 C 20.14717102050781 90 0 69.85281372070312 0 44.99999618530273 C 0 20.14717864990234 20.14717102050781 -7.62939453125e-06 44.99996948242188 -7.62939453125e-06 Z" stroke="none" fill="#0e8585"/>
                </g>
              </g>
            </g>
          </g>
        </g>
      </g>
    </g>
    <g id="tuning" transform="translate(12.1 13.1)">
      <path id="Trazado_1042284" data-name="Trazado 1042284" d="M60.8,56l-.458,1.555a1.993,1.993,0,0,1-1.914,1.435H39.492a1.993,1.993,0,0,1-1.914-1.435L37.12,56h9.847v1h3.987V56Z" transform="translate(-0.117 -0.18)" fill="#ffdaaa"/>
      <path id="Trazado_1042285" data-name="Trazado 1042285" d="M8.98,14.96a5.98,5.98,0,0,1,5.98-5.98,8.56,8.56,0,0,1,3.987,1A15.5,15.5,0,0,1,31.9,3c5.113,0,9.269,3.06,11.96,6.977a10.565,10.565,0,0,1,4.983-1c1.993,0,6.608,2.482,6.977,5.98,3.458.867,4.983,4.246,4.983,7.973,0,4.405-2.571,7.973-6.977,7.973H12.967A9.967,9.967,0,0,1,3,20.94a5.98,5.98,0,0,1,5.98-5.98Z" transform="translate(-0.003 -0.003)" fill="#ffdaaa"/>
      <path id="Trazado_1042286" data-name="Trazado 1042286" d="M60.955,22.953c0,4.405-2.571,7.973-6.977,7.973H51.985c4.405,0,6.977-3.568,6.977-7.973,0-3.728-1.525-7.106-4.983-7.973-.339-3.209-4.246-5.561-6.429-5.92C47.979,9.02,48.457,9,49,9c1.993,0,6.608,2.482,6.977,5.98C59.43,15.847,60.955,19.226,60.955,22.953Z" transform="translate(-0.152 -0.023)" fill="#ffc477"/>
      <path id="Trazado_1042287" data-name="Trazado 1042287" d="M56.94,40.98H54.947a5.98,5.98,0,1,0-11.96,0H40.993A2,2,0,0,0,39,42.973v7.973a2,2,0,0,0,1.993,1.993H56.94a2,2,0,0,0,1.993-1.993V42.973A2,2,0,0,0,56.94,40.98Z" transform="translate(-0.123 -0.11)" fill="#57a4ff"/>
      <path id="Trazado_1042288" data-name="Trazado 1042288" d="M58.987,42.993v7.973a2,2,0,0,1-1.993,1.993H55a2,2,0,0,0,1.993-1.993V42.993A2,2,0,0,0,55,41h1.993A2,2,0,0,1,58.987,42.993Z" transform="translate(-0.176 -0.13)" fill="#2488ff"/>
      <circle id="Elipse_12521" data-name="Elipse 12521" cx="6.069" cy="6.069" r="6.069" transform="translate(42.831 35.316)" fill="#ffde55"/>
      <path id="Trazado_1042289" data-name="Trazado 1042289" d="M54.977,40.98A5.98,5.98,0,0,1,49,46.96a5.452,5.452,0,0,1-1-.09A5.973,5.973,0,0,0,48,35.09,5.452,5.452,0,0,1,49,35a5.98,5.98,0,0,1,5.98,5.98Z" transform="translate(-0.153 -0.11)" fill="#ffcd00"/>
      <path id="Trazado_1042290" data-name="Trazado 1042290" d="M25.947,49.967l-1.973.488L25.02,52.2,22.2,55.02l-1.744-1.047-.488,1.973H15.98l-.488-1.973L13.747,55.02,10.927,52.2l1.047-1.744L10,49.967V45.98l1.973-.488-1.047-1.744,2.821-2.821,1.744,1.047L15.98,40h3.987l.488,1.973L22.2,40.927l2.821,2.821-1.047,1.744,1.973.488Z" transform="translate(-0.027 -0.126)" fill="#ffde55"/>
      <path id="Trazado_1042291" data-name="Trazado 1042291" d="M25.983,49.97l-1.973.488L25.056,52.2l-2.821,2.821-1.246-.748L23.063,52.2l-1.047-1.744,1.973-.488V45.983l-1.973-.488,1.047-1.744L20.99,41.677l1.246-.748,2.821,2.821L24.01,45.495l1.973.488Z" transform="translate(-0.063 -0.129)" fill="#ffcd00"/>
      <circle id="Elipse_12522" data-name="Elipse 12522" cx="2.759" cy="2.759" r="2.759" transform="translate(15.242 45.247)" fill="#e0e0e2"/>
      <path id="Trazado_1042292" data-name="Trazado 1042292" d="M20.987,47.99A2.99,2.99,0,0,1,18,50.98a2.763,2.763,0,0,1-1-.179,2.978,2.978,0,0,0,0-5.621A2.763,2.763,0,0,1,18,45,2.99,2.99,0,0,1,20.987,47.99Z" transform="translate(-0.05 -0.143)" fill="#c6c5ca"/>
      <path id="Trazado_1042293" data-name="Trazado 1042293" d="M17.987,44a3.987,3.987,0,1,0,3.987,3.987A3.987,3.987,0,0,0,17.987,44Zm0,5.98a1.993,1.993,0,1,1,1.993-1.993A1.993,1.993,0,0,1,17.987,49.98Z" transform="translate(-0.04 -0.14)"/>
      <path id="Trazado_1042294" data-name="Trazado 1042294" d="M26.94,49.963V45.977a1,1,0,0,0-.755-.967l-.666-.166.354-.589a1,1,0,0,0-.15-1.217l-2.82-2.82a1,1,0,0,0-1.217-.15l-.589.354-.166-.666A1,1,0,0,0,19.963,39H15.977a1,1,0,0,0-.967.755l-.166.666-.589-.354a1,1,0,0,0-1.217.15l-2.82,2.82a1,1,0,0,0-.15,1.217l.354.589-.666.166A1,1,0,0,0,9,45.977v3.987a1,1,0,0,0,.755.967l.666.166-.354.589a1,1,0,0,0,.15,1.217l2.82,2.82a1,1,0,0,0,1.217.151l.589-.354.166.666a1,1,0,0,0,.967.755h3.987a1,1,0,0,0,.967-.755l.166-.666.589.354a1,1,0,0,0,1.217-.151l2.82-2.82a1,1,0,0,0,.15-1.217l-.354-.589.666-.166A1,1,0,0,0,26.94,49.963Zm-1.993-.778-1.216.3a1,1,0,0,0-.613,1.48l.645,1.074-1.719,1.72-1.074-.646a1,1,0,0,0-1.48.613l-.3,1.216H16.755l-.3-1.216a1,1,0,0,0-1.48-.613l-1.074.646-1.72-1.72.646-1.074a1,1,0,0,0-.613-1.48L11,49.185v-2.43l1.216-.3a1,1,0,0,0,.613-1.48L12.181,43.9l1.72-1.719,1.074.645a1,1,0,0,0,1.48-.613l.3-1.216h2.43l.3,1.216a1,1,0,0,0,1.48.613l1.074-.645L23.758,43.9l-.645,1.074a1,1,0,0,0,.613,1.48l1.216.3Z" transform="translate(-0.023 -0.123)"/>
      <path id="Trazado_1042295" data-name="Trazado 1042295" d="M29.907,47.847a11.96,11.96,0,1,1-11.96-11.96,1,1,0,0,0,1-1V31.9H53.827c4.694,0,7.973-3.688,7.973-8.97,0-4.41-1.894-7.627-5.1-8.75-.87-3.678-5.455-6.2-7.853-6.2a11.912,11.912,0,0,0-4.637.766C41,4.448,36.553,2,31.9,2A16.454,16.454,0,0,0,18.588,8.719a8.976,8.976,0,0,0-3.631-.739,6.989,6.989,0,0,0-6.915,6.043A6.987,6.987,0,0,0,2,20.937,10.976,10.976,0,0,0,12.963,31.9H16.95v2.028A13.953,13.953,0,1,0,31.865,48.844h4.022V46.85H30.9A1,1,0,0,0,29.907,47.847ZM3.993,20.937a4.983,4.983,0,0,1,4.068-4.891,4.723,4.723,0,0,0,3.719,3.876,4.41,4.41,0,0,0,.83.079,4.839,4.839,0,0,0,4.224-2.584l-1.762-.933a2.779,2.779,0,0,1-2.919,1.481,2.819,2.819,0,0,1-2.18-2.947h-.01c0-.021.012-.039.012-.06a4.989,4.989,0,0,1,4.983-4.983,7.575,7.575,0,0,1,3.554.9.991.991,0,0,0,1.128-.2l.011.011a3.389,3.389,0,0,1,2.944-.8,3.307,3.307,0,0,1,2.436,1.531,3.462,3.462,0,0,1-1.547,4.643l.891,1.784a5.462,5.462,0,0,0,2.441-7.318A5.194,5.194,0,0,0,22.91,7.918a6.21,6.21,0,0,0-.884-.074A14.825,14.825,0,0,1,31.9,3.993a12.6,12.6,0,0,1,8.877,3.852,6.066,6.066,0,0,0-.884.073,5.194,5.194,0,0,0-3.907,2.606,5.477,5.477,0,0,0,2.445,7.323l.891-1.784a3.463,3.463,0,0,1-1.542-4.647,3.307,3.307,0,0,1,2.436-1.531,3.389,3.389,0,0,1,2.944.8l.01-.01a.979.979,0,0,0,1.07.228l.3-.126a9.446,9.446,0,0,1,4.3-.8,8.173,8.173,0,0,1,5.032,2.94,5.98,5.98,0,0,0-2.022-.012,5.194,5.194,0,0,0-3.9,2.606,5.477,5.477,0,0,0,2.44,7.323l.891-1.784A3.463,3.463,0,0,1,49.741,16.4a3.307,3.307,0,0,1,2.436-1.531,3.389,3.389,0,0,1,2.944.8l0-.011a1,1,0,0,0,.455.268c2.647.669,4.229,3.288,4.229,7.008,0,3.472-1.849,6.977-5.98,6.977H40.87a3.376,3.376,0,0,1-2.642-1.521,3.311,3.311,0,0,1-.641-2.806,3.467,3.467,0,0,1,4.377-2.193l.63-1.894a5.453,5.453,0,0,0-6.9,3.448,5.193,5.193,0,0,0,.913,4.6c.09.125.188.239.286.356H26.9c.1-.117.2-.231.286-.356a5.193,5.193,0,0,0,.913-4.6,5.454,5.454,0,0,0-6.9-3.448l.63,1.894a3.468,3.468,0,0,1,4.377,2.193,3.311,3.311,0,0,1-.641,2.806,3.376,3.376,0,0,1-2.642,1.521H12.963a8.98,8.98,0,0,1-8.97-8.97Z" transform="translate(0 0)"/>
      <path id="Trazado_1042296" data-name="Trazado 1042296" d="M60.793,55H50.951a1,1,0,0,0-1,1H47.961a1,1,0,0,0-1-1H37.122a1,1,0,0,0-.957,1.276l.453,1.555a3.007,3.007,0,0,0,2.87,2.153H58.426a3.007,3.007,0,0,0,2.87-2.153l.453-1.555A1,1,0,0,0,60.793,55Zm-21.3,2.99a1,1,0,0,1-.957-.719l-.081-.278h7.516a1,1,0,0,0,1,1Zm19.894-.719a1,1,0,0,1-.957.719H50.951a1,1,0,0,0,1-1h7.516Z" transform="translate(-0.114 -0.176)"/>
      <path id="Trazado_1042297" data-name="Trazado 1042297" d="M56.937,39.98H55.86a6.968,6.968,0,0,0-13.794,0H40.99A2.99,2.99,0,0,0,38,42.97v7.973a2.99,2.99,0,0,0,2.99,2.99H56.937a2.99,2.99,0,0,0,2.99-2.99V42.97A2.99,2.99,0,0,0,56.937,39.98Zm-7.973-3.987a4.983,4.983,0,1,1-4.983,4.983,4.983,4.983,0,0,1,4.983-4.983Zm8.97,14.95a1,1,0,0,1-1,1H40.99a1,1,0,0,1-1-1V42.97a1,1,0,0,1,1-1h1.076a6.968,6.968,0,0,0,13.794,0h1.076a1,1,0,0,1,1,1Z" transform="translate(-0.12 -0.106)"/>
      <path id="Trazado_1042298" data-name="Trazado 1042298" d="M48,49h1.993v1.993H48Z" transform="translate(-0.153 -0.156)"/>
      <path id="Trazado_1042299" data-name="Trazado 1042299" d="M52,49h1.993v1.993H52Z" transform="translate(-0.166 -0.156)"/>
      <path id="Trazado_1042300" data-name="Trazado 1042300" d="M44,49h1.993v1.993H44Z" transform="translate(-0.14 -0.156)"/>
      <path id="Trazado_1042301" data-name="Trazado 1042301" d="M47.993,43.98h1.993V41.987H51.98V39.993H49.987V38H47.993v1.993H46v1.993h1.993Z" transform="translate(-0.146 -0.12)"/>
    </g>
  </g>
</svg>
