<svg xmlns="http://www.w3.org/2000/svg" xmlns:xlink="http://www.w3.org/1999/xlink" width="118" height="118" viewBox="0 0 118 118">
  <defs>
    <filter id="Trazado_982547" x="0" y="0" width="118" height="118" filterUnits="userSpaceOnUse">
      <feOffset dy="3" input="SourceAlpha"/>
      <feGaussianBlur stdDeviation="3" result="blur"/>
      <feFlood flood-opacity="0.161"/>
      <feComposite operator="in" in2="blur"/>
      <feComposite in="SourceGraphic"/>
    </filter>
  </defs>
  <g id="Grupo_1202655" data-name="Grupo 1202655" transform="translate(-321 -1341)">
    <g id="Grupo_1202047" data-name="Grupo 1202047" transform="translate(332.5 1349.5)">
      <g id="Grupo_1174813" data-name="Grupo 1174813" transform="translate(-2.5 -2.5)">
        <g id="Grupo_1201680" data-name="Grupo 1201680">
          <g id="Grupo_1201330" data-name="Grupo 1201330">
            <g id="Grupo_1172010" data-name="Grupo 1172010">
              <g id="Grupo_1171046" data-name="Grupo 1171046">
                <g id="Grupo_1148525" data-name="Grupo 1148525">
                  <g transform="matrix(1, 0, 0, 1, -9, -6)" filter="url(#Trazado_982547)">
                    <g id="Trazado_982547-2" data-name="Trazado 982547" transform="translate(9 6)" fill="#f3e6fd">
                      <path d="M 50 98.5 C 43.45188522338867 98.5 37.10042953491211 97.21787261962891 31.12207221984863 94.68923950195312 C 25.34691429138184 92.24655914306641 20.15997123718262 88.74931335449219 15.70532894134521 84.29468536376953 C 11.2506856918335 79.84004211425781 7.753442764282227 74.65309906005859 5.310757160186768 68.8779296875 C 2.782128572463989 62.89957046508789 1.5 56.54811477661133 1.5 50 C 1.5 43.45188522338867 2.782128572463989 37.10042953491211 5.310757160186768 31.12207221984863 C 7.753442764282227 25.34691429138184 11.2506856918335 20.15997123718262 15.70532894134521 15.70532894134521 C 20.15997123718262 11.2506856918335 25.34691429138184 7.753442764282227 31.12207221984863 5.310757160186768 C 37.10042953491211 2.782128572463989 43.45188522338867 1.5 50 1.5 C 56.54811477661133 1.5 62.89957046508789 2.782128572463989 68.8779296875 5.310757160186768 C 74.65309906005859 7.753442764282227 79.84004211425781 11.2506856918335 84.29468536376953 15.70532894134521 C 88.74931335449219 20.15997123718262 92.24655914306641 25.34691429138184 94.68923950195312 31.12207221984863 C 97.21787261962891 37.10042953491211 98.5 43.45188522338867 98.5 50 C 98.5 56.54811477661133 97.21787261962891 62.89957046508789 94.68923950195312 68.8779296875 C 92.24655914306641 74.65309906005859 88.74931335449219 79.84004211425781 84.29468536376953 84.29468536376953 C 79.84004211425781 88.74931335449219 74.65309906005859 92.24655914306641 68.8779296875 94.68923950195312 C 62.89957046508789 97.21787261962891 56.54811477661133 98.5 50 98.5 Z" stroke="none"/>
                      <path d="M 50 3 C 43.65372467041016 3 37.49886322021484 4.242263793945312 31.70639801025391 6.6922607421875 C 26.11003112792969 9.059326171875 21.08335113525391 12.44861602783203 16.76598358154297 16.76598358154297 C 12.44861602783203 21.08335113525391 9.059326171875 26.11003112792969 6.6922607421875 31.70639801025391 C 4.242263793945312 37.49886322021484 3 43.65372467041016 3 50 C 3 56.34627532958984 4.242263793945312 62.50113677978516 6.6922607421875 68.29360198974609 C 9.059326171875 73.88996887207031 12.44861602783203 78.91666412353516 16.76598358154297 83.23401641845703 C 21.08335113525391 87.55138397216797 26.11003112792969 90.940673828125 31.70639801025391 93.3077392578125 C 37.49886322021484 95.75773620605469 43.65372467041016 97 50 97 C 56.34627532958984 97 62.50113677978516 95.75773620605469 68.29360198974609 93.3077392578125 C 73.88996887207031 90.940673828125 78.91666412353516 87.55138397216797 83.23401641845703 83.23401641845703 C 87.55138397216797 78.91666412353516 90.940673828125 73.88996887207031 93.3077392578125 68.29360198974609 C 95.75773620605469 62.50113677978516 97 56.34627532958984 97 50 C 97 43.65372467041016 95.75773620605469 37.49886322021484 93.3077392578125 31.70639801025391 C 90.940673828125 26.11003112792969 87.55138397216797 21.08335113525391 83.23401641845703 16.76598358154297 C 78.91666412353516 12.44861602783203 73.88996887207031 9.059326171875 68.29360198974609 6.6922607421875 C 62.50113677978516 4.242263793945312 56.34627532958984 3 50 3 M 50 0 C 77.61424255371094 0 100 22.38577270507812 100 50 C 100 77.61424255371094 77.61424255371094 100 50 100 C 22.38577270507812 100 0 77.61424255371094 0 50 C 0 22.38577270507812 22.38577270507812 0 50 0 Z" stroke="none" fill="#951bf1"/>
                    </g>
                  </g>
                </g>
              </g>
            </g>
          </g>
        </g>
      </g>
    </g>
    <g id="diagram_4394629" transform="translate(349 1363.646)">
      <g id="Grupo_1202655-2" data-name="Grupo 1202655" transform="translate(1.473 34.006)">
        <path id="Trazado_1042397" data-name="Trazado 1042397" d="M38.2,287.744V264.562a1.532,1.532,0,0,0-1.527-1.528H29.986l-3.6-3.1a1.777,1.777,0,0,0-2.453-.135l-3.757,3.232H13.488a1.532,1.532,0,0,0-1.527,1.528v23.182a1.532,1.532,0,0,0,1.527,1.528H36.67A1.532,1.532,0,0,0,38.2,287.744Z" transform="translate(-11.961 -259.375)" fill="#a7e9a6" fill-rule="evenodd"/>
      </g>
      <g id="Grupo_1202656" data-name="Grupo 1202656" transform="translate(7.462 43.599)">
        <path id="Trazado_1042398" data-name="Trazado 1042398" d="M74.03,342.3a.827.827,0,0,0,.822-.822v-3.388a.827.827,0,0,0-.822-.822H61.417a.825.825,0,0,0-.822.822v3.388a.825.825,0,0,0,.822.822Z" transform="translate(-60.595 -337.271)" fill="#375e7d" fill-rule="evenodd"/>
      </g>
      <g id="Grupo_1202657" data-name="Grupo 1202657" transform="translate(32.231 37.666)">
        <path id="Trazado_1042399" data-name="Trazado 1042399" d="M291.619,313.805V290.624a1.532,1.532,0,0,0-1.527-1.528H266.911a1.532,1.532,0,0,0-1.527,1.528v6.684l-3.1,3.6a1.772,1.772,0,0,0-.131,2.449l3.232,3.76v6.684a1.532,1.532,0,0,0,1.527,1.528h23.181A1.532,1.532,0,0,0,291.619,313.805Z" transform="translate(-261.721 -289.096)" fill="#eb5468" fill-rule="evenodd"/>
      </g>
      <g id="Grupo_1202658" data-name="Grupo 1202658" transform="translate(42.045 43.861)">
        <path id="Trazado_1042400" data-name="Trazado 1042400" d="M341.414,340.223v3.388a.825.825,0,0,0,.822.822h12.61a.825.825,0,0,0,.822-.822v-3.388a.825.825,0,0,0-.822-.822h-12.61A.825.825,0,0,0,341.414,340.223Z" transform="translate(-341.414 -339.401)" fill="#375e7d" fill-rule="evenodd"/>
      </g>
      <g id="Grupo_1202659" data-name="Grupo 1202659" transform="translate(35.892 3.277)">
        <path id="Trazado_1042401" data-name="Trazado 1042401" d="M292.982,36.09h6.684l3.757,3.232a1.777,1.777,0,0,0,2.453-.135l3.6-3.1h6.684a1.532,1.532,0,0,0,1.527-1.528V11.381a1.532,1.532,0,0,0-1.527-1.528H292.982a1.532,1.532,0,0,0-1.527,1.528V34.562A1.532,1.532,0,0,0,292.982,36.09Z" transform="translate(-291.455 -9.853)" fill="#b1e4f9" fill-rule="evenodd"/>
      </g>
      <g id="Grupo_1202660" data-name="Grupo 1202660" transform="translate(0.924 3.277)">
        <path id="Trazado_1042402" data-name="Trazado 1042402" d="M36.968,24.118a1.773,1.773,0,0,0-.135-2.449l-3.1-3.6V11.381a1.532,1.532,0,0,0-1.527-1.528H9.027A1.532,1.532,0,0,0,7.5,11.381V34.562A1.532,1.532,0,0,0,9.027,36.09H32.209a1.532,1.532,0,0,0,1.527-1.528V27.878Z" transform="translate(-7.5 -9.853)" fill="#ffc269" fill-rule="evenodd"/>
      </g>
      <g id="Grupo_1202661" data-name="Grupo 1202661" transform="translate(6.888 9.731)">
        <path id="Trazado_1042403" data-name="Trazado 1042403" d="M70.191,66.469V63.081a.828.828,0,0,0-.826-.822H56.755a.825.825,0,0,0-.822.822v3.388a.825.825,0,0,0,.822.822h12.61A.828.828,0,0,0,70.191,66.469Z" transform="translate(-55.933 -62.259)" fill="#375e7d" fill-rule="evenodd"/>
      </g>
      <g id="Grupo_1202662" data-name="Grupo 1202662" transform="translate(41.942 9.558)">
        <path id="Trazado_1042404" data-name="Trazado 1042404" d="M341.4,65.878h12.61a.823.823,0,0,0,.822-.822V61.671a.823.823,0,0,0-.822-.822H341.4a.823.823,0,0,0-.822.822v3.385A.823.823,0,0,0,341.4,65.878Z" transform="translate(-340.579 -60.849)" fill="#375e7d" fill-rule="evenodd"/>
      </g>
      <g id="Grupo_1202663" data-name="Grupo 1202663" transform="translate(16.255 9.731)">
        <path id="Trazado_1042405" data-name="Trazado 1042405" d="M136.059,62.26h-4.065a35.453,35.453,0,0,1,.666,5.033h3.4a.828.828,0,0,0,.826-.822V63.082A.828.828,0,0,0,136.059,62.26Z" transform="translate(-131.994 -62.26)" fill="#2b4d66" fill-rule="evenodd"/>
      </g>
      <g id="Grupo_1202664" data-name="Grupo 1202664" transform="translate(14.146 3.277)">
        <path id="Trazado_1042406" data-name="Trazado 1042406" d="M121.046,21.339h-3.4q.069,1.122.071,2.272c0,.61-.014,1.212-.042,1.811a35.553,35.553,0,0,1-.429,4.062,31.219,31.219,0,0,1-1.822,6.606h10.933a1.532,1.532,0,0,0,1.527-1.528V27.878l3.232-3.76a1.773,1.773,0,0,0-.135-2.449l-3.1-3.6V11.381a1.532,1.532,0,0,0-1.527-1.528H114.873a29.708,29.708,0,0,1,2.109,6.454h4.065a.828.828,0,0,1,.826.822v3.388A.828.828,0,0,1,121.046,21.339Z" transform="translate(-114.873 -9.853)" fill="#ffa95f" fill-rule="evenodd"/>
      </g>
      <g id="Grupo_1202665" data-name="Grupo 1202665" transform="translate(49.558 9.558)">
        <path id="Trazado_1042407" data-name="Trazado 1042407" d="M402.424,60.849a33.3,33.3,0,0,1,1.07,5.029h4.745a.823.823,0,0,0,.822-.822V61.671a.823.823,0,0,0-.822-.822h-5.816Z" transform="translate(-402.424 -60.849)" fill="#2b4d66" fill-rule="evenodd"/>
      </g>
      <g id="Grupo_1202666" data-name="Grupo 1202666" transform="translate(46.811 3.277)">
        <path id="Trazado_1042408" data-name="Trazado 1042408" d="M382.867,16.133h5.816a.823.823,0,0,1,.822.822V20.34a.823.823,0,0,1-.822.822h-4.745a36.439,36.439,0,0,1,.312,4.086c.007.259.011.521.011.78,0,1.116-.05,2.208-.145,3.282a31.8,31.8,0,0,1-2.594,10.246,1.78,1.78,0,0,0,2.1-.369l3.6-3.1h6.684a1.532,1.532,0,0,0,1.527-1.528V11.381a1.532,1.532,0,0,0-1.527-1.528H380.12A26.445,26.445,0,0,1,382.867,16.133Z" transform="translate(-380.12 -9.853)" fill="#75cef8" fill-rule="evenodd"/>
      </g>
      <g id="Grupo_1202667" data-name="Grupo 1202667" transform="translate(51.457 43.861)">
        <path id="Trazado_1042409" data-name="Trazado 1042409" d="M421.867,339.4h-4.019a36.808,36.808,0,0,1,.213,3.994c0,.347,0,.695-.014,1.038h3.82a.825.825,0,0,0,.822-.822v-3.388A.825.825,0,0,0,421.867,339.4Z" transform="translate(-417.848 -339.402)" fill="#2b4d66" fill-rule="evenodd"/>
      </g>
      <g id="Grupo_1202668" data-name="Grupo 1202668" transform="translate(47.612 37.666)">
        <path id="Trazado_1042410" data-name="Trazado 1042410" d="M390.469,295.291h4.019a.825.825,0,0,1,.822.822V299.5a.825.825,0,0,1-.822.822h-3.821a35.415,35.415,0,0,1-.34,4.083,32.806,32.806,0,0,1-.833,4.062,26.907,26.907,0,0,1-2.871,6.865h12.989a1.532,1.532,0,0,0,1.527-1.528V290.624a1.532,1.532,0,0,0-1.527-1.528H389.2A33.741,33.741,0,0,1,390.469,295.291Z" transform="translate(-386.624 -289.096)" fill="#e5384f" fill-rule="evenodd"/>
      </g>
      <g id="Grupo_1202669" data-name="Grupo 1202669" transform="translate(16.609 43.599)">
        <path id="Trazado_1042411" data-name="Trazado 1042411" d="M139.983,341.481v-3.388a.827.827,0,0,0-.822-.822h-4.288a36.8,36.8,0,0,1,.383,5.033h3.906A.827.827,0,0,0,139.983,341.481Z" transform="translate(-134.872 -337.271)" fill="#2b4d66" fill-rule="evenodd"/>
      </g>
      <g id="Grupo_1202670" data-name="Grupo 1202670" transform="translate(13.522 34.007)">
        <path id="Trazado_1042412" data-name="Trazado 1042412" d="M118,269.8v3.388a.827.827,0,0,1-.822.822h-3.906v.262a36.451,36.451,0,0,1-.2,3.821,34.076,34.076,0,0,1-.666,4.062,28.657,28.657,0,0,1-2.6,7.127h12.659a1.532,1.532,0,0,0,1.527-1.528V264.571a1.532,1.532,0,0,0-1.527-1.528h-6.684l-3.6-3.1a1.787,1.787,0,0,0-2.183-.326,30.114,30.114,0,0,1,2.9,9.356h4.288a.827.827,0,0,1,.822.822Z" transform="translate(-109.806 -259.384)" fill="#7fdbae" fill-rule="evenodd"/>
      </g>
      <g id="Grupo_1202671" data-name="Grupo 1202671" transform="translate(0 2.354)">
        <path id="Trazado_1042413" data-name="Trazado 1042413" d="M30.936,14.466l-2.852-3.319V4.805a2.454,2.454,0,0,0-2.451-2.451H2.451A2.454,2.454,0,0,0,0,4.805V27.987a2.454,2.454,0,0,0,2.451,2.451h9.533a.924.924,0,1,0,0-1.847H2.451a.612.612,0,0,1-.6-.6V4.805a.612.612,0,0,1,.6-.6H25.632a.612.612,0,0,1,.6.6v6.684a.924.924,0,0,0,.223.6l3.1,3.6c.016.019.033.037.051.054a.856.856,0,0,1,.084,1.19L26.459,20.7a.924.924,0,0,0-.223.6v6.684a.612.612,0,0,1-.6.6H16.1a.924.924,0,1,0,0,1.847h9.53a2.454,2.454,0,0,0,2.451-2.451V21.645l3.007-3.5a2.693,2.693,0,0,0-.155-3.681Z" transform="translate(0 -2.354)"/>
        <path id="Trazado_1042414" data-name="Trazado 1042414" d="M350.014,337.035v-3.388a1.748,1.748,0,0,0-1.746-1.746h-12.61a1.748,1.748,0,0,0-1.746,1.746v3.388a1.748,1.748,0,0,0,1.746,1.746h12.61A1.748,1.748,0,0,0,350.014,337.035Zm-1.847-.1H335.76v-3.185h12.407Z" transform="translate(-292.792 -291.318)"/>
        <path id="Trazado_1042415" data-name="Trazado 1042415" d="M357.832,405.921a.924.924,0,0,0,0,1.847h8.591a.924.924,0,0,0,0-1.847Z" transform="translate(-312.955 -356.222)"/>
        <path id="Trazado_1042416" data-name="Trazado 1042416" d="M337.629,440.749H351.2a.924.924,0,0,0,0-1.847H337.629a.924.924,0,0,0,0,1.847Z" transform="translate(-295.24 -385.142)"/>
        <path id="Trazado_1042417" data-name="Trazado 1042417" d="M67.454,329.771H54.841a1.748,1.748,0,0,0-1.746,1.746v3.388a1.748,1.748,0,0,0,1.746,1.746H67.454a1.748,1.748,0,0,0,1.746-1.746v-3.388A1.748,1.748,0,0,0,67.454,329.771Zm-.1,5.033H54.942v-3.185h12.41Z" transform="translate(-46.556 -289.45)"/>
        <path id="Trazado_1042418" data-name="Trazado 1042418" d="M85.608,405.638a.924.924,0,0,0,0-1.847H77.014a.924.924,0,0,0,0,1.847Z" transform="translate(-66.72 -354.355)"/>
        <path id="Trazado_1042419" data-name="Trazado 1042419" d="M70.377,436.772H56.811a.924.924,0,1,0,0,1.847H70.377a.924.924,0,1,0,0-1.847Z" transform="translate(-49.005 -383.274)"/>
        <path id="Trazado_1042420" data-name="Trazado 1042420" d="M309.586,2.354H286.405a2.454,2.454,0,0,0-2.451,2.451V27.987a2.454,2.454,0,0,0,2.451,2.451h6.341l3.5,3.009a2.663,2.663,0,0,0,1.744.651,2.762,2.762,0,0,0,1.939-.808l3.319-2.852h6.342a2.454,2.454,0,0,0,2.451-2.451V4.805a2.454,2.454,0,0,0-2.451-2.451Zm.6,25.633a.612.612,0,0,1-.6.6H302.9a.924.924,0,0,0-.6.223l-3.6,3.1c-.019.016-.037.033-.054.051a.851.851,0,0,1-1.194.084l-3.757-3.232a.924.924,0,0,0-.6-.223h-6.684a.612.612,0,0,1-.6-.6V4.805a.612.612,0,0,1,.6-.6h23.181a.612.612,0,0,1,.6.6Z" transform="translate(-248.985 -2.354)"/>
        <path id="Trazado_1042421" data-name="Trazado 1042421" d="M283.511,281.6H260.33a2.454,2.454,0,0,0-2.451,2.451v6.341l-2.856,3.319a2.693,2.693,0,0,0-.153,3.679l3.009,3.5v6.342a2.454,2.454,0,0,0,2.451,2.451h9.519a.924.924,0,1,0,0-1.847H260.33a.612.612,0,0,1-.6-.6v-6.684a.924.924,0,0,0-.223-.6l-3.234-3.762a.855.855,0,0,1,.082-1.189q.026-.026.05-.054l3.1-3.6a.924.924,0,0,0,.223-.6v-6.684a.612.612,0,0,1,.6-.6h23.181a.612.612,0,0,1,.6.6v23.182a.612.612,0,0,1-.6.6h-9.544a.924.924,0,0,0,0,1.847h9.544a2.454,2.454,0,0,0,2.451-2.451V284.047A2.454,2.454,0,0,0,283.511,281.6Z" transform="translate(-222.91 -247.208)"/>
        <path id="Trazado_1042422" data-name="Trazado 1042422" d="M30.093,255.537H23.751l-3.319-2.852a2.7,2.7,0,0,0-3.683-.157l-3.5,3.009H6.911a2.454,2.454,0,0,0-2.451,2.451V281.17a2.454,2.454,0,0,0,2.451,2.451H30.092a2.454,2.454,0,0,0,2.451-2.451V257.988A2.454,2.454,0,0,0,30.093,255.537Zm.6,25.633a.612.612,0,0,1-.6.6H6.911a.612.612,0,0,1-.6-.6V257.988a.612.612,0,0,1,.6-.6H13.6a.924.924,0,0,0,.6-.223l3.756-3.232a.851.851,0,0,1,1.194.084c.017.018.036.034.054.051l3.6,3.1a.924.924,0,0,0,.6.223h6.684a.612.612,0,0,1,.6.6Z" transform="translate(-3.911 -221.149)"/>
        <path id="Trazado_1042423" data-name="Trazado 1042423" d="M347.434,53.35h-12.61a1.748,1.748,0,0,0-1.746,1.746V58.48a1.748,1.748,0,0,0,1.746,1.746h12.61a1.748,1.748,0,0,0,1.746-1.746V55.1A1.748,1.748,0,0,0,347.434,53.35Zm-.1,5.029H334.926V55.2h12.407Z" transform="translate(-292.061 -47.07)"/>
        <path id="Trazado_1042424" data-name="Trazado 1042424" d="M365.588,129.216a.924.924,0,0,0,0-1.847H357a.924.924,0,0,0,0,1.847Z" transform="translate(-312.224 -111.974)"/>
        <path id="Trazado_1042425" data-name="Trazado 1042425" d="M350.361,160.35H336.795a.924.924,0,1,0,0,1.847h13.566a.924.924,0,0,0,0-1.847Z" transform="translate(-294.509 -140.893)"/>
        <path id="Trazado_1042426" data-name="Trazado 1042426" d="M64.538,59.894V56.506a1.75,1.75,0,0,0-1.749-1.746H50.179a1.748,1.748,0,0,0-1.746,1.746v3.388a1.748,1.748,0,0,0,1.746,1.746h12.61A1.75,1.75,0,0,0,64.538,59.894Zm-1.847-.1H50.28V56.607h12.41v3.185Z" transform="translate(-42.469 -48.306)"/>
        <path id="Trazado_1042427" data-name="Trazado 1042427" d="M72.352,128.779a.924.924,0,1,0,0,1.847h8.591a.924.924,0,1,0,0-1.847Z" transform="translate(-62.632 -113.21)"/>
        <path id="Trazado_1042428" data-name="Trazado 1042428" d="M52.149,163.607H65.715a.924.924,0,1,0,0-1.847H52.149a.924.924,0,1,0,0,1.847Z" transform="translate(-44.917 -142.129)"/>
      </g>
    </g>
  </g>
</svg>
