<svg xmlns="http://www.w3.org/2000/svg" xmlns:xlink="http://www.w3.org/1999/xlink" width="103" height="103" viewBox="0 0 103 103">
  <defs>
    <filter id="Trazado_978624" x="0" y="0" width="103" height="103" filterUnits="userSpaceOnUse">
      <feOffset dy="3" input="SourceAlpha"/>
      <feGaussianBlur stdDeviation="3" result="blur"/>
      <feFlood flood-opacity="0.161"/>
      <feComposite operator="in" in2="blur"/>
      <feComposite in="SourceGraphic"/>
    </filter>
  </defs>
  <g id="Grupo_1202562" data-name="Grupo 1202562" transform="translate(-198.669 -5727)">
    <g id="Grupo_1202502" data-name="Grupo 1202502" transform="translate(207.669 5733)">
      <g id="Grupo_1176881" data-name="Grupo 1176881">
        <g id="Grupo_1175148" data-name="Grupo 1175148">
          <g id="Grupo_1173798" data-name="Grupo 1173798">
            <g id="Grupo_1171925" data-name="Grupo 1171925">
              <g id="Grupo_1164524" data-name="Grupo 1164524">
                <g id="Grupo_1144123" data-name="Grupo 1144123">
                  <g transform="matrix(1, 0, 0, 1, -9, -6)" filter="url(#Trazado_978624)">
                    <g id="Trazado_978624-2" data-name="Trazado 978624" transform="translate(9 6)" fill="#e6fdfd">
                      <path d="M 42.5 83.5 C 36.96437835693359 83.5 31.59512901306152 82.41617584228516 26.54141235351562 80.27863311767578 C 21.65934181213379 78.21369171142578 17.27447128295898 75.25723266601562 13.50862312316895 71.49137878417969 C 9.742764472961426 67.72553253173828 6.786305904388428 63.34066009521484 4.721364498138428 58.45858764648438 C 2.583823442459106 53.40486907958984 1.5 48.03562164306641 1.5 42.5 C 1.5 36.96437835693359 2.583823442459106 31.59512901306152 4.721364498138428 26.54141235351562 C 6.786305904388428 21.65934181213379 9.742764472961426 17.27447128295898 13.50862312316895 13.50862312316895 C 17.27447128295898 9.742764472961426 21.65934181213379 6.786305904388428 26.54141235351562 4.721364498138428 C 31.59512901306152 2.583823442459106 36.96437835693359 1.5 42.5 1.5 C 48.03562164306641 1.5 53.40486907958984 2.583823442459106 58.45858764648438 4.721364498138428 C 63.34066009521484 6.786305904388428 67.72553253173828 9.742764472961426 71.49137878417969 13.50862312316895 C 75.25723266601562 17.27447128295898 78.21369171142578 21.65934181213379 80.27863311767578 26.54141235351562 C 82.41617584228516 31.59512901306152 83.5 36.96437835693359 83.5 42.5 C 83.5 48.03562164306641 82.41617584228516 53.40486907958984 80.27863311767578 58.45858764648438 C 78.21369171142578 63.34066009521484 75.25723266601562 67.72553253173828 71.49137878417969 71.49137878417969 C 67.72553253173828 75.25723266601562 63.34066009521484 78.21369171142578 58.45858764648438 80.27863311767578 C 53.40486907958984 82.41617584228516 48.03562164306641 83.5 42.5 83.5 Z" stroke="none"/>
                      <path d="M 42.5 3 C 37.16621398925781 3 31.99356079101562 4.043960571289062 27.125732421875 6.102882385253906 C 22.42246627807617 8.092185974121094 18.19785308837891 10.94070434570312 14.56928253173828 14.56928253173828 C 10.94070434570312 18.19785308837891 8.092185974121094 22.42246627807617 6.102882385253906 27.125732421875 C 4.043960571289062 31.99356079101562 3 37.16621398925781 3 42.5 C 3 47.83378601074219 4.043960571289062 53.00643920898438 6.102882385253906 57.87425231933594 C 8.092185974121094 62.57753372192383 10.94070434570312 66.80213165283203 14.56928253173828 70.43071746826172 C 18.19786834716797 74.05929565429688 22.42246627807617 76.90781402587891 27.125732421875 78.89711761474609 C 31.99356079101562 80.95603942871094 37.16621398925781 82 42.5 82 C 47.83378601074219 82 53.00642395019531 80.95603942871094 57.87425231933594 78.89711761474609 C 62.57753372192383 76.90781402587891 66.80213165283203 74.05929565429688 70.43071746826172 70.43071746826172 C 74.05929565429688 66.80213165283203 76.90781402587891 62.57753372192383 78.89711761474609 57.87425231933594 C 80.95603942871094 53.00642395019531 82 47.83378601074219 82 42.5 C 82 37.16621398925781 80.95603942871094 31.99356079101562 78.89711761474609 27.125732421875 C 76.90781402587891 22.42246627807617 74.05929565429688 18.19786834716797 70.43071746826172 14.56928253173828 C 66.80213165283203 10.94070434570312 62.57753372192383 8.092185974121094 57.87425231933594 6.102882385253906 C 53.00643920898438 4.043960571289062 47.83378601074219 3 42.5 3 M 42.5 0 C 65.97209167480469 0 85 19.02789306640625 85 42.5 C 85 65.97209167480469 65.97209167480469 85 42.5 85 C 19.02789306640625 85 0 65.97209167480469 0 42.5 C 0 19.02789306640625 19.02789306640625 0 42.5 0 Z" stroke="none" fill="#1bf5f5"/>
                    </g>
                  </g>
                </g>
              </g>
            </g>
          </g>
        </g>
      </g>
    </g>
    <g id="flowchart_16090780" transform="translate(172.195 5740.227)">
      <path id="Trazado_1042218" data-name="Trazado 1042218" d="M199.036,22h12.3v8.593h-12.3Z" transform="translate(-127.211 -12.489)" fill="#6cf5c2"/>
      <path id="Trazado_1042219" data-name="Trazado 1042219" d="M92.218,33.328h6.546a.756.756,0,0,0,.756-.756V25.88a.756.756,0,0,0-.756-.756H96.248V13.808a.756.756,0,0,0-.756-.756H85.635v-4.3A.756.756,0,0,0,84.88,8H71.069a.756.756,0,0,0-.756.756v10.1a.756.756,0,0,0,.756.756h6.148v5.509H72.107a.756.756,0,0,0-.73.56l-.747,2.788H57.186a.756.756,0,0,0-.756.756V43.347a.756.756,0,0,0,.756.756h9.156l-1.194,1.052a.756.756,0,0,0,1,1.134l2.7-2.375a.756.756,0,0,0,0-1.134l-2.7-2.372a.756.756,0,1,0-1,1.135l1.192,1.048h-8.4V29.984H70.225l-.641,2.393a.756.756,0,0,0,.73.951h6.9v4.987l-4.5,4.5a.756.756,0,0,0,0,1.069l4.5,4.5v4.963H74.555a4.1,4.1,0,0,0,0,8.2h6.836a4.11,4.11,0,0,0,4.028-3.323H98.764a.756.756,0,0,0,.756-.756V43.347a.756.756,0,0,0-.756-.756H87.606a.756.756,0,1,0,0,1.511h10.4V56.711H85.428a4.109,4.109,0,0,0-4.037-3.369H78.729V48.355l4.5-4.5a.756.756,0,0,0,0-1.069l-4.5-4.5V33.329h5.114a.756.756,0,0,0,.73-.56l.746-2.785h6.144v2.589a.756.756,0,0,0,.756.756ZM83.983,57.442a2.6,2.6,0,0,1-2.592,2.592H74.555a2.591,2.591,0,0,1,0-5.181h6.836A2.594,2.594,0,0,1,83.983,57.442ZM77.961,46.985l-3.638-3.638,3.662-3.662,3.638,3.638ZM98.008,31.817H92.974V26.636h5.034ZM71.825,9.511h12.3V18.1h-12.3ZM83.262,31.817H71.3l1.388-5.181H84.651Zm2.461-3.345.642-2.4a.756.756,0,0,0-.73-.951H78.729V19.616H84.88a.756.756,0,0,0,.756-.756v-4.3h9.1V25.124H92.218a.756.756,0,0,0-.756.756v2.592H85.724ZM56.43,13.808a.756.756,0,0,1,.756-.756h6.97L62.962,12a.756.756,0,0,1,1-1.134l2.693,2.375a.756.756,0,0,1,0,1.134l-2.693,2.372a.756.756,0,0,1-1-1.134l1.191-1.049H57.186A.756.756,0,0,1,56.43,13.808ZM67.054,57.442a.756.756,0,0,1-.756.756H59.185l1.193,1.052a.756.756,0,1,1-1,1.134l-2.693-2.375a.756.756,0,0,1,0-1.134L59.379,54.5a.756.756,0,0,1,1,1.134l-1.191,1.049H66.3a.756.756,0,0,1,.756.756ZM82.037,15.274a.756.756,0,0,1-.756.756H74.668a.756.756,0,0,1,0-1.511h6.613A.756.756,0,0,1,82.037,15.274Zm0-2.932a.756.756,0,0,1-.756.756H78.27a.756.756,0,1,1,0-1.511h3.011A.756.756,0,0,1,82.037,12.342Zm-8.124,0a.756.756,0,0,1,.756-.756H75.4a.756.756,0,1,1,0,1.511h-.734A.756.756,0,0,1,73.912,12.342Z"/>
      <path id="Trazado_1042220" data-name="Trazado 1042220" d="M0,0H5.179V5.145H0Z" transform="translate(74.317 43.346) rotate(-45)" fill="#ffe177"/>
      <path id="Trazado_1042221" data-name="Trazado 1042221" d="M200.34,444.6a2.594,2.594,0,0,0,2.589,2.592h6.836a2.591,2.591,0,1,0,0-5.181h-6.836A2.592,2.592,0,0,0,200.34,444.6Z" transform="translate(-128.374 -387.154)" fill="#8ac9fe"/>
      <path id="Trazado_1042222" data-name="Trazado 1042222" d="M194.157,185.806h11.964l1.388-5.181H195.545Z" transform="translate(-122.859 -153.989)" fill="#fe646f"/>
      <path id="Trazado_1042223" data-name="Trazado 1042223" d="M394.938,180.625h5.034v5.181h-5.034Z" transform="translate(-301.964 -153.989)" fill="#8ac9fe"/>
    </g>
  </g>
</svg>
